<svg width="1024" height="1024" viewBox="0 0 1024 1024" fill="none" xmlns="http://www.w3.org/2000/svg">
<rect width="1024" height="1024" fill="#E3F7E8"/>
<path d="M556.84 287.138L556.188 288.441L554.235 290.828L553.584 291.696L552.933 291.913L552.065 292.13L550.762 291.913L549.026 290.828L546.205 290.394L544.252 289.96L542.298 289.743L540.562 289.526L539.042 290.611L537.957 290.828L536.872 290.611H536.438V295.603L536.222 296.037V296.905L536.005 297.773L535.571 299.075L535.354 300.16V302.113L535.137 302.981L535.354 303.849L535.788 304.717H546.205L547.073 305.151L546.857 306.453L546.423 306.887L545.772 307.321L545.555 308.406L545.121 309.708V314.049L546.64 316.002L547.074 317.087L547.508 317.955L547.941 318.389L548.375 319.691L549.026 321.644L549.895 322.946L550.763 324.031L551.197 324.248H554.669L556.84 324.465H557.491L558.359 324.682L559.01 325.116H561.397L561.614 324.682L562.048 323.597L562.265 322.512L562.482 322.295H563.567L564.001 322.729H566.171V323.163L566.388 323.38L567.039 323.813H567.69V327.937L567.907 329.022L568.341 329.89H569.209L569.86 329.673L570.511 329.239L571.162 328.371L571.379 327.286L571.596 326.852L572.03 327.069L572.464 328.154L572.681 330.324L572.898 331.627L573.114 332.712L573.332 333.58L573.766 333.796L574.634 334.013H575.719L577.672 334.23L578.974 334.447H580.06L580.928 335.315L581.796 335.532V337.051L582.447 337.485C580.277 337.485 577.673 337.702 576.154 339.655C575.07 342.044 578.108 343.13 577.457 346.385C576.806 349.64 573.768 347.47 570.729 348.772C567.691 349.857 565.955 351.81 563.133 351.159C560.312 350.508 558.793 350.291 556.839 351.376C554.669 352.678 551.631 351.593 549.46 350.508C547.29 349.423 546.639 349.64 546.639 349.64C546.639 349.64 546.422 353.547 545.337 355.283C544.469 357.019 541.648 356.802 539.911 358.538C537.958 360.275 538.392 360.925 539.911 362.445C541.43 363.964 541.43 365.917 541.43 368.956C541.43 371.994 538.609 370.04 537.09 369.607C535.571 368.956 532.533 367.87 529.277 367.87C526.022 367.87 526.456 367.219 523.418 366.134C520.379 365.049 520.596 365.483 518.643 366.351C516.473 367.219 515.604 365.049 515.604 362.878C515.604 360.491 513.218 360.491 509.528 358.972C505.838 357.453 504.319 358.321 504.319 358.321C504.319 358.321 501.932 359.406 501.064 362.444C500.195 365.482 500.847 365.048 500.195 366.351C499.544 367.436 498.459 368.955 495.638 370.474C492.817 371.993 491.732 369.823 491.298 368.521C491.081 367.002 486.524 365.265 483.485 364.181C480.446 363.096 485.004 368.087 484.136 370.908C483.268 373.73 481.098 377.636 483.702 378.287C486.523 378.938 487.391 379.589 490.43 380.891C493.468 382.41 491.949 378.938 493.685 380.023C495.422 381.108 499.545 382.845 503.452 382.845C507.358 382.845 506.924 385.015 507.141 388.053C507.575 391.309 506.49 389.138 506.49 390.44C506.49 391.525 509.311 392.394 508.66 394.347C508.009 396.083 508.877 396.734 508.009 399.121C507.141 401.508 505.188 401.725 501.065 401.508C496.724 401.292 498.243 400.857 495.856 399.989C493.469 399.121 494.337 398.904 491.949 399.338C489.562 399.989 489.562 396.951 489.562 396.951C489.562 396.951 485.004 394.998 480.664 390.874C476.324 386.751 478.494 386.967 477.192 386.534C475.89 385.883 474.153 383.93 473.936 380.24C473.719 376.767 472.2 377.853 469.162 377.419C466.123 376.767 466.341 376.767 466.123 375.248C465.907 373.729 463.085 372.427 463.085 370.039C463.085 367.652 460.264 370.691 458.311 371.993C456.141 373.512 448.327 376.984 448.327 376.984C448.327 376.984 445.289 375.465 444.638 380.457C443.987 385.448 440.949 385.666 440.949 388.053C440.949 390.44 444.204 389.789 448.328 390.006C452.234 390.223 449.63 392.61 448.544 394.13C447.676 395.649 448.328 396.083 450.281 398.253C452.451 400.207 450.932 400.207 449.63 402.16C448.328 403.896 448.762 404.113 448.11 406.934C447.459 409.538 444.421 411.708 442.034 413.662C439.647 415.615 438.344 414.53 436.825 416.266C435.306 418.002 433.136 418.653 430.097 419.521C427.059 420.389 426.19 418.436 426.19 415.398C426.19 412.359 424.454 411.925 421.416 413.011C418.378 414.096 415.556 412.794 415.339 409.755C415.122 406.934 412.084 407.368 409.913 409.972C407.743 412.576 403.62 415.832 402.317 416.266C401.015 416.483 399.496 417.351 397.977 415.181C396.458 412.794 395.59 415.181 394.287 416.7C392.985 418.219 387.343 422.56 384.305 422.56C381.266 422.56 380.398 421.475 378.01 421.692C375.623 421.909 373.236 427.551 369.764 428.202C366.508 428.853 366.074 427.551 362.385 426.683C358.695 425.815 360.648 428.202 358.695 429.287C356.959 430.372 357.176 428.636 356.308 429.938C355.44 431.023 355.874 431.892 353.921 435.798C351.75 439.705 351.533 436.449 351.75 439.705C351.967 442.96 352.618 445.782 351.099 449.037C349.58 452.292 345.891 451.641 347.844 454.896C349.58 458.151 346.976 457.935 345.89 461.19C345.022 464.445 342.201 463.794 338.728 465.964C335.039 467.918 334.171 465.747 333.303 463.143C332.434 460.539 327.877 461.624 324.188 460.105C320.498 458.586 319.413 462.058 314.421 464.445C309.647 466.832 309.213 467.918 310.081 470.088C310.949 472.258 310.732 477.25 310.732 481.373C310.732 485.496 312.902 487.233 308.996 484.845C305.09 482.458 302.051 478.986 299.664 476.816C297.276 474.645 299.664 479.637 299.664 481.807C299.664 483.76 299.013 487.016 296.625 488.969C294.238 490.705 291.417 488.969 283.17 487.45C274.923 485.931 280.348 482.241 274.055 483.543C268.846 484.628 266.459 487.016 263.638 483.76C260.816 480.505 260.382 482.892 257.344 485.497C254.305 488.101 253.003 485.713 252.135 484.845C251.267 483.977 246.709 486.365 243.02 485.713C240.633 485.28 239.982 484.845 235.424 484.845C230.65 484.845 232.603 487.449 232.603 487.449C232.603 487.449 232.386 488.969 233.905 491.79C235.425 494.611 235.641 495.262 235.425 500.037C234.991 504.811 231.735 503.51 227.178 503.51C222.62 503.51 223.271 504.161 221.969 506.765C220.667 509.369 218.497 508.718 214.373 506.114C210.033 503.51 210.467 502.641 207.646 504.811C204.824 507.199 204.607 507.199 202.22 506.331C199.833 505.462 199.833 505.246 198.965 506.547C198.097 508.067 195.275 506.547 195.058 503.075C194.624 499.603 191.369 501.122 186.811 505.245C182.254 509.369 182.471 506.982 178.564 506.33C174.658 505.679 174.224 506.33 169.449 504.377C164.675 502.207 166.628 501.773 163.373 499.603C160.117 497.649 160.985 501.122 155.777 501.122C150.766 501.122 147.323 502.485 140.117 499.888C140.238 502.568 140.301 505.223 140.151 507.851C132.121 508.285 124.091 505.246 115.844 505.246C104.559 505.246 91.537 500.255 85.2432 513.927C84.809 514.795 84.3752 515.881 84.1583 516.966L84.5917 516.749C82.8557 522.825 83.2899 530.204 90.0175 531.723C90.4517 534.11 91.537 536.498 91.1028 539.102C84.8094 539.537 83.7241 538.668 82.4219 545.179C81.5538 549.736 80.9027 553.426 80.9027 558.2C80.9027 563.192 82.6391 566.664 84.1583 570.788C85.4605 574.477 85.0263 573.609 88.4987 574.694C92.1881 575.996 90.8863 574.694 92.6223 578.167C96.5286 585.763 95.2264 598.567 91.7543 606.163C90.0179 609.853 85.8947 614.41 81.5542 612.891C80.0347 612.24 79.1667 610.286 77.6476 609.852C75.9112 609.418 72.2218 609.852 70.4857 610.069C66.7964 610.72 64.8434 613.107 60.7195 611.154C56.5963 609.201 54.4261 604.643 51.6047 601.388C50.7367 603.558 50.3025 606.597 47.6981 606.814C47.4815 609.635 46.8301 613.324 48.5665 615.495C50.3025 617.882 52.9069 617.014 56.1625 617.231C55.9452 621.788 56.379 624.61 55.2941 628.516C54.2088 632.422 54.2088 636.329 53.9922 640.452C52.4727 640.235 51.6047 641.104 50.3025 641.104C50.9533 641.104 47.6981 651.304 47.4812 652.389C47.047 655.861 46.8301 660.853 48.1319 663.891C49.868 667.798 53.7746 665.845 53.5577 671.921C58.1151 673.44 58.3323 677.564 63.7581 676.913C66.5795 676.696 70.9199 674.308 69.6177 680.168C66.7964 679.951 64.4092 681.47 64.192 684.509C62.8897 685.377 62.8897 685.16 62.0217 686.679C61.3706 686.679 60.9364 686.679 60.5026 686.896C61.1537 690.151 61.1537 693.841 65.7111 692.972C65.9284 696.879 63.975 702.521 67.8813 704.258C70.9199 705.343 78.7325 701.654 79.8178 706.211C81.988 706.428 84.3755 706.428 86.5458 706.211C87.1969 701.002 85.6778 696.445 91.7543 695.36C95.6609 694.709 105.427 699.483 106.512 693.406C107.163 693.189 107.38 693.406 108.031 692.972C108.031 696.227 108.682 699.266 108.682 702.521C112.155 702.738 112.589 702.738 114.542 704.908C115.627 706.211 117.797 712.07 119.968 708.164C120.619 706.645 118.232 703.607 117.797 702.087C117.364 699.917 117.797 696.662 118.015 694.491C118.883 695.576 121.27 695.359 122.138 696.228C124.092 698.181 123.44 699.7 124.308 702.087C125.393 705.126 128.432 710.551 132.338 710.768C133.641 716.411 127.564 715.543 123.657 715.543C118.449 715.543 116.279 715.977 115.627 721.62C115.411 724.658 113.023 731.386 115.627 733.556C117.797 735.292 120.402 733.99 122.789 736.377C126.044 739.85 125.827 742.454 121.921 744.841C116.061 748.097 115.41 743.539 113.24 739.633C109.334 732.471 102.172 730.952 94.576 732.688C94.1422 735.292 92.1888 736.594 89.5844 735.726C89.1506 731.169 89.3678 728.347 84.5928 727.045C82.8564 726.611 80.9031 727.696 79.3843 726.611C78.299 725.743 77.6479 722.704 76.9972 721.402C73.7416 713.589 67.8824 709.683 59.418 709.9C59.418 711.636 59.418 713.372 59.418 715.109C62.8905 714.891 66.5798 717.93 69.6181 719.015C69.6181 721.402 68.3162 725.092 68.5331 727.045C69.4015 731.168 73.3078 730.083 76.1292 733.122C81.1207 738.764 81.9888 745.709 73.0909 746.794C71.7883 750.483 70.2695 755.258 70.9207 759.164C73.9589 759.381 86.3292 760.9 88.2825 759.164C89.8017 757.645 87.8484 753.087 87.6314 751.135C87.1976 748.313 87.4145 745.058 87.6314 742.454C95.4444 740.718 95.8785 749.398 102.823 750.05C108.9 750.701 114.325 751.352 120.619 751.786C120.836 754.824 120.403 758.079 121.053 760.901C121.921 765.024 122.138 764.59 126.479 764.807C125.828 765.024 126.479 767.845 126.696 768.279C129.3 767.411 128.649 765.024 128.866 762.637C135.16 762.42 141.671 762.854 148.182 762.42C148.182 761.769 148.398 761.118 148.398 760.467C152.739 760.25 156.211 760.901 159.25 757.211C161.637 754.173 162.288 752.003 167.279 750.701C167.497 748.096 167.931 745.058 165.76 743.322C169.233 743.105 179.433 741.368 179.433 746.36C180.301 746.577 182.254 746.577 183.122 746.36C183.339 744.624 183.122 742.887 183.339 741.151C184.424 740.934 186.16 740.934 187.463 741.151C187.68 747.662 183.339 749.615 183.773 756.126C184.859 756.343 186.595 756.343 187.897 756.126C187.028 750.483 196.577 750.483 199.833 752.002C203.523 753.738 202.654 755.692 202.437 760.032C202.437 764.372 202.221 768.713 202.003 773.27C198.531 773.27 194.19 773.705 198.314 777.611C200.484 778.262 201.786 776.526 203.522 776.526C206.344 776.526 207.429 778.262 210.033 778.696C210.901 782.169 208.948 785.641 209.165 789.33C209.816 789.547 210.901 789.547 211.769 789.33C211.986 784.339 218.931 785.858 222.186 785.641C229.131 785.424 233.038 783.254 232.604 791.718C232.17 795.841 231.953 800.399 231.953 804.739C231.953 806.693 231.519 809.297 231.953 811.25C232.387 813.638 234.34 815.808 234.123 818.195C238.681 818.629 253.221 816.459 255.608 819.931C256.693 821.45 256.042 828.612 255.825 830.348C255.174 833.604 255.174 835.991 254.74 839.464C250.617 839.68 251.702 845.54 251.919 848.144C245.408 848.579 241.719 847.71 241.067 855.306C240.634 859.212 245.408 867.46 242.587 870.932C239.549 874.839 236.51 869.63 234.991 867.46C232.604 864.204 227.395 859.43 223.054 862.685C218.714 866.157 226.31 869.63 229.999 869.413C230.216 870.281 230.216 871.149 229.999 872.017C221.318 872.451 216.11 872.885 217.846 883.085C218.501 887.016 218.716 890.837 218.741 894.659C218.927 894.844 219.132 895.037 219.365 895.24C221.535 896.976 224.14 898.279 226.527 899.798C232.387 903.487 236.076 904.789 241.502 900.232C243.455 898.496 246.711 896.326 248.013 894.589C249.532 892.636 252.57 890.466 253.872 888.513C256.26 884.823 257.345 876.576 263.422 877.01C263.639 871.802 263.856 866.376 263.422 861.385C262.987 861.385 262.554 861.168 262.119 861.168C261.686 858.563 262.336 855.959 262.771 853.355C273.622 847.712 284.473 845.976 298.145 845.976C303.354 845.976 305.09 845.759 308.997 848.797C311.601 850.75 312.686 854.223 316.158 855.308C320.716 856.827 330.265 855.742 329.397 849.665C330.699 849.882 332.869 849.231 334.171 849.448C335.256 834.256 342.201 850.099 344.155 846.627C345.891 843.805 346.542 839.465 349.146 837.512C349.797 837.077 356.525 835.124 356.525 835.124C356.742 831.001 355.223 825.575 359.346 822.971C357.393 822.32 353.704 821.886 353.486 819.499C353.052 815.375 365.206 816.677 368.027 817.111C375.84 818.414 374.972 821.886 375.406 828.614C376.709 828.397 378.879 827.312 380.181 826.444C381.049 815.158 391.249 825.359 390.598 832.303C393.636 833.605 397.326 833.172 400.581 832.954C399.713 820.801 407.309 823.405 416.424 822.754C417.726 818.847 413.386 818.196 414.471 814.29C422.067 810.166 418.594 799.532 428.795 800.4C429.011 796.711 428.795 792.804 429.011 789.115C431.615 788.68 433.785 788.898 434.871 791.068C435.522 791.068 436.173 791.068 436.824 791.285C437.258 793.238 437.909 794.757 437.692 796.928C442.033 798.23 443.987 794.974 444.854 791.285C446.427 791.795 447.969 792.413 449.5 793.068C448.444 789.334 444.411 786.175 444.202 782.819C451.798 783.253 442.465 770.015 442.031 768.061C440.729 762.853 441.814 754.823 442.031 749.614C442.683 749.397 444.202 749.397 445.07 749.614C445.504 760.031 452.883 767.844 454.402 778.261C455.053 781.516 456.572 782.602 457.657 785.64C458.525 787.811 457.657 790.632 458.308 792.802C458.742 794.538 461.563 798.879 464.168 796.492C466.555 794.321 462.648 792.585 462.215 791.5C460.696 787.594 462.649 782.168 461.997 778.044C460.696 769.797 458.308 761.984 457.223 753.303C456.572 747.227 457.44 741.584 455.921 735.507C454.185 729.213 452.666 724.005 452.232 717.277C452.015 711.417 449.194 707.077 448.543 701.434C445.721 700.783 442.9 701.868 442.248 704.256C440.295 698.396 445.287 699.264 449.193 699.047C449.41 694.923 449.627 693.838 451.58 690.583C453.317 687.761 455.487 687.11 456.572 683.204C458.091 677.127 457.223 669.965 457.223 663.671C457.223 660.85 457.657 657.811 457.223 654.99C456.138 648.263 451.797 641.752 450.061 634.807C447.891 626.343 445.287 617.445 444.202 608.764C443.333 600.734 443.767 590.533 446.806 582.937C447.891 580.333 449.627 578.38 450.495 575.558C453.099 566.66 454.618 554.507 462.432 547.996C469.376 542.136 468.725 533.672 473.283 526.944C475.887 523.038 478.925 516.744 484.134 515.442C487.172 514.791 490.427 515.876 493.466 515.008C496.722 514.14 498.24 511.535 501.279 510.45C501.279 509.799 501.279 509.148 501.496 508.497C508.007 504.374 517.339 505.242 525.152 505.676C524.935 509.799 527.105 513.055 527.539 517.178C527.756 520.433 525.585 528.029 531.011 526.51C530.794 523.255 530.794 519.566 534.701 518.697C535.135 521.736 533.832 524.123 534.267 527.161C540.344 527.595 539.042 516.744 539.476 512.838C541.428 515.876 540.344 521.953 545.769 520.867C545.986 521.519 545.986 522.17 545.986 522.821C546.854 523.038 547.722 522.821 548.59 522.821C548.373 521.302 549.024 519.565 548.59 518.046C549.458 520.216 551.412 520.651 553.799 519.999C549.458 518.697 550.761 511.535 553.799 508.497C559.442 503.071 565.953 501.77 568.774 493.739C569.859 490.484 569.425 487.446 571.161 484.407C572.897 481.369 576.152 479.85 578.323 477.245C581.361 473.556 581.144 472.905 581.361 467.913C581.795 459.667 584.833 458.581 592.212 457.713C597.421 457.279 603.064 455.76 608.055 454.024C608.706 449.684 600.676 449.467 597.421 450.552C592.212 452.288 592.429 455.543 585.918 454.892C587.22 448.815 601.544 449.9 606.753 449.9C611.093 449.9 615.217 449.9 619.123 450.768C623.68 451.854 626.936 455.109 631.276 455.76C631.494 456.628 631.927 457.713 631.927 458.364C632.145 455.326 631.927 452.288 632.145 449.249C636.268 449.9 634.749 455.76 634.966 459.232C641.477 460.317 649.507 456.628 655.15 454.241C662.311 451.203 665.35 446.428 671.643 443.39C677.72 440.568 684.882 439.7 690.524 436.011C693.345 434.275 694.648 433.623 695.95 430.585C697.469 427.329 695.516 423.423 698.771 420.602C698.555 423.64 698.555 426.678 698.771 429.717C699.639 429.934 700.508 429.934 701.376 429.717C703.329 429.066 701.159 416.478 701.376 414.742C702.027 411.053 703.546 405.193 704.848 401.504C706.367 397.163 709.622 395.21 708.755 390.001C708.321 386.963 703.98 382.189 700.941 381.537C700.508 382.84 700.725 385.01 700.941 386.312C701.593 386.312 702.244 386.529 702.895 386.529C703.112 391.521 703.763 397.814 701.376 402.155C690.741 405.193 699.857 376.546 702.244 373.29C705.5 368.733 711.576 367.431 716.134 364.609C722.21 360.703 726.55 355.711 732.627 351.805C737.402 348.767 741.092 347.03 744.13 342.256C748.688 334.877 753.245 333.575 761.275 329.668C768.003 326.413 775.165 322.723 782.544 320.77C787.318 319.468 792.31 318.166 796.433 315.778C800.34 313.391 800.991 309.268 804.029 306.229C806.417 303.625 810.974 302.757 812.71 299.718C814.447 296.68 814.229 291.906 816.183 288.433C820.306 281.705 826.817 276.497 832.242 270.854C840.923 262.173 852.209 258.05 862.626 250.671C865.447 248.718 867.184 246.547 869.788 244.594C872.393 242.641 874.997 241.773 878.035 240.254C883.244 237.649 889.755 235.913 894.095 232.007C897.351 228.969 898.87 223.543 903.862 222.241C909.287 220.722 906.466 211.823 907.768 208.785C909.287 205.53 913.194 205.096 916.015 203.359C920.573 200.755 926.433 194.027 930.773 193.376C931.207 191.206 932.943 189.47 935.114 189.036C937.5 184.478 939.671 179.487 943.143 175.363C945.096 172.976 947.918 171.24 949.654 168.635C951.39 166.031 951.824 163.21 953.344 160.823C955.514 157.133 959.854 153.01 963.326 150.188C967.45 146.933 971.573 143.461 974.829 139.12C976.21 136.972 976.403 134.609 976.855 132.334C970.795 130.16 975.038 126.699 973.962 120.89C968.102 120.673 966.149 121.541 961.808 124.579C961.158 127.401 963.328 128.92 965.932 128.92C967.451 135.214 961.808 133.477 958.553 133.477C953.779 133.477 952.042 133.477 947.919 137.601C945.966 139.554 945.966 140.856 943.579 141.941C942.06 142.592 939.021 140.856 937.936 142.592C937.719 143.026 942.71 150.839 943.579 151.924C934.681 152.575 936.634 161.473 928.604 162.342C928.821 163.427 928.17 165.38 928.387 166.465C922.744 166.899 913.412 168.201 908.204 166.465C904.948 165.163 903.212 162.559 899.523 161.474C896.267 160.388 892.795 160.606 889.323 160.606C886.935 160.606 882.161 161.474 879.99 160.606C876.084 158.87 877.603 155.397 876.518 151.925C874.565 146.499 869.791 142.593 867.62 136.95C865.45 136.299 863.931 137.384 863.28 139.554C856.985 141.074 851.56 128.052 851.777 123.061C850.909 122.192 849.39 121.541 848.305 121.541C848.088 125.665 848.956 140.857 840.926 134.346C839.841 135.865 838.756 138.035 838.104 139.554C836.585 136.516 836.151 133.044 833.547 131.09C831.81 135.214 830.291 143.027 830.508 147.584C824.866 144.546 824.648 136.733 816.836 141.074C806.418 147.15 821.176 147.584 822.044 152.576C822.912 152.576 823.78 152.793 824.648 152.793C823.129 152.793 816.402 163.21 813.58 164.512C809.673 166.466 802.729 167.985 798.605 168.636C795.784 169.07 793.396 167.117 790.141 167.985C789.49 167.985 790.358 177.751 789.273 178.836C787.971 180.355 783.413 179.487 781.677 181.657C780.158 183.393 779.073 187.734 779.94 189.904C781.243 193.376 785.8 192.943 786.668 197.283C789.489 197.066 790.141 199.67 789.273 202.275C783.63 201.19 782.762 205.964 782.979 210.305C785.583 210.739 785.149 210.739 785.583 213.126C778.421 212.475 776.468 222.024 769.957 219.637C766.485 218.552 765.4 213.777 763.012 211.824C759.974 209.437 758.021 209.437 753.897 209.653C753.681 212.475 753.897 215.296 753.681 218.117C745.867 217.466 745.651 222.675 741.31 226.798C737.187 230.705 731.978 234.828 730.025 226.364C732.412 224.845 739.14 220.07 733.715 218.117C733.064 216.164 733.497 213.343 732.412 211.607C731.761 210.305 730.025 211.824 729.157 210.522C728.289 209.437 728.289 207.917 727.638 206.832C725.685 202.926 722.429 199.671 718.089 198.586C713.965 205.313 712.012 208.135 704.199 210.088C703.765 214.863 706.369 219.42 706.153 224.195C706.804 224.412 707.455 224.412 708.106 224.412C708.974 228.535 705.068 227.667 703.331 230.271C701.595 232.876 702.247 236.999 702.463 240.037C704.199 240.037 705.284 240.905 707.238 240.905C707.672 241.99 707.672 244.378 707.238 245.68C703.114 245.68 704.633 250.672 704.417 253.71C699.208 254.578 699.859 252.191 697.255 256.097C695.085 259.57 697.038 264.561 691.395 264.127C686.621 263.91 686.838 257.833 684.885 256.097C682.714 254.361 677.723 254.144 674.685 253.927C664.918 253.276 665.569 263.259 656.671 264.778C654.284 265.212 652.113 265.212 650.377 265.212L642.781 274.11L631.93 273.893L631.496 274.327L630.411 274.762H628.892L627.807 275.196L627.156 276.281L625.419 276.715L624.117 276.498L623.466 276.064L623.249 274.762L621.947 274.328L620.644 274.545L619.56 275.63L618.908 276.932L618.257 278.668L617.172 279.97L615.871 281.055L613.7 281.49H604.803L603.935 281.924L602.199 282.358L600.896 282.792H596.556L593.952 282.575H591.999L590.045 282.792L588.96 284.094L586.139 284.962H584.402L583.968 285.179H574.202L571.381 284.962L569.644 285.179L567.474 283.877L564.87 281.924L563.351 281.707H560.747L556.623 282.141L554.67 283.009L553.584 283.443L553.524 283.474C553.875 285.432 554.743 286.824 556.84 287.138Z" fill="#C0EFCD"/>
<path d="M512 400.885C568.275 400.885 620.047 408.88 661.077 422.279C624.767 401.994 571.442 389.184 512 389.184C452.558 389.184 399.234 401.994 362.923 422.279C403.953 408.879 455.725 400.885 512 400.885Z" fill="#CDA349"/>
<path d="M512 264.335C541.397 264.335 565.439 276.27 567.339 291.361C567.425 290.702 567.474 290.038 567.474 289.367C567.474 273.378 542.638 260.417 512 260.417C501.243 260.417 491.204 262.017 482.701 264.783C491.731 261.455 502.744 259.497 514.64 259.497C528.938 259.497 541.97 262.321 551.807 266.958C548.679 248.125 529.424 232.948 513.147 232.258C513.544 232.241 513.94 232.231 514.333 232.231C516.675 232.231 519.089 232.552 521.516 233.14C521.112 231.577 519.704 230.416 518.013 230.416H517.796V217.936L514.39 217.402H518.052C518.828 217.402 519.455 216.774 519.455 215.998C519.455 215.445 519.135 214.968 518.67 214.74C518.079 212.048 515.562 209.851 513.144 209.296C513.212 209.121 513.251 208.931 513.251 208.732C513.251 208.194 512.978 207.719 512.563 207.438C512.495 205.495 512.13 197.544 511.689 197.544C511.249 197.544 510.884 205.495 510.816 207.438C510.401 207.719 510.128 208.194 510.128 208.732C510.128 208.991 510.192 209.235 510.304 209.45C508.067 210.188 505.877 212.253 505.331 214.74C504.866 214.968 504.545 215.445 504.545 215.998C504.545 216.774 505.173 217.402 505.948 217.402H506.205V230.415H505.987C504.059 230.415 502.486 231.919 502.368 233.818C487.767 238.451 473.373 252.699 471.872 269.378C462.365 274.575 456.525 281.615 456.525 289.368C456.525 290.038 456.574 290.702 456.661 291.361C458.56 276.271 482.602 264.336 511.999 264.336L512 264.335ZM514.639 219.418C514.639 218.988 514.988 218.641 515.417 218.641C515.846 218.641 516.194 218.989 516.194 219.418V229.829H514.639V219.418ZM511.222 217.983C511.222 217.751 511.326 217.545 511.487 217.402H512.513C512.674 217.545 512.778 217.751 512.778 217.983V229.829H511.222L511.222 217.983ZM507.805 219.418C507.805 218.988 508.154 218.641 508.583 218.641C509.012 218.641 509.361 218.989 509.361 219.418V229.829H507.805L507.805 219.418ZM512 321.269C470.888 321.269 437.56 338.661 437.56 360.117C437.56 362.901 438.13 365.614 439.197 368.232L440.36 359.518V366.228C440.368 366.213 440.377 366.198 440.385 366.182C440.369 366.8 440.36 367.428 440.36 368.067V395.719C442.719 395.271 445.101 394.845 447.502 394.441V365.118C447.502 362.638 449.513 360.628 451.993 360.628C454.472 360.628 456.483 362.638 456.483 365.118V393.045C458.477 392.761 460.485 392.492 462.504 392.238V356.131C462.504 353.651 464.515 351.641 466.995 351.641C469.474 351.641 471.485 353.651 471.485 356.131V391.215C473.481 391.012 475.489 390.825 477.506 390.652V352.086C477.506 349.606 479.517 347.596 481.997 347.596C484.476 347.596 486.487 349.606 486.487 352.086V389.984C488.485 389.858 490.492 389.746 492.508 389.65V349.335C492.508 346.855 494.519 344.845 496.998 344.845C499.478 344.845 501.489 346.855 501.489 349.335V389.321C503.488 389.27 505.496 389.234 507.51 389.212V348.032C507.51 345.552 509.521 343.542 512 343.542C514.48 343.542 516.491 345.552 516.491 348.032V389.212C518.505 389.234 520.513 389.27 522.512 389.321V349.335C522.512 346.855 524.523 344.845 527.002 344.845C529.482 344.845 531.493 346.855 531.493 349.335V389.65C533.509 389.746 535.516 389.858 537.514 389.984V352.086C537.514 349.606 539.525 347.596 542.004 347.596C544.484 347.596 546.495 349.606 546.495 352.086V390.652C548.512 390.825 550.52 391.012 552.516 391.215V356.131C552.516 353.651 554.527 351.641 557.006 351.641C559.486 351.641 561.497 353.651 561.497 356.131V392.238C563.516 392.492 565.524 392.761 567.518 393.045V365.118C567.518 362.638 569.529 360.628 572.008 360.628C574.488 360.628 576.499 362.638 576.499 365.118V394.441C578.9 394.845 581.282 395.271 583.64 395.719V368.067C583.64 367.427 583.632 366.799 583.615 366.182C583.623 366.198 583.632 366.213 583.64 366.228V359.518L584.804 368.232C585.87 365.614 586.44 362.901 586.44 360.117C586.44 338.661 553.113 321.269 512 321.269ZM562.509 319.918V301.122C562.509 300.671 562.502 300.228 562.491 299.792C562.497 299.803 562.503 299.814 562.509 299.825V295.094L563.329 301.238C564.081 299.392 564.482 297.479 564.482 295.516C564.482 280.389 540.985 268.127 512 268.127C483.014 268.127 459.517 280.39 459.517 295.516C459.517 297.479 459.919 299.392 460.671 301.238L461.491 295.094V299.825C461.497 299.814 461.503 299.803 461.509 299.792C461.497 300.228 461.491 300.67 461.491 301.122V319.918C444.273 327.45 433.316 338.753 433.316 351.396C433.316 352.346 433.386 353.289 433.508 354.223C434.96 342.694 445.534 332.468 461.49 325.482C463.117 324.77 464.79 324.085 466.526 323.443C468.566 322.687 470.68 321.983 472.857 321.329C474.243 320.913 475.665 320.526 477.103 320.153C479.164 319.619 481.275 319.13 483.434 318.691C484.83 318.407 486.247 318.145 487.68 317.902C489.755 317.55 491.864 317.24 494.012 316.978C495.413 316.807 496.829 316.657 498.257 316.526C500.342 316.334 502.45 316.178 504.589 316.074C505.993 316.005 507.41 315.96 508.834 315.931C509.886 315.909 510.939 315.89 512 315.89C513.061 315.89 514.114 315.909 515.165 315.931C516.59 315.96 518.007 316.005 519.411 316.074C521.55 316.178 523.658 316.335 525.743 316.526C527.171 316.657 528.587 316.807 529.989 316.978C532.135 317.24 534.245 317.55 536.32 317.902C537.753 318.145 539.17 318.406 540.566 318.691C542.725 319.13 544.835 319.619 546.897 320.153C548.335 320.526 549.756 320.913 551.143 321.329C553.32 321.983 555.435 322.687 557.474 323.443C559.21 324.086 560.883 324.77 562.51 325.482C578.466 332.468 589.04 342.694 590.492 354.223C590.614 353.289 590.684 352.347 590.684 351.396C590.684 338.753 579.727 327.45 562.509 319.918ZM472.858 315.781C470.679 316.434 468.567 317.14 466.527 317.896V299.042C466.527 297.294 467.944 295.877 469.692 295.877C471.44 295.877 472.858 297.295 472.858 299.042L472.858 315.781ZM483.435 313.136C481.278 313.575 479.164 314.059 477.104 314.592V292.706C477.104 290.958 478.521 289.54 480.269 289.54C482.018 289.54 483.435 290.958 483.435 292.706L483.435 313.136ZM494.012 311.424C491.867 311.686 489.754 311.991 487.681 312.342V289.854C487.681 288.106 489.098 286.689 490.846 286.689C492.594 286.689 494.012 288.106 494.012 289.854L494.012 311.424ZM504.589 310.521C502.451 310.625 500.342 310.779 498.258 310.971V287.915C498.258 286.166 499.675 284.749 501.423 284.749C503.171 284.749 504.589 286.166 504.589 287.915V310.521H504.589ZM515.166 310.375C514.114 310.354 513.062 310.334 512 310.334C510.939 310.334 509.886 310.354 508.835 310.375V286.996C508.835 285.247 510.252 283.83 512 283.83C513.749 283.83 515.166 285.247 515.166 286.996V310.375ZM525.743 310.971C523.658 310.779 521.549 310.625 519.411 310.521V287.915C519.411 286.166 520.828 284.749 522.577 284.749C524.325 284.749 525.742 286.166 525.742 287.915L525.743 310.971ZM536.32 312.342C534.246 311.991 532.134 311.686 529.989 311.424V289.854C529.989 288.106 531.406 286.689 533.154 286.689C534.902 286.689 536.319 288.106 536.319 289.854L536.32 312.342ZM546.897 314.592C544.836 314.059 542.723 313.575 540.565 313.136V292.706C540.565 290.958 541.982 289.54 543.731 289.54C545.479 289.54 546.896 290.958 546.896 292.706V314.592H546.897ZM557.474 317.896C555.433 317.14 553.321 316.434 551.142 315.781V299.042C551.142 297.294 552.56 295.877 554.308 295.877C556.056 295.877 557.473 297.294 557.473 299.042L557.474 317.896Z" fill="#036D33"/>
<path d="M512.213 149.042L516.998 163.771H532.485L519.956 172.874L524.742 187.603L512.213 178.5L499.683 187.603L504.469 172.874L491.939 163.771H507.427L512.213 149.042Z" fill="#CDA349"/>
<path d="M437.771 180.347L440.831 189.764H450.733L442.722 195.583L445.782 205L437.771 199.181L429.761 205L432.821 195.583L424.81 189.764H434.712L437.771 180.347Z" fill="#CDA349"/>
<path d="M389.77 228.042L391.586 233.635H397.467L392.709 237.092L394.527 242.684L389.77 239.228L385.012 242.684L386.829 237.092L382.072 233.635H387.952L389.77 228.042Z" fill="#CDA349"/>
<path d="M586.228 180.347L583.168 189.764H573.267L581.277 195.583L578.217 205.001L586.228 199.181L594.239 205.001L591.179 195.583L599.19 189.764H589.288L586.228 180.347Z" fill="#CDA349"/>
<path d="M634.228 228.042L632.411 233.635H626.53L631.288 237.091L629.471 242.684L634.228 239.227L638.985 242.684L637.168 237.091L641.925 233.635H636.045L634.228 228.042Z" fill="#CDA349"/>
<path d="M141.152 630.881C141.152 621.142 141.152 611.287 141.152 601.316C141.152 591.345 141.152 581.491 141.152 571.751C144.63 571.751 148.138 571.751 151.674 571.751C155.21 571.751 158.717 571.751 162.195 571.751C166.485 571.751 170.427 572.505 174.021 574.012C177.616 575.462 180.746 577.52 183.413 580.186C186.079 582.853 188.137 585.983 189.586 589.577C191.094 593.114 191.847 596.998 191.847 601.229C191.847 605.461 191.094 609.374 189.586 612.968C188.137 616.563 186.079 619.722 183.413 622.447C180.746 625.113 177.616 627.2 174.021 628.707C170.427 630.157 166.485 630.881 162.195 630.881C158.717 630.881 155.21 630.881 151.674 630.881C148.138 630.881 144.63 630.881 141.152 630.881ZM162.195 585.49C161.268 585.49 160.311 585.49 159.326 585.49C158.34 585.49 157.355 585.49 156.369 585.49C156.369 590.708 156.369 595.983 156.369 601.316C156.369 606.65 156.369 611.925 156.369 617.142C157.355 617.142 158.34 617.142 159.326 617.142C160.311 617.142 161.268 617.142 162.195 617.142C165.094 617.142 167.616 616.447 169.761 615.055C171.905 613.664 173.558 611.78 174.717 609.403C175.876 606.969 176.456 604.244 176.456 601.229C176.456 598.215 175.876 595.519 174.717 593.143C173.558 590.766 171.905 588.911 169.761 587.577C167.616 586.186 165.094 585.49 162.195 585.49ZM222.604 580.795C220.923 580.795 219.387 580.389 217.996 579.577C216.662 578.766 215.59 577.693 214.778 576.36C213.967 575.027 213.561 573.549 213.561 571.925C213.561 570.302 213.967 568.853 214.778 567.578C215.59 566.244 216.662 565.172 217.996 564.36C219.387 563.549 220.923 563.143 222.604 563.143C224.228 563.143 225.706 563.549 227.039 564.36C228.431 565.172 229.532 566.244 230.344 567.578C231.155 568.853 231.561 570.302 231.561 571.925C231.561 573.549 231.155 575.027 230.344 576.36C229.532 577.693 228.431 578.766 227.039 579.577C225.706 580.389 224.228 580.795 222.604 580.795ZM215.387 630.881C215.387 623.461 215.387 615.983 215.387 608.447C215.387 600.853 215.387 593.345 215.387 585.925C217.764 585.925 220.17 585.925 222.604 585.925C225.039 585.925 227.416 585.925 229.735 585.925C229.735 593.345 229.735 600.853 229.735 608.447C229.735 615.983 229.735 623.461 229.735 630.881C227.416 630.881 225.039 630.881 222.604 630.881C220.17 630.881 217.764 630.881 215.387 630.881ZM297.661 623.577C297.661 628.505 296.588 632.62 294.443 635.925C292.357 639.229 289.487 641.693 285.835 643.316C282.183 644.997 278.009 645.867 273.313 645.925C268.676 645.983 263.777 645.287 258.618 643.838C258.618 641.577 258.618 639.287 258.618 636.968C258.618 634.707 258.618 632.447 258.618 630.186C263.197 631.983 267.342 632.881 271.052 632.881C274.762 632.939 277.69 632.244 279.835 630.794C282.038 629.287 283.139 627.229 283.139 624.621C283.139 624.331 283.139 624.07 283.139 623.838C283.139 623.548 283.139 623.287 283.139 623.055C281.69 624.157 280.009 625.026 278.096 625.664C276.183 626.302 274.125 626.621 271.922 626.621C268.27 626.621 264.994 625.78 262.096 624.099C259.255 622.36 257.024 619.983 255.4 616.968C253.777 613.896 252.966 610.331 252.966 606.273C252.966 603.142 253.487 600.273 254.531 597.664C255.574 595.056 257.024 592.795 258.879 590.882C260.734 588.969 262.85 587.519 265.226 586.534C267.603 585.49 270.096 584.969 272.705 584.969C274.791 584.969 276.733 585.259 278.531 585.838C280.328 586.418 281.922 587.201 283.313 588.186C283.313 587.78 283.313 587.403 283.313 587.056C283.313 586.708 283.313 586.331 283.313 585.925C285.69 585.925 288.096 585.925 290.53 585.925C292.965 585.925 295.342 585.925 297.661 585.925C297.661 592.128 297.661 598.418 297.661 604.795C297.661 611.113 297.661 617.374 297.661 623.577ZM275.487 614.186C277.922 614.186 279.864 613.432 281.313 611.925C282.82 610.36 283.574 608.36 283.574 605.925C283.574 603.432 282.82 601.403 281.313 599.838C279.864 598.273 277.922 597.49 275.487 597.49C272.936 597.49 270.907 598.273 269.4 599.838C267.893 601.345 267.139 603.374 267.139 605.925C267.139 608.418 267.893 610.418 269.4 611.925C270.907 613.432 272.936 614.186 275.487 614.186ZM330.504 580.795C328.823 580.795 327.287 580.389 325.896 579.577C324.562 578.766 323.49 577.693 322.678 576.36C321.867 575.027 321.461 573.549 321.461 571.925C321.461 570.302 321.867 568.853 322.678 567.578C323.49 566.244 324.562 565.172 325.896 564.36C327.287 563.549 328.823 563.143 330.504 563.143C332.127 563.143 333.606 563.549 334.939 564.36C336.33 565.172 337.432 566.244 338.243 567.578C339.055 568.853 339.461 570.302 339.461 571.925C339.461 573.549 339.055 575.027 338.243 576.36C337.432 577.693 336.33 578.766 334.939 579.577C333.606 580.389 332.127 580.795 330.504 580.795ZM323.287 630.881C323.287 623.461 323.287 615.983 323.287 608.447C323.287 600.853 323.287 593.345 323.287 585.925C325.664 585.925 328.07 585.925 330.504 585.925C332.939 585.925 335.316 585.925 337.635 585.925C337.635 593.345 337.635 600.853 337.635 608.447C337.635 615.983 337.635 623.461 337.635 630.881C335.316 630.881 332.939 630.881 330.504 630.881C328.07 630.881 325.664 630.881 323.287 630.881ZM367.996 630.881C367.996 625.548 367.996 620.186 367.996 614.795C367.996 609.403 367.996 604.07 367.996 598.795C366.836 598.795 365.648 598.795 364.431 598.795C363.271 598.795 362.112 598.795 360.952 598.795C360.952 596.65 360.952 594.505 360.952 592.36C360.952 590.215 360.952 588.07 360.952 585.925C362.112 585.925 363.271 585.925 364.431 585.925C365.648 585.925 366.836 585.925 367.996 585.925C367.996 583.896 367.996 581.896 367.996 579.925C367.996 577.896 367.996 575.896 367.996 573.925C370.373 573.925 372.778 573.925 375.213 573.925C377.648 573.925 380.025 573.925 382.343 573.925C382.343 575.896 382.343 577.896 382.343 579.925C382.343 581.896 382.343 583.896 382.343 585.925C383.677 585.925 385.039 585.925 386.43 585.925C387.822 585.925 389.184 585.925 390.517 585.925C390.517 588.07 390.517 590.215 390.517 592.36C390.517 594.505 390.517 596.65 390.517 598.795C389.184 598.795 387.822 598.795 386.43 598.795C385.039 598.795 383.677 598.795 382.343 598.795C382.343 604.07 382.343 609.403 382.343 614.795C382.343 620.186 382.343 625.548 382.343 630.881C380.025 630.881 377.648 630.881 375.213 630.881C372.778 630.881 370.373 630.881 367.996 630.881ZM442.664 630.881C442.664 630.418 442.664 629.983 442.664 629.577C442.664 629.113 442.664 628.678 442.664 628.273C441.215 629.49 439.563 630.418 437.708 631.055C435.911 631.751 433.969 632.099 431.882 632.099C428.925 632.099 426.143 631.548 423.534 630.447C420.925 629.287 418.606 627.664 416.577 625.577C414.607 623.432 413.041 620.91 411.882 618.012C410.78 615.113 410.23 611.896 410.23 608.36C410.23 604.766 410.78 601.519 411.882 598.621C413.041 595.722 414.607 593.259 416.577 591.23C418.606 589.143 420.925 587.548 423.534 586.447C426.143 585.288 428.896 584.708 431.795 584.708C433.882 584.708 435.853 585.056 437.708 585.751C439.563 586.389 441.215 587.288 442.664 588.447C442.664 587.983 442.664 587.548 442.664 587.143C442.664 586.737 442.664 586.331 442.664 585.925C445.041 585.925 447.447 585.925 449.882 585.925C452.316 585.925 454.693 585.925 457.012 585.925C457.012 593.345 457.012 600.853 457.012 608.447C457.012 615.983 457.012 623.461 457.012 630.881C454.693 630.881 452.316 630.881 449.882 630.881C447.447 630.881 445.041 630.881 442.664 630.881ZM433.795 619.403C436.577 619.403 438.809 618.389 440.49 616.36C442.171 614.331 443.012 611.664 443.012 608.36C443.012 605.056 442.171 602.418 440.49 600.447C438.809 598.418 436.577 597.403 433.795 597.403C430.954 597.403 428.693 598.389 427.012 600.36C425.389 602.331 424.577 604.998 424.577 608.36C424.577 611.722 425.389 614.418 427.012 616.447C428.693 618.418 430.954 619.403 433.795 619.403ZM482.674 630.881C482.674 620.389 482.674 609.809 482.674 599.143C482.674 588.476 482.674 577.896 482.674 567.404C485.051 567.404 487.457 567.404 489.891 567.404C492.326 567.404 494.703 567.404 497.022 567.404C497.022 577.896 497.022 588.476 497.022 599.143C497.022 609.809 497.022 620.389 497.022 630.881C494.703 630.881 492.326 630.881 489.891 630.881C487.457 630.881 485.051 630.881 482.674 630.881ZM557.466 630.881C557.466 621.142 557.466 611.287 557.466 601.316C557.466 591.345 557.466 581.491 557.466 571.751C561.06 571.751 564.654 571.751 568.249 571.751C571.901 571.751 575.495 571.751 579.031 571.751C583.495 571.751 587.379 572.621 590.683 574.36C593.987 576.041 596.567 578.418 598.422 581.491C600.277 584.563 601.205 588.157 601.205 592.273C601.205 596.331 600.277 599.896 598.422 602.969C596.625 606.041 594.132 608.418 590.944 610.099C587.814 611.78 584.248 612.621 580.248 612.621C578.973 612.621 577.698 612.621 576.422 612.621C575.205 612.621 573.959 612.621 572.683 612.621C572.683 615.635 572.683 618.679 572.683 621.751C572.683 624.823 572.683 627.867 572.683 630.881C570.191 630.881 567.669 630.881 565.118 630.881C562.567 630.881 560.017 630.881 557.466 630.881ZM579.031 585.404C577.988 585.404 576.915 585.404 575.814 585.404C574.77 585.404 573.727 585.404 572.683 585.404C572.683 587.722 572.683 590.07 572.683 592.447C572.683 594.766 572.683 597.085 572.683 599.403C573.843 599.403 575.031 599.403 576.249 599.403C577.524 599.403 578.741 599.403 579.901 599.403C581.698 599.403 583.147 598.737 584.248 597.403C585.408 596.07 585.988 594.418 585.988 592.447C585.988 590.418 585.379 588.737 584.161 587.403C582.944 586.07 581.234 585.404 579.031 585.404ZM652.52 630.881C652.52 630.418 652.52 629.983 652.52 629.577C652.52 629.113 652.52 628.678 652.52 628.273C651.07 629.49 649.418 630.418 647.563 631.055C645.766 631.751 643.824 632.099 641.737 632.099C638.781 632.099 635.998 631.548 633.389 630.447C630.781 629.287 628.462 627.664 626.433 625.577C624.462 623.432 622.897 620.91 621.737 618.012C620.636 615.113 620.085 611.896 620.085 608.36C620.085 604.766 620.636 601.519 621.737 598.621C622.897 595.722 624.462 593.259 626.433 591.23C628.462 589.143 630.781 587.548 633.389 586.447C635.998 585.288 638.752 584.708 641.65 584.708C643.737 584.708 645.708 585.056 647.563 585.751C649.418 586.389 651.07 587.288 652.52 588.447C652.52 587.983 652.52 587.548 652.52 587.143C652.52 586.737 652.52 586.331 652.52 585.925C654.896 585.925 657.302 585.925 659.737 585.925C662.172 585.925 664.548 585.925 666.867 585.925C666.867 593.345 666.867 600.853 666.867 608.447C666.867 615.983 666.867 623.461 666.867 630.881C664.548 630.881 662.172 630.881 659.737 630.881C657.302 630.881 654.896 630.881 652.52 630.881ZM643.65 619.403C646.433 619.403 648.665 618.389 650.346 616.36C652.027 614.331 652.867 611.664 652.867 608.36C652.867 605.056 652.027 602.418 650.346 600.447C648.665 598.418 646.433 597.403 643.65 597.403C640.81 597.403 638.549 598.389 636.868 600.36C635.244 602.331 634.433 604.998 634.433 608.36C634.433 611.722 635.244 614.418 636.868 616.447C638.549 618.418 640.81 619.403 643.65 619.403ZM726.442 616.968C726.442 620.563 725.428 623.519 723.399 625.838C721.428 628.099 718.761 629.751 715.399 630.794C712.036 631.838 708.268 632.273 704.094 632.099C699.979 631.983 695.776 631.316 691.486 630.099C691.486 627.896 691.486 625.635 691.486 623.316C691.486 620.997 691.486 618.737 691.486 616.534C693.921 617.635 696.355 618.505 698.79 619.142C701.225 619.722 703.428 620.07 705.399 620.186C707.37 620.302 708.964 620.157 710.181 619.751C711.399 619.287 712.007 618.534 712.007 617.49C712.007 616.679 711.486 616.041 710.442 615.577C709.457 615.113 708.152 614.708 706.529 614.36C704.906 613.954 703.167 613.49 701.312 612.968C699.515 612.389 697.805 611.606 696.181 610.621C694.558 609.577 693.225 608.215 692.182 606.534C691.196 604.795 690.703 602.563 690.703 599.838C690.703 596.592 691.631 593.838 693.486 591.577C695.399 589.259 697.95 587.519 701.138 586.36C704.326 585.143 707.892 584.534 711.834 584.534C715.776 584.534 719.804 585.201 723.92 586.534C723.92 588.737 723.92 590.998 723.92 593.316C723.92 595.635 723.92 597.896 723.92 600.099C720.674 598.534 717.631 597.49 714.79 596.969C711.949 596.447 709.66 596.389 707.921 596.795C706.181 597.143 705.312 597.925 705.312 599.143C705.312 599.954 705.805 600.592 706.79 601.056C707.834 601.461 709.138 601.838 710.703 602.186C712.326 602.534 714.036 602.998 715.833 603.577C717.689 604.157 719.399 604.969 720.964 606.012C722.587 606.998 723.891 608.389 724.877 610.186C725.92 611.925 726.442 614.186 726.442 616.968ZM782.94 616.968C782.94 620.563 781.925 623.519 779.896 625.838C777.925 628.099 775.258 629.751 771.896 630.794C768.534 631.838 764.766 632.273 760.592 632.099C756.476 631.983 752.273 631.316 747.983 630.099C747.983 627.896 747.983 625.635 747.983 623.316C747.983 620.997 747.983 618.737 747.983 616.534C750.418 617.635 752.853 618.505 755.288 619.142C757.722 619.722 759.925 620.07 761.896 620.186C763.867 620.302 765.461 620.157 766.679 619.751C767.896 619.287 768.505 618.534 768.505 617.49C768.505 616.679 767.983 616.041 766.94 615.577C765.954 615.113 764.65 614.708 763.027 614.36C761.403 613.954 759.664 613.49 757.809 612.968C756.012 612.389 754.302 611.606 752.679 610.621C751.056 609.577 749.722 608.215 748.679 606.534C747.693 604.795 747.201 602.563 747.201 599.838C747.201 596.592 748.128 593.838 749.983 591.577C751.896 589.259 754.447 587.519 757.635 586.36C760.824 585.143 764.389 584.534 768.331 584.534C772.273 584.534 776.302 585.201 780.418 586.534C780.418 588.737 780.418 590.998 780.418 593.316C780.418 595.635 780.418 597.896 780.418 600.099C777.171 598.534 774.128 597.49 771.287 596.969C768.447 596.447 766.157 596.389 764.418 596.795C762.679 597.143 761.809 597.925 761.809 599.143C761.809 599.954 762.302 600.592 763.288 601.056C764.331 601.461 765.635 601.838 767.201 602.186C768.824 602.534 770.534 602.998 772.331 603.577C774.186 604.157 775.896 604.969 777.461 606.012C779.084 606.998 780.389 608.389 781.374 610.186C782.418 611.925 782.94 614.186 782.94 616.968Z" fill="#036D33"/>
<path d="M135.5 533.279C139.39 520.712 143.279 507.996 147.169 495.131C151.133 482.265 155.06 469.549 158.95 456.982C163.363 456.982 167.814 456.982 172.302 456.982C176.865 456.982 181.353 456.982 185.766 456.982C189.656 469.549 193.545 482.265 197.435 495.131C201.399 507.996 205.326 520.712 209.216 533.279C206 533.279 202.708 533.279 199.342 533.279C196.051 533.279 192.76 533.279 189.469 533.279C188.721 530.885 188.01 528.492 187.337 526.098C186.664 523.63 185.953 521.199 185.205 518.805C180.941 518.805 176.64 518.805 172.302 518.805C168.038 518.805 163.775 518.805 159.511 518.805C158.763 521.199 158.052 523.63 157.379 526.098C156.706 528.492 155.995 530.885 155.247 533.279C152.031 533.279 148.74 533.279 145.374 533.279C142.082 533.279 138.791 533.279 135.5 533.279ZM164.448 502.087C167.066 502.087 169.684 502.087 172.302 502.087C174.995 502.087 177.65 502.087 180.268 502.087C178.997 497.674 177.688 493.223 176.341 488.735C174.995 484.247 173.686 479.796 172.414 475.383C171.142 479.796 169.796 484.247 168.375 488.735C167.028 493.223 165.719 497.674 164.448 502.087ZM216.534 533.279C216.534 520.712 216.534 507.996 216.534 495.131C216.534 482.265 216.534 469.549 216.534 456.982C221.172 456.982 225.81 456.982 230.447 456.982C235.16 456.982 239.797 456.982 244.36 456.982C250.12 456.982 255.132 458.104 259.395 460.348C263.659 462.517 266.987 465.584 269.381 469.549C271.775 473.513 272.972 478.151 272.972 483.462C272.972 488.698 271.775 493.298 269.381 497.262C267.062 501.227 263.846 504.294 259.732 506.463C255.693 508.632 251.092 509.717 245.931 509.717C244.286 509.717 242.64 509.717 240.994 509.717C239.423 509.717 237.815 509.717 236.17 509.717C236.17 513.606 236.17 517.533 236.17 521.498C236.17 525.462 236.17 529.389 236.17 533.279C232.953 533.279 229.699 533.279 226.408 533.279C223.117 533.279 219.826 533.279 216.534 533.279ZM244.36 474.598C243.014 474.598 241.63 474.598 240.209 474.598C238.862 474.598 237.516 474.598 236.17 474.598C236.17 477.59 236.17 480.619 236.17 483.686C236.17 486.678 236.17 489.67 236.17 492.662C237.666 492.662 239.199 492.662 240.77 492.662C242.415 492.662 243.986 492.662 245.482 492.662C247.801 492.662 249.671 491.802 251.092 490.081C252.588 488.361 253.336 486.229 253.336 483.686C253.336 481.068 252.551 478.899 250.98 477.178C249.409 475.458 247.203 474.598 244.36 474.598ZM306.602 533.279C306.602 520.712 306.602 507.996 306.602 495.131C306.602 482.265 306.602 469.549 306.602 456.982C309.893 456.982 313.184 456.982 316.476 456.982C319.767 456.982 323.021 456.982 326.237 456.982C326.237 466.631 326.237 476.393 326.237 486.267C326.237 496.066 326.237 505.79 326.237 515.439C330.202 515.439 334.203 515.439 338.243 515.439C342.282 515.439 346.246 515.439 350.136 515.439C350.136 518.356 350.136 521.348 350.136 524.415C350.136 527.407 350.136 530.362 350.136 533.279C342.955 533.279 335.699 533.279 328.369 533.279C321.039 533.279 313.783 533.279 306.602 533.279ZM408.551 530.586C403.39 532.755 398.266 534.102 393.18 534.625C388.093 535.149 383.269 534.85 378.706 533.728C374.218 532.68 370.216 530.848 366.7 528.23C363.185 525.612 360.417 522.283 358.398 518.244C356.453 514.205 355.48 509.53 355.48 504.219C355.48 499.806 356.191 495.766 357.612 492.101C359.108 488.361 361.203 485.107 363.895 482.34C366.588 479.497 369.767 477.328 373.433 475.832C377.098 474.261 381.1 473.476 385.438 473.476C389.328 473.476 392.843 474.112 395.985 475.383C399.127 476.655 401.857 478.45 404.176 480.769C406.494 483.013 408.364 485.706 409.786 488.847C411.207 491.989 412.104 495.43 412.478 499.17C412.852 502.91 412.628 506.874 411.805 511.063C405.672 511.063 399.501 511.063 393.292 511.063C387.084 511.063 380.913 511.063 374.779 511.063C376.2 513.905 378.556 515.925 381.848 517.122C385.214 518.319 389.178 518.693 393.741 518.244C398.379 517.795 403.315 516.598 408.551 514.653C408.551 517.271 408.551 519.927 408.551 522.62C408.551 525.313 408.551 527.968 408.551 530.586ZM384.989 490.081C382.82 490.081 380.8 490.68 378.93 491.877C377.135 493.073 375.751 494.906 374.779 497.375C378.145 497.375 381.511 497.375 384.877 497.375C388.318 497.375 391.721 497.375 395.087 497.375C394.19 494.831 392.843 492.999 391.048 491.877C389.328 490.68 387.308 490.081 384.989 490.081ZM476.813 523.854C476.813 530.212 475.429 535.523 472.661 539.786C469.968 544.05 466.266 547.229 461.553 549.324C456.841 551.493 451.455 552.615 445.396 552.69C439.412 552.764 433.092 551.867 426.434 549.997C426.434 547.08 426.434 544.125 426.434 541.133C426.434 538.216 426.434 535.298 426.434 532.381C432.344 534.7 437.692 535.859 442.479 535.859C447.266 535.934 451.044 535.037 453.811 533.167C456.654 531.222 458.075 528.566 458.075 525.2C458.075 524.826 458.075 524.49 458.075 524.191C458.075 523.817 458.075 523.48 458.075 523.181C456.205 524.602 454.036 525.724 451.567 526.547C449.099 527.37 446.443 527.781 443.601 527.781C438.889 527.781 434.662 526.696 430.922 524.527C427.257 522.283 424.377 519.216 422.283 515.327C420.188 511.362 419.141 506.762 419.141 501.526C419.141 497.487 419.814 493.784 421.161 490.418C422.507 487.052 424.377 484.135 426.771 481.666C429.165 479.198 431.895 477.328 434.962 476.056C438.028 474.71 441.245 474.037 444.611 474.037C447.304 474.037 449.81 474.411 452.128 475.159C454.447 475.907 456.504 476.917 458.299 478.188C458.299 477.665 458.299 477.178 458.299 476.73C458.299 476.281 458.299 475.795 458.299 475.271C461.366 475.271 464.47 475.271 467.612 475.271C470.754 475.271 473.821 475.271 476.813 475.271C476.813 483.275 476.813 491.39 476.813 499.619C476.813 507.772 476.813 515.85 476.813 523.854ZM448.201 511.736C451.343 511.736 453.849 510.764 455.719 508.819C457.664 506.799 458.636 504.219 458.636 501.077C458.636 497.861 457.664 495.243 455.719 493.223C453.849 491.203 451.343 490.194 448.201 490.194C444.91 490.194 442.292 491.203 440.347 493.223C438.402 495.168 437.43 497.786 437.43 501.077C437.43 504.294 438.402 506.874 440.347 508.819C442.292 510.764 444.91 511.736 448.201 511.736ZM498.995 468.651C496.826 468.651 494.844 468.127 493.048 467.08C491.328 466.033 489.944 464.649 488.897 462.929C487.85 461.208 487.326 459.301 487.326 457.207C487.326 455.112 487.85 453.242 488.897 451.597C489.944 449.876 491.328 448.492 493.048 447.445C494.844 446.398 496.826 445.874 498.995 445.874C501.089 445.874 502.997 446.398 504.717 447.445C506.512 448.492 507.934 449.876 508.981 451.597C510.028 453.242 510.552 455.112 510.552 457.207C510.552 459.301 510.028 461.208 508.981 462.929C507.934 464.649 506.512 466.033 504.717 467.08C502.997 468.127 501.089 468.651 498.995 468.651ZM489.682 533.279C489.682 523.704 489.682 514.055 489.682 504.331C489.682 494.532 489.682 484.845 489.682 475.271C492.749 475.271 495.853 475.271 498.995 475.271C502.137 475.271 505.203 475.271 508.195 475.271C508.195 484.845 508.195 494.532 508.195 504.331C508.195 514.055 508.195 523.704 508.195 533.279C505.203 533.279 502.137 533.279 498.995 533.279C495.853 533.279 492.749 533.279 489.682 533.279ZM565.435 515.327C565.435 519.964 564.126 523.779 561.508 526.771C558.965 529.688 555.524 531.82 551.186 533.167C546.848 534.513 541.985 535.074 536.6 534.85C531.289 534.7 525.866 533.84 520.331 532.269C520.331 529.427 520.331 526.509 520.331 523.517C520.331 520.525 520.331 517.608 520.331 514.766C523.472 516.187 526.614 517.309 529.756 518.132C532.897 518.88 535.74 519.328 538.283 519.478C540.826 519.628 542.883 519.441 544.454 518.917C546.025 518.319 546.81 517.346 546.81 516C546.81 514.953 546.137 514.13 544.791 513.531C543.519 512.933 541.836 512.409 539.741 511.961C537.647 511.437 535.403 510.839 533.009 510.165C530.691 509.417 528.484 508.408 526.39 507.136C524.295 505.79 522.575 504.032 521.228 501.863C519.957 499.619 519.321 496.739 519.321 493.223C519.321 489.034 520.518 485.481 522.911 482.564C525.38 479.572 528.671 477.328 532.785 475.832C536.899 474.261 541.499 473.476 546.586 473.476C551.672 473.476 556.871 474.336 562.182 476.056C562.182 478.899 562.182 481.816 562.182 484.808C562.182 487.8 562.182 490.717 562.182 493.56C557.993 491.54 554.066 490.194 550.401 489.52C546.735 488.847 543.781 488.772 541.537 489.296C539.293 489.745 538.171 490.755 538.171 492.325C538.171 493.373 538.806 494.195 540.078 494.794C541.424 495.317 543.107 495.804 545.127 496.253C547.222 496.701 549.428 497.3 551.747 498.048C554.141 498.796 556.347 499.843 558.367 501.189C560.461 502.461 562.144 504.256 563.416 506.575C564.762 508.819 565.435 511.736 565.435 515.327ZM574.929 533.279C574.929 519.74 574.929 506.089 574.929 492.325C574.929 478.562 574.929 464.911 574.929 451.372C577.996 451.372 581.1 451.372 584.241 451.372C587.383 451.372 590.45 451.372 593.442 451.372C593.442 464.911 593.442 478.562 593.442 492.325C593.442 506.089 593.442 519.74 593.442 533.279C590.45 533.279 587.383 533.279 584.241 533.279C581.1 533.279 577.996 533.279 574.929 533.279ZM645.072 533.279C645.072 532.68 645.072 532.119 645.072 531.596C645.072 530.997 645.072 530.436 645.072 529.913C643.202 531.484 641.07 532.68 638.676 533.503C636.358 534.401 633.852 534.85 631.159 534.85C627.344 534.85 623.754 534.139 620.388 532.718C617.022 531.222 614.03 529.127 611.412 526.435C608.868 523.667 606.849 520.413 605.353 516.673C603.931 512.933 603.221 508.782 603.221 504.219C603.221 499.581 603.931 495.392 605.353 491.652C606.849 487.912 608.868 484.733 611.412 482.115C614.03 479.422 617.022 477.365 620.388 475.944C623.754 474.448 627.307 473.7 631.047 473.7C633.74 473.7 636.283 474.149 638.676 475.047C641.07 475.869 643.202 477.029 645.072 478.525C645.072 477.926 645.072 477.365 645.072 476.842C645.072 476.318 645.072 475.795 645.072 475.271C648.139 475.271 651.243 475.271 654.385 475.271C657.526 475.271 660.593 475.271 663.585 475.271C663.585 484.845 663.585 494.532 663.585 504.331C663.585 514.055 663.585 523.704 663.585 533.279C660.593 533.279 657.526 533.279 654.385 533.279C651.243 533.279 648.139 533.279 645.072 533.279ZM633.627 518.468C637.218 518.468 640.098 517.159 642.267 514.541C644.436 511.923 645.521 508.482 645.521 504.219C645.521 499.955 644.436 496.552 642.267 494.008C640.098 491.39 637.218 490.081 633.627 490.081C629.962 490.081 627.045 491.353 624.876 493.896C622.781 496.44 621.734 499.88 621.734 504.219C621.734 508.557 622.781 512.035 624.876 514.653C627.045 517.197 629.962 518.468 633.627 518.468ZM681.999 533.279C681.999 526.397 681.999 519.478 681.999 512.522C681.999 505.565 681.999 498.684 681.999 491.877C680.503 491.877 678.97 491.877 677.399 491.877C675.903 491.877 674.407 491.877 672.911 491.877C672.911 489.109 672.911 486.341 672.911 483.574C672.911 480.806 672.911 478.039 672.911 475.271C674.407 475.271 675.903 475.271 677.399 475.271C678.97 475.271 680.503 475.271 681.999 475.271C681.999 472.653 681.999 470.072 681.999 467.529C681.999 464.911 681.999 462.33 681.999 459.787C685.066 459.787 688.17 459.787 691.312 459.787C694.453 459.787 697.52 459.787 700.512 459.787C700.512 462.33 700.512 464.911 700.512 467.529C700.512 470.072 700.512 472.653 700.512 475.271C702.233 475.271 703.99 475.271 705.786 475.271C707.581 475.271 709.339 475.271 711.059 475.271C711.059 478.039 711.059 480.806 711.059 483.574C711.059 486.341 711.059 489.109 711.059 491.877C709.339 491.877 707.581 491.877 705.786 491.877C703.99 491.877 702.233 491.877 700.512 491.877C700.512 498.684 700.512 505.565 700.512 512.522C700.512 519.478 700.512 526.397 700.512 533.279C697.52 533.279 694.453 533.279 691.312 533.279C688.17 533.279 685.066 533.279 681.999 533.279ZM774.181 475.271C774.181 484.845 774.181 494.532 774.181 504.331C774.181 514.055 774.181 523.704 774.181 533.279C771.189 533.279 768.122 533.279 764.98 533.279C761.839 533.279 758.735 533.279 755.668 533.279C755.668 532.755 755.668 532.269 755.668 531.82C755.668 531.371 755.668 530.885 755.668 530.362C753.648 531.783 751.367 532.867 748.823 533.615C746.355 534.438 743.662 534.85 740.745 534.85C736.481 534.85 732.704 533.877 729.413 531.932C726.196 529.988 723.653 527.183 721.783 523.517C719.988 519.852 719.09 515.514 719.09 510.502C719.09 504.668 719.09 498.796 719.09 492.886C719.09 486.977 719.09 481.105 719.09 475.271C722.157 475.271 725.261 475.271 728.403 475.271C731.545 475.271 734.611 475.271 737.603 475.271C737.603 480.657 737.603 486.117 737.603 491.652C737.603 497.188 737.603 502.648 737.603 508.034C737.603 511.026 738.277 513.457 739.623 515.327C741.044 517.122 743.251 518.019 746.243 518.019C749.235 518.019 751.554 517.159 753.199 515.439C754.845 513.718 755.668 511.25 755.668 508.034C755.668 502.648 755.668 497.188 755.668 491.652C755.668 486.117 755.668 480.657 755.668 475.271C758.735 475.271 761.839 475.271 764.98 475.271C768.122 475.271 771.189 475.271 774.181 475.271ZM786.498 533.279C786.498 523.704 786.498 514.055 786.498 504.331C786.498 494.532 786.498 484.845 786.498 475.271C789.564 475.271 792.669 475.271 795.81 475.271C798.952 475.271 802.019 475.271 805.011 475.271C805.011 475.795 805.011 476.318 805.011 476.842C805.011 477.365 805.011 477.889 805.011 478.413C807.33 476.767 809.948 475.533 812.865 474.71C815.782 473.887 818.961 473.663 822.402 474.037C822.402 477.029 822.402 480.058 822.402 483.125C822.402 486.192 822.402 489.221 822.402 492.213C816.493 491.39 812.117 491.914 809.274 493.784C806.432 495.579 805.011 498.534 805.011 502.648C805.011 507.66 805.011 512.746 805.011 517.907C805.011 523.069 805.011 528.192 805.011 533.279C802.019 533.279 798.952 533.279 795.81 533.279C792.669 533.279 789.564 533.279 786.498 533.279ZM880.146 530.586C874.985 532.755 869.861 534.102 864.774 534.625C859.688 535.149 854.863 534.85 850.3 533.728C845.812 532.68 841.811 530.848 838.295 528.23C834.779 525.612 832.012 522.283 829.992 518.244C828.047 514.205 827.075 509.53 827.075 504.219C827.075 499.806 827.785 495.766 829.207 492.101C830.703 488.361 832.797 485.107 835.49 482.34C838.183 479.497 841.362 477.328 845.027 475.832C848.692 474.261 852.694 473.476 857.032 473.476C860.922 473.476 864.438 474.112 867.579 475.383C870.721 476.655 873.451 478.45 875.77 480.769C878.089 483.013 879.959 485.706 881.38 488.847C882.801 491.989 883.699 495.43 884.073 499.17C884.447 502.91 884.222 506.874 883.4 511.063C877.266 511.063 871.095 511.063 864.887 511.063C858.678 511.063 852.507 511.063 846.373 511.063C847.795 513.905 850.151 515.925 853.442 517.122C856.808 518.319 860.773 518.693 865.335 518.244C869.973 517.795 874.91 516.598 880.146 514.653C880.146 517.271 880.146 519.927 880.146 522.62C880.146 525.313 880.146 527.968 880.146 530.586ZM856.584 490.081C854.414 490.081 852.395 490.68 850.525 491.877C848.73 493.073 847.346 494.906 846.373 497.375C849.739 497.375 853.105 497.375 856.471 497.375C859.912 497.375 863.316 497.375 866.682 497.375C865.784 494.831 864.438 492.999 862.643 491.877C860.922 490.68 858.902 490.081 856.584 490.081Z" fill="#111827"/>
</svg>
