<svg width="930" height="783" viewBox="0 0 930 783" fill="none" xmlns="http://www.w3.org/2000/svg">
<path d="M509.695 166.28L509.043 167.582L507.09 169.969L506.439 170.837L505.788 171.054L504.92 171.271L503.617 171.054L501.881 169.969L499.06 169.536L497.107 169.102L495.153 168.885L493.417 168.668L491.897 169.753L490.812 169.97L489.727 169.753H489.293V174.744L489.077 175.178V176.046L488.86 176.914L488.426 178.216L488.209 179.301V181.255L487.992 182.123L488.209 182.991L488.643 183.859H499.06L499.928 184.293L499.712 185.595L499.278 186.029L498.627 186.463L498.41 187.547L497.976 188.85V193.19L499.495 195.143L499.929 196.228L500.363 197.096L500.796 197.53L501.23 198.832L501.881 200.786L502.75 202.088L503.618 203.173L504.052 203.39H507.524L509.695 203.607H510.346L511.214 203.824L511.865 204.258H514.252L514.469 203.824L514.903 202.738L515.12 201.653L515.337 201.437H516.422L516.856 201.87H519.026V202.304L519.243 202.521L519.894 202.955H520.545V207.078L520.762 208.163L521.196 209.031H522.064L522.715 208.815L523.366 208.381L524.017 207.513L524.234 206.428L524.451 205.994L524.885 206.211L525.319 207.296L525.536 209.466L525.753 210.768L525.969 211.853L526.187 212.721L526.62 212.938L527.489 213.155H528.574L530.527 213.372L531.829 213.589H532.915L533.783 214.457L534.651 214.674V216.193L535.302 216.627C533.132 216.627 530.528 216.844 529.009 218.797C527.925 221.186 530.963 222.271 530.312 225.526C529.661 228.782 526.623 226.611 523.584 227.914C520.546 228.999 518.81 230.952 515.988 230.301C513.167 229.65 511.648 229.433 509.694 230.518C507.524 231.82 504.486 230.735 502.315 229.65C500.145 228.564 499.494 228.782 499.494 228.782C499.494 228.782 499.277 232.688 498.192 234.424C497.324 236.161 494.503 235.943 492.766 237.68C490.813 239.416 491.247 240.067 492.766 241.586C494.285 243.106 494.285 245.059 494.285 248.097C494.285 251.135 491.464 249.182 489.945 248.748C488.426 248.097 485.388 247.012 482.132 247.012C478.877 247.012 479.311 246.361 476.273 245.275C473.234 244.191 473.451 244.624 471.498 245.492C469.328 246.36 468.459 244.19 468.459 242.02C468.459 239.633 466.073 239.633 462.383 238.113C458.693 236.594 457.174 237.462 457.174 237.462C457.174 237.462 454.786 238.547 453.919 241.586C453.05 244.624 453.702 244.19 453.05 245.492C452.399 246.577 451.314 248.096 448.493 249.616C445.672 251.135 444.587 248.965 444.153 247.663C443.936 246.143 439.379 244.407 436.34 243.322C433.301 242.237 437.859 247.229 436.991 250.05C436.123 252.871 433.952 256.777 436.557 257.429C439.378 258.08 440.246 258.731 443.285 260.033C446.323 261.552 444.804 258.08 446.54 259.165C448.277 260.25 452.4 261.986 456.307 261.986C460.213 261.986 459.779 264.156 459.996 267.195C460.43 270.45 459.345 268.28 459.345 269.582C459.345 270.667 462.166 271.535 461.515 273.489C460.864 275.225 461.732 275.876 460.864 278.263C459.996 280.65 458.043 280.867 453.92 280.65C449.579 280.433 451.098 279.999 448.711 279.131C446.324 278.263 447.192 278.046 444.804 278.48C442.417 279.131 442.417 276.093 442.417 276.093C442.417 276.093 437.859 274.139 433.519 270.016C429.179 265.892 431.349 266.109 430.047 265.675C428.745 265.024 427.008 263.071 426.791 259.381C426.574 255.909 425.055 256.994 422.017 256.56C418.978 255.909 419.196 255.909 418.978 254.39C418.762 252.871 415.94 251.569 415.94 249.181C415.94 246.794 413.119 249.832 411.166 251.134C408.996 252.653 401.182 256.126 401.182 256.126C401.182 256.126 398.144 254.607 397.493 259.598C396.842 264.59 393.804 264.807 393.804 267.194C393.804 269.582 397.059 268.931 401.183 269.148C405.089 269.365 402.485 271.752 401.399 273.271C400.531 274.79 401.183 275.225 403.136 277.395C405.306 279.348 403.787 279.348 402.485 281.301C401.183 283.038 401.617 283.255 400.965 286.076C400.314 288.68 397.276 290.85 394.889 292.803C392.502 294.757 391.199 293.671 389.68 295.408C388.161 297.144 385.991 297.795 382.952 298.663C379.914 299.531 379.045 297.578 379.045 294.539C379.045 291.501 377.309 291.067 374.271 292.152C371.233 293.237 368.411 291.935 368.194 288.897C367.977 286.075 364.939 286.51 362.768 289.114C360.598 291.718 356.475 294.973 355.172 295.408C353.87 295.624 352.351 296.493 350.832 294.323C349.313 291.935 348.445 294.323 347.142 295.842C345.84 297.361 340.198 301.701 337.16 301.701C334.121 301.701 333.253 300.616 330.865 300.833C328.478 301.05 326.091 306.693 322.619 307.344C319.363 307.995 318.929 306.693 315.24 305.825C311.55 304.957 313.503 307.344 311.55 308.429C309.814 309.514 310.031 307.778 309.163 309.08C308.295 310.165 308.729 311.033 306.775 314.94C304.605 318.846 304.388 315.591 304.605 318.846C304.822 322.102 305.473 324.923 303.954 328.178C302.435 331.434 298.746 330.782 300.699 334.038C302.435 337.293 299.831 337.076 298.745 340.332C297.877 343.587 295.056 342.936 291.583 345.106C287.894 347.059 287.026 344.889 286.158 342.285C285.289 339.681 280.732 340.766 277.043 339.246C273.353 337.727 272.268 341.2 267.276 343.587C262.502 345.974 262.068 347.059 262.936 349.23C263.804 351.4 263.587 356.391 263.587 360.515C263.587 364.638 265.757 366.374 261.851 363.987C257.945 361.6 254.906 358.127 252.519 355.957C250.131 353.787 252.519 358.779 252.519 360.949C252.519 362.902 251.868 366.157 249.48 368.111C247.093 369.847 244.272 368.111 236.025 366.591C227.777 365.072 233.203 361.383 226.91 362.685C221.701 363.77 219.314 366.157 216.493 362.902C213.671 359.646 213.237 362.034 210.199 364.638C207.16 367.242 205.858 364.855 204.99 363.987C204.122 363.119 199.564 365.506 195.875 364.855C193.488 364.421 192.837 363.987 188.279 363.987C183.505 363.987 185.458 366.591 185.458 366.591C185.458 366.591 185.241 368.11 186.76 370.932C188.28 373.753 188.496 374.404 188.28 379.179C187.846 383.953 184.59 382.651 180.033 382.651C175.475 382.651 176.126 383.302 174.824 385.906C173.522 388.51 171.352 387.86 167.228 385.255C162.888 382.651 163.322 381.783 160.501 383.953C157.679 386.34 157.462 386.34 155.075 385.472C152.688 384.604 152.688 384.387 151.82 385.689C150.952 387.208 148.13 385.689 147.913 382.217C147.479 378.744 144.224 380.263 139.666 384.387C135.109 388.51 135.326 386.123 131.419 385.472C127.513 384.821 127.079 385.472 122.304 383.518C117.53 381.348 119.483 380.914 116.228 378.744C112.972 376.791 113.84 380.263 108.632 380.263C103.621 380.263 100.178 381.627 92.9716 379.03C93.0929 381.709 93.1559 384.365 93.0056 386.992C84.9757 387.427 76.9459 384.388 68.6988 384.388C57.4138 384.388 44.392 379.396 38.0982 393.069C37.664 393.937 37.2302 395.022 37.0133 396.107L37.4467 395.89C35.7107 401.967 36.1449 409.346 42.8725 410.865C43.3067 413.252 44.392 415.64 43.9578 418.244C37.6644 418.678 36.5791 417.81 35.2769 424.321C34.4088 428.878 33.7577 432.568 33.7577 437.342C33.7577 442.334 35.4941 445.806 37.0133 449.93C38.3155 453.619 37.8813 452.751 41.3537 453.836C45.0431 455.138 43.7412 453.836 45.4773 457.308C49.3836 464.904 48.0814 477.709 44.6093 485.305C42.8729 488.994 38.7497 493.552 34.4092 492.032C32.8897 491.381 32.0217 489.428 30.5025 488.994C28.7661 488.56 25.0768 488.994 23.3407 489.211C19.6514 489.862 17.6984 492.249 13.5745 490.296C9.45128 488.342 7.28105 483.785 4.4597 480.529C3.59168 482.7 3.15749 485.738 0.553061 485.955C0.336503 488.777 -0.314958 492.466 1.42145 494.636C3.15749 497.023 5.76192 496.155 9.01745 496.372C8.80018 500.93 9.23401 503.751 8.14907 507.658C7.06377 511.564 7.06377 515.47 6.84721 519.594C5.32772 519.377 4.4597 520.245 3.15749 520.245C3.80824 520.245 0.553066 530.445 0.33615 531.531C-0.0980409 535.003 -0.31496 539.995 0.986896 543.033C2.72294 546.939 6.62958 544.986 6.41267 551.063C10.9701 552.582 11.1873 556.705 16.6131 556.054C19.4344 555.837 23.7749 553.45 22.4727 559.31C19.6514 559.093 17.2642 560.612 17.0469 563.65C15.7447 564.518 15.7447 564.301 14.8767 565.82C14.2256 565.82 13.7914 565.82 13.3576 566.037C14.0087 569.293 14.0087 572.982 18.5661 572.114C18.7833 576.02 16.83 581.663 20.7363 583.399C23.7749 584.484 31.5875 580.795 32.6728 585.353C34.843 585.57 37.2305 585.57 39.4008 585.353C40.0519 580.144 38.5327 575.586 44.6093 574.501C48.5159 573.85 58.2821 578.625 59.3671 572.548C60.0182 572.331 60.2351 572.548 60.8862 572.114C60.8862 575.369 61.5373 578.408 61.5373 581.663C65.0098 581.88 65.444 581.88 67.3969 584.05C68.4819 585.352 70.6525 591.212 72.8227 587.306C73.4738 585.786 71.0866 582.748 70.6525 581.229C70.2186 579.059 70.6525 575.803 70.8697 573.633C71.7378 574.718 74.1249 574.501 74.9929 575.369C76.9466 577.322 76.2951 578.842 77.1632 581.229C78.2481 584.267 81.2871 589.693 85.1934 589.91C86.4956 595.552 80.4187 594.684 76.5124 594.684C71.3039 594.684 69.1337 595.119 68.4822 600.761C68.2657 603.799 65.8782 610.527 68.4822 612.698C70.6525 614.434 73.2569 613.132 75.644 615.519C78.8992 618.991 78.6823 621.596 74.776 623.983C68.916 627.238 68.2653 622.681 66.0951 618.774C62.1888 611.612 55.027 610.093 47.431 611.829C46.9971 614.434 45.0438 615.736 42.4394 614.868C42.0055 610.31 42.2228 607.488 37.4478 606.187C35.7114 605.752 33.7581 606.838 32.2393 605.752C31.154 604.884 30.5029 601.846 29.8522 600.544C26.5966 592.731 20.7374 588.825 12.273 589.042C12.273 590.778 12.273 592.514 12.273 594.25C15.7454 594.033 19.4348 597.071 22.4731 598.156C22.4731 600.544 21.1712 604.233 21.3881 606.186C22.2565 610.31 26.1628 609.224 28.9841 612.263C33.9757 617.906 34.8437 624.851 25.9459 625.936C24.6433 629.625 23.1245 634.4 23.7756 638.306C26.8139 638.523 39.1842 640.042 41.1375 638.306C42.6567 636.787 40.7033 632.229 40.4864 630.276C40.0526 627.455 40.2695 624.199 40.4864 621.595C48.2993 619.859 48.7335 628.54 55.6781 629.191C61.7549 629.842 67.1804 630.493 73.4742 630.927C73.6914 633.966 73.2576 637.221 73.9083 640.042C74.7764 644.166 74.9933 643.732 79.3341 643.949C78.683 644.166 79.3341 646.987 79.551 647.421C82.1551 646.553 81.5044 644.166 81.7213 641.778C88.0151 641.562 94.5258 641.996 101.036 641.562C101.036 640.91 101.253 640.259 101.253 639.608C105.594 639.391 109.066 640.042 112.105 636.353C114.492 633.314 115.143 631.144 120.134 629.842C120.352 627.238 120.786 624.2 118.615 622.463C122.088 622.246 132.288 620.51 132.288 625.502C133.156 625.718 135.109 625.718 135.977 625.502C136.194 623.765 135.977 622.029 136.194 620.293C137.279 620.076 139.015 620.076 140.318 620.293C140.535 626.803 136.194 628.757 136.628 635.267C137.714 635.484 139.45 635.484 140.751 635.267C139.883 629.625 149.432 629.625 152.688 631.144C156.378 632.88 155.509 634.833 155.292 639.174C155.292 643.514 155.075 647.855 154.858 652.412C151.386 652.412 147.045 652.846 151.169 656.752C153.339 657.404 154.641 655.668 156.377 655.668C159.199 655.668 160.284 657.404 162.888 657.838C163.756 661.31 161.803 664.783 162.02 668.472C162.671 668.689 163.756 668.689 164.624 668.472C164.841 663.48 171.786 665 175.041 664.783C181.986 664.566 185.893 662.395 185.459 670.859C185.025 674.983 184.808 679.541 184.808 683.881C184.808 685.834 184.374 688.438 184.808 690.392C185.242 692.779 187.195 694.949 186.978 697.337C191.536 697.771 206.076 695.601 208.463 699.073C209.548 700.592 208.897 707.754 208.68 709.49C208.029 712.745 208.029 715.133 207.595 718.605C203.472 718.822 204.557 724.682 204.774 727.286C198.263 727.72 194.574 726.852 193.922 734.448C193.489 738.354 198.263 746.601 195.442 750.074C192.404 753.98 189.365 748.771 187.846 746.601C185.459 743.346 180.25 738.571 175.909 741.827C171.569 745.299 179.165 748.771 182.854 748.554C183.071 749.422 183.071 750.29 182.854 751.159C174.173 751.592 168.965 752.027 170.701 762.227C171.356 766.158 171.571 769.978 171.595 773.8C171.782 773.986 171.987 774.178 172.22 774.382C174.39 776.118 176.995 777.421 179.382 778.939C185.242 782.629 188.931 783.931 194.357 779.373C196.31 777.637 199.566 775.467 200.868 773.731C202.387 771.777 205.425 769.607 206.727 767.654C209.114 763.965 210.2 755.718 216.277 756.152C216.494 750.943 216.711 745.518 216.277 740.526C215.842 740.526 215.409 740.309 214.974 740.309C214.541 737.705 215.191 735.1 215.626 732.496C226.477 726.854 237.328 725.117 251 725.117C256.209 725.117 257.945 724.9 261.852 727.939C264.456 729.892 265.541 733.364 269.013 734.449C273.571 735.968 283.12 734.884 282.252 728.807C283.554 729.024 285.724 728.372 287.026 728.59C288.111 713.398 295.056 729.241 297.01 725.768C298.746 722.947 299.397 718.607 302.001 716.653C302.652 716.219 309.38 714.266 309.38 714.266C309.597 710.143 308.078 704.717 312.201 702.113C310.248 701.462 306.559 701.028 306.341 698.64C305.907 694.517 318.061 695.819 320.882 696.253C328.695 697.555 327.827 701.028 328.261 707.755C329.564 707.538 331.734 706.453 333.036 705.585C333.904 694.3 344.104 704.5 343.453 711.445C346.491 712.747 350.181 712.313 353.436 712.096C352.568 699.942 360.164 702.547 369.279 701.895C370.581 697.989 366.241 697.338 367.326 693.431C374.922 689.308 371.449 678.674 381.65 679.542C381.866 675.852 381.65 671.946 381.866 668.256C384.47 667.822 386.64 668.039 387.726 670.209C388.377 670.209 389.028 670.209 389.679 670.426C390.113 672.38 390.764 673.899 390.547 676.069C394.888 677.371 396.842 674.116 397.709 670.426C399.282 670.936 400.824 671.555 402.355 672.21C401.299 668.476 397.266 665.317 397.057 661.961C404.653 662.395 395.32 649.156 394.886 647.203C393.584 641.994 394.669 633.964 394.886 628.756C395.538 628.539 397.057 628.539 397.925 628.756C398.359 639.173 405.738 646.986 407.257 657.403C407.908 660.658 409.427 661.743 410.512 664.782C411.38 666.952 410.512 669.773 411.163 671.944C411.597 673.68 414.418 678.021 417.023 675.633C419.41 673.463 415.503 671.727 415.07 670.642C413.551 666.735 415.504 661.309 414.852 657.186C413.551 648.939 411.163 641.126 410.078 632.445C409.427 626.368 410.295 620.725 408.776 614.649C407.04 608.355 405.521 603.147 405.087 596.419C404.87 590.559 402.049 586.219 401.398 580.576C398.576 579.925 395.754 581.01 395.103 583.397C393.15 577.538 398.142 578.406 402.048 578.188C402.265 574.065 402.482 572.98 404.435 569.724C406.172 566.903 408.342 566.252 409.427 562.345C410.946 556.268 410.078 549.107 410.078 542.813C410.078 539.991 410.512 536.953 410.078 534.132C408.993 527.404 404.652 520.893 402.916 513.948C400.746 505.484 398.142 496.587 397.057 487.905C396.188 479.875 396.622 469.675 399.661 462.079C400.746 459.475 402.482 457.521 403.35 454.7C405.954 445.802 407.473 433.648 415.287 427.138C422.231 421.278 421.58 412.814 426.138 406.086C428.742 402.18 431.78 395.886 436.989 394.584C440.027 393.933 443.282 395.018 446.321 394.15C449.577 393.281 451.095 390.677 454.134 389.592C454.134 388.941 454.134 388.29 454.351 387.639C460.862 383.515 470.194 384.383 478.007 384.817C477.79 388.941 479.96 392.196 480.394 396.32C480.611 399.575 478.44 407.171 483.866 405.652C483.649 402.396 483.649 398.707 487.556 397.839C487.99 400.877 486.687 403.265 487.122 406.303C493.199 406.737 491.897 395.886 492.331 391.979C494.283 395.018 493.199 401.094 498.624 400.009C498.841 400.66 498.841 401.311 498.841 401.962C499.709 402.179 500.577 401.962 501.445 401.962C501.228 400.443 501.879 398.707 501.445 397.188C502.313 399.358 504.267 399.792 506.654 399.141C502.313 397.839 503.616 390.677 506.654 387.639C512.297 382.213 518.808 380.911 521.629 372.881C522.714 369.625 522.28 366.587 524.016 363.549C525.752 360.511 529.007 358.991 531.178 356.387C534.216 352.698 533.999 352.047 534.216 347.055C534.65 338.808 537.688 337.723 545.067 336.855C550.276 336.421 555.919 334.902 560.91 333.166C561.561 328.825 553.531 328.608 550.276 329.693C545.067 331.429 545.284 334.685 538.773 334.034C540.075 327.957 554.399 329.042 559.608 329.042C563.948 329.042 568.072 329.042 571.978 329.91C576.535 330.995 579.791 334.251 584.131 334.902C584.349 335.77 584.782 336.855 584.782 337.506C585 334.468 584.782 331.43 585 328.391C589.123 329.042 587.604 334.902 587.821 338.374C594.332 339.459 602.362 335.77 608.005 333.383C615.166 330.344 618.205 325.57 624.498 322.531C630.575 319.71 637.737 318.842 643.379 315.152C646.2 313.416 647.503 312.765 648.805 309.726C650.324 306.471 648.371 302.565 651.626 299.743C651.41 302.782 651.41 305.82 651.626 308.858C652.494 309.075 653.363 309.075 654.231 308.858C656.184 308.207 654.014 295.62 654.231 293.884C654.882 290.194 656.401 284.335 657.703 280.645C659.222 276.305 662.477 274.352 661.61 269.143C661.176 266.105 656.835 261.33 653.796 260.679C653.363 261.981 653.58 264.151 653.796 265.454C654.448 265.454 655.099 265.671 655.75 265.671C655.967 270.662 656.618 276.956 654.231 281.296C643.596 284.335 652.712 255.687 655.099 252.432C658.354 247.875 664.431 246.572 668.989 243.751C675.065 239.844 679.405 234.853 685.482 230.946C690.257 227.908 693.947 226.172 696.985 221.397C701.543 214.018 706.1 212.716 714.13 208.81C720.858 205.554 728.02 201.865 735.399 199.912C740.173 198.609 745.165 197.307 749.288 194.92C753.195 192.533 753.846 188.409 756.884 185.371C759.272 182.766 763.829 181.898 765.565 178.86C767.302 175.822 767.084 171.047 769.038 167.575C773.161 160.847 779.672 155.638 785.097 149.996C793.778 141.315 805.064 137.191 815.481 129.813C818.302 127.86 820.039 125.689 822.643 123.736C825.248 121.782 827.852 120.914 830.89 119.395C836.099 116.791 842.61 115.055 846.95 111.148C850.206 108.11 851.725 102.684 856.717 101.382C862.142 99.8631 859.321 90.9649 860.623 87.9266C862.142 84.6711 866.049 84.2373 868.87 82.5009C873.428 79.8968 879.288 73.1688 883.628 72.5177C884.062 70.3475 885.798 68.6114 887.969 68.1773C890.355 63.6199 892.526 58.6283 895.998 54.5047C897.951 52.1176 900.773 50.3812 902.509 47.7771C904.245 45.173 904.679 42.3513 906.199 39.9642C908.369 36.2748 912.709 32.1512 916.181 29.3299C920.305 26.0744 924.428 22.6023 927.684 18.2618C929.065 16.1137 929.258 13.7506 929.71 11.4755C923.65 9.30165 927.893 5.84065 926.817 0.0315165C920.957 -0.1854 919.004 0.682626 914.663 3.72089C914.013 6.54223 916.183 8.06136 918.787 8.06136C920.306 14.3552 914.663 12.6188 911.408 12.6188C906.634 12.6188 904.897 12.6187 900.774 16.7423C898.821 18.6956 898.821 19.9978 896.434 21.0828C894.915 21.7339 891.876 19.9978 890.791 21.7339C890.574 22.1681 895.565 29.9806 896.434 31.0659C887.536 31.717 889.489 40.6149 881.459 41.4833C881.676 42.5682 881.025 44.5216 881.242 45.6069C875.599 46.041 866.267 47.3429 861.059 45.6069C857.803 44.3046 856.067 41.7006 852.378 40.6153C849.122 39.53 845.65 39.7472 842.178 39.7472C839.79 39.7472 835.016 40.6153 832.845 39.7472C828.939 38.0112 830.458 34.5387 829.373 31.0663C827.42 25.6405 822.646 21.7342 820.475 16.0916C818.305 15.4405 816.786 16.5257 816.135 18.696C809.84 20.2151 804.415 7.19369 804.632 2.20211C803.764 1.33409 802.245 0.682984 801.16 0.682984C800.943 4.80654 801.811 19.9982 793.781 13.4875C792.696 15.0066 791.611 17.1769 790.959 18.696C789.44 15.6577 789.006 12.1853 786.402 10.232C784.665 14.3555 783.146 22.1684 783.363 26.7258C777.721 23.6876 777.503 15.8746 769.691 20.2151C759.273 26.2916 774.031 26.7258 774.899 31.7174C775.767 31.7174 776.635 31.9343 777.503 31.9343C775.984 31.9343 769.257 42.3517 766.435 43.6539C762.528 45.6072 755.584 47.1263 751.46 47.7774C748.639 48.2116 746.251 46.2583 742.996 47.1263C742.345 47.1263 743.213 56.8926 742.128 57.9775C740.826 59.4966 736.268 58.6286 734.532 60.7989C733.013 62.5349 731.928 66.8757 732.795 69.0456C734.098 72.5181 738.655 72.0842 739.523 76.4247C742.344 76.2074 742.996 78.8119 742.128 81.4163C736.485 80.3314 735.617 85.1057 735.834 89.4461C738.438 89.8803 738.004 89.8803 738.438 92.2675C731.276 91.6164 729.323 101.165 722.812 98.7782C719.34 97.6933 718.255 92.9186 715.867 90.9653C712.829 88.5781 710.876 88.5781 706.752 88.795C706.536 91.6164 706.752 94.4377 706.536 97.2591C698.722 96.608 698.506 101.816 694.165 105.94C690.042 109.847 684.833 113.97 682.88 105.506C685.267 103.987 691.995 99.212 686.57 97.2591C685.919 95.3057 686.352 92.4844 685.267 90.7483C684.616 89.4461 682.88 90.9653 682.012 89.6634C681.144 88.5785 681.144 87.059 680.493 85.9741C678.54 82.0678 675.284 78.8122 670.944 77.7273C666.82 84.4549 664.867 87.2763 657.054 89.2296C656.62 94.0042 659.224 98.5616 659.008 103.336C659.659 103.553 660.31 103.553 660.961 103.553C661.829 107.677 657.922 106.808 656.186 109.413C654.45 112.017 655.102 116.14 655.318 119.179C657.054 119.179 658.139 120.047 660.093 120.047C660.527 121.132 660.527 123.52 660.093 124.822C655.969 124.822 657.488 129.813 657.272 132.852C652.063 133.72 652.714 131.332 650.11 135.239C647.94 138.711 649.893 143.703 644.25 143.269C639.476 143.051 639.693 136.975 637.74 135.239C635.569 133.503 630.578 133.285 627.539 133.069C617.773 132.417 618.424 142.401 609.526 143.92C607.139 144.354 604.968 144.354 603.232 144.354L595.636 153.252L584.785 153.035L584.351 153.469L583.266 153.903H581.747L580.662 154.337L580.01 155.423L578.274 155.857L576.972 155.64L576.321 155.206L576.104 153.904L574.802 153.469L573.499 153.686L572.415 154.771L571.763 156.073L571.112 157.809L570.027 159.112L568.726 160.197L566.555 160.631H557.658L556.79 161.065L555.054 161.5L553.751 161.934H549.411L546.807 161.717H544.854L542.9 161.934L541.815 163.236L538.994 164.104H537.257L536.823 164.321H527.057L524.236 164.104L522.499 164.321L520.329 163.019L517.725 161.065L516.206 160.848H513.602L509.478 161.283L507.525 162.151L506.439 162.585L506.379 162.615C506.73 164.574 507.598 165.965 509.695 166.28Z" fill="#C0EFCD"/>
<path d="M464.855 280.027C521.13 280.027 572.902 288.021 613.932 301.42C577.621 281.135 524.297 268.325 464.855 268.325C405.413 268.325 352.088 281.135 315.778 301.42C356.808 288.021 408.58 280.027 464.855 280.027Z" fill="#CDA349"/>
<path d="M464.855 143.477C494.252 143.477 518.294 155.412 520.193 170.502C520.28 169.843 520.329 169.179 520.329 168.509C520.329 152.52 495.492 139.559 464.855 139.559C454.098 139.559 444.058 141.158 435.556 143.924C444.586 140.597 455.599 138.638 467.494 138.638C481.792 138.638 494.825 141.463 504.662 146.099C501.533 127.267 482.279 112.089 466.002 111.4C466.399 111.382 466.794 111.373 467.188 111.373C469.529 111.373 471.943 111.693 474.371 112.282C473.966 110.718 472.558 109.557 470.868 109.557H470.65V97.0779L467.245 96.5436H470.907C471.682 96.5436 472.31 95.9152 472.31 95.14C472.31 94.5871 471.989 94.11 471.524 93.8813C470.934 91.1898 468.416 88.9925 465.999 88.4376C466.066 88.2621 466.105 88.0726 466.105 87.8736C466.105 87.3352 465.833 86.8601 465.417 86.5796C465.349 84.6367 464.984 76.686 464.544 76.686C464.103 76.686 463.739 84.6367 463.67 86.5796C463.255 86.8601 462.982 87.3352 462.982 87.8736C462.982 88.1329 463.047 88.3767 463.158 88.5919C460.921 89.3294 458.731 91.3949 458.185 93.8813C457.72 94.11 457.399 94.5871 457.399 95.14C457.399 95.9152 458.028 96.5436 458.803 96.5436H459.059V109.557H458.841C456.913 109.557 455.34 111.061 455.222 112.96C440.621 117.592 426.227 131.84 424.727 148.52C415.219 153.716 409.38 160.757 409.38 168.509C409.38 169.18 409.429 169.844 409.515 170.503C411.415 155.412 435.456 143.477 464.853 143.477L464.855 143.477ZM467.494 98.5599C467.494 98.1301 467.842 97.7822 468.271 97.7822C468.701 97.7822 469.049 98.1306 469.049 98.5599V108.971H467.494V98.5599ZM464.077 97.1247C464.077 96.8924 464.18 96.6863 464.342 96.5441H465.367C465.529 96.6863 465.632 96.8924 465.632 97.1247V108.971H464.076L464.077 97.1247ZM460.66 98.5599C460.66 98.1301 461.008 97.7822 461.438 97.7822C461.867 97.7822 462.215 98.1306 462.215 98.5599V108.971H460.659L460.66 98.5599ZM464.855 200.41C423.742 200.41 390.415 217.803 390.415 239.258C390.415 242.042 390.985 244.756 392.051 247.374L393.215 238.66V245.369C393.223 245.354 393.232 245.339 393.24 245.324C393.223 245.942 393.215 246.569 393.215 247.208V274.861C395.574 274.413 397.955 273.986 400.357 273.582V244.26C400.357 241.78 402.367 239.769 404.847 239.769C407.327 239.769 409.337 241.78 409.337 244.26V272.187C411.331 271.902 413.339 271.633 415.359 271.38V235.272C415.359 232.792 417.369 230.782 419.849 230.782C422.329 230.782 424.339 232.792 424.339 235.272V270.357C426.335 270.153 428.344 269.967 430.361 269.793V231.228C430.361 228.748 432.371 226.738 434.851 226.738C437.331 226.738 439.341 228.748 439.341 231.228V269.125C441.339 269 443.347 268.887 445.363 268.791V228.476C445.363 225.997 447.373 223.986 449.853 223.986C452.333 223.986 454.343 225.997 454.343 228.476V268.463C456.342 268.412 458.35 268.376 460.365 268.354V227.173C460.365 224.694 462.375 222.683 464.855 222.683C467.335 222.683 469.345 224.694 469.345 227.173V268.354C471.36 268.375 473.368 268.412 475.367 268.463V228.476C475.367 225.997 477.377 223.986 479.857 223.986C482.337 223.986 484.347 225.997 484.347 228.476V268.791C486.364 268.888 488.371 269 490.369 269.125V231.228C490.369 228.748 492.379 226.738 494.859 226.738C497.339 226.738 499.349 228.748 499.349 231.228V269.793C501.367 269.967 503.375 270.153 505.371 270.357V235.272C505.371 232.792 507.381 230.782 509.861 230.782C512.341 230.782 514.351 232.792 514.351 235.272V271.38C516.371 271.634 518.379 271.903 520.373 272.187V244.26C520.373 241.78 522.383 239.769 524.863 239.769C527.343 239.769 529.353 241.78 529.353 244.26V273.582C531.755 273.987 534.136 274.413 536.495 274.861V247.208C536.495 246.569 536.486 245.941 536.469 245.324C536.477 245.339 536.486 245.354 536.495 245.369V238.66L537.658 247.374C538.725 244.756 539.295 242.042 539.295 239.258C539.295 217.803 505.967 200.41 464.855 200.41ZM515.363 199.06V180.263C515.363 179.812 515.357 179.369 515.345 178.934C515.351 178.945 515.357 178.956 515.363 178.966V174.236L516.183 180.379C516.935 178.533 517.337 176.62 517.337 174.658C517.337 159.531 493.84 147.269 464.854 147.269C435.869 147.269 412.371 159.531 412.371 174.658C412.371 176.62 412.773 178.533 413.525 180.379L414.345 174.236V178.966C414.351 178.955 414.357 178.945 414.363 178.934C414.352 179.369 414.345 179.812 414.345 180.263V199.06C397.127 206.592 386.171 217.895 386.171 230.537C386.171 231.488 386.24 232.431 386.363 233.365C387.814 221.835 398.389 211.61 414.344 204.624C415.971 203.912 417.645 203.227 419.38 202.584C421.42 201.829 423.534 201.125 425.712 200.471C427.098 200.055 428.519 199.667 429.957 199.295C432.019 198.761 434.129 198.272 436.289 197.832C437.685 197.548 439.101 197.287 440.534 197.044C442.61 196.692 444.719 196.382 446.866 196.119C448.267 195.948 449.683 195.799 451.112 195.668C453.197 195.476 455.305 195.319 457.443 195.215C458.847 195.147 460.264 195.101 461.689 195.072C462.74 195.051 463.793 195.032 464.854 195.032C465.916 195.032 466.969 195.051 468.02 195.072C469.445 195.102 470.861 195.147 472.266 195.215C474.404 195.32 476.512 195.476 478.597 195.668C480.026 195.799 481.442 195.948 482.843 196.119C484.99 196.382 487.099 196.692 489.174 197.044C490.608 197.287 492.024 197.548 493.42 197.832C495.58 198.272 497.69 198.761 499.752 199.295C501.19 199.667 502.61 200.055 503.997 200.471C506.175 201.125 508.289 201.828 510.329 202.584C512.064 203.227 513.737 203.912 515.364 204.624C531.321 211.61 541.895 221.835 543.346 233.365C543.469 232.431 543.538 231.488 543.538 230.537C543.538 217.895 532.582 206.592 515.363 199.06ZM425.712 194.922C423.534 195.576 421.422 196.282 419.381 197.038V178.184C419.381 176.436 420.799 175.019 422.547 175.019C424.294 175.019 425.712 176.436 425.712 178.184L425.712 194.922ZM436.29 192.278C434.132 192.717 432.019 193.201 429.958 193.734V171.848C429.958 170.099 431.375 168.682 433.124 168.682C434.872 168.682 436.289 170.099 436.289 171.848L436.29 192.278ZM446.866 190.566C444.721 190.828 442.609 191.132 440.535 191.484V168.996C440.535 167.247 441.952 165.83 443.701 165.83C445.449 165.83 446.866 167.247 446.866 168.996L446.866 190.566ZM457.444 189.662C455.306 189.766 453.197 189.921 451.112 190.113V167.056C451.112 165.308 452.53 163.891 454.278 163.891C456.026 163.891 457.443 165.308 457.443 167.056V189.662H457.444ZM468.02 189.517C466.969 189.495 465.917 189.475 464.855 189.475C463.793 189.475 462.741 189.495 461.689 189.517V166.137C461.689 164.389 463.107 162.972 464.855 162.972C466.603 162.972 468.02 164.389 468.02 166.137V189.517ZM478.597 190.113C476.513 189.921 474.404 189.767 472.266 189.662V167.056C472.266 165.308 473.683 163.891 475.431 163.891C477.18 163.891 478.597 165.308 478.597 167.056L478.597 190.113ZM489.174 191.484C487.101 191.132 484.988 190.828 482.843 190.566V168.996C482.843 167.247 484.26 165.83 486.008 165.83C487.757 165.83 489.174 167.247 489.174 168.996L489.174 191.484ZM499.751 193.734C497.691 193.201 495.578 192.717 493.42 192.278V171.848C493.42 170.099 494.837 168.682 496.585 168.682C498.334 168.682 499.751 170.099 499.751 171.848V193.734H499.751ZM510.328 197.038C508.287 196.282 506.176 195.576 503.997 194.922V178.184C503.997 176.436 505.414 175.019 507.162 175.019C508.911 175.019 510.328 176.436 510.328 178.184L510.328 197.038Z" fill="#036D33"/>
<path d="M465.067 28.1831L469.853 42.9126H485.34L472.811 52.0155L477.596 66.7445L465.067 57.6416L452.537 66.7445L457.323 52.0155L444.794 42.9126H460.281L465.067 28.1831Z" fill="#CDA349"/>
<path d="M390.626 59.4883L393.686 68.9053H403.588L395.577 74.725L398.637 84.142L390.626 78.3223L382.616 84.142L385.676 74.725L377.665 68.9053H387.567L390.626 59.4883Z" fill="#CDA349"/>
<path d="M342.624 107.184L344.441 112.777H350.322L345.564 116.233L347.381 121.826L342.624 118.37L337.867 121.826L339.684 116.233L334.927 112.777H340.807L342.624 107.184Z" fill="#CDA349"/>
<path d="M539.083 59.4883L536.023 68.9053H526.122L534.132 74.725L531.072 84.1425L539.083 78.3223L547.094 84.1425L544.034 74.725L552.045 68.9053H542.143L539.083 59.4883Z" fill="#CDA349"/>
<path d="M587.083 107.184L585.266 112.777H579.385L584.143 116.233L582.326 121.825L587.083 118.369L591.84 121.825L590.023 116.233L594.781 112.777H588.9L587.083 107.184Z" fill="#CDA349"/>
<path d="M137.007 510.023C137.007 500.284 137.007 490.429 137.007 480.458C137.007 470.487 137.007 460.632 137.007 450.893C140.485 450.893 143.993 450.893 147.529 450.893C151.065 450.893 154.572 450.893 158.05 450.893C162.34 450.893 166.282 451.647 169.876 453.154C173.471 454.603 176.601 456.661 179.268 459.328C181.934 461.994 183.992 465.125 185.441 468.719C186.949 472.255 187.702 476.139 187.702 480.371C187.702 484.603 186.949 488.516 185.441 492.11C183.992 495.704 181.934 498.864 179.268 501.588C176.601 504.255 173.471 506.342 169.876 507.849C166.282 509.298 162.34 510.023 158.05 510.023C154.572 510.023 151.065 510.023 147.529 510.023C143.993 510.023 140.485 510.023 137.007 510.023ZM158.05 464.632C157.123 464.632 156.166 464.632 155.181 464.632C154.195 464.632 153.21 464.632 152.224 464.632C152.224 469.849 152.224 475.125 152.224 480.458C152.224 485.791 152.224 491.067 152.224 496.284C153.21 496.284 154.195 496.284 155.181 496.284C156.166 496.284 157.123 496.284 158.05 496.284C160.949 496.284 163.471 495.588 165.616 494.197C167.76 492.806 169.413 490.922 170.572 488.545C171.731 486.11 172.311 483.386 172.311 480.371C172.311 477.357 171.731 474.661 170.572 472.284C169.413 469.907 167.76 468.052 165.616 466.719C163.471 465.328 160.949 464.632 158.05 464.632ZM218.459 459.936C216.778 459.936 215.242 459.531 213.851 458.719C212.517 457.907 211.445 456.835 210.633 455.502C209.822 454.168 209.416 452.69 209.416 451.067C209.416 449.444 209.822 447.995 210.633 446.719C211.445 445.386 212.517 444.313 213.851 443.502C215.242 442.69 216.778 442.284 218.459 442.284C220.083 442.284 221.561 442.69 222.894 443.502C224.285 444.313 225.387 445.386 226.199 446.719C227.01 447.995 227.416 449.444 227.416 451.067C227.416 452.69 227.01 454.168 226.199 455.502C225.387 456.835 224.285 457.907 222.894 458.719C221.561 459.531 220.083 459.936 218.459 459.936ZM211.242 510.023C211.242 502.603 211.242 495.125 211.242 487.588C211.242 479.994 211.242 472.487 211.242 465.067C213.619 465.067 216.025 465.067 218.459 465.067C220.894 465.067 223.271 465.067 225.59 465.067C225.59 472.487 225.59 479.994 225.59 487.588C225.59 495.125 225.59 502.603 225.59 510.023C223.271 510.023 220.894 510.023 218.459 510.023C216.025 510.023 213.619 510.023 211.242 510.023ZM293.516 502.719C293.516 507.646 292.443 511.762 290.298 515.066C288.212 518.371 285.342 520.834 281.69 522.458C278.038 524.139 273.864 525.008 269.168 525.066C264.531 525.124 259.632 524.429 254.473 522.979C254.473 520.719 254.473 518.429 254.473 516.11C254.473 513.849 254.473 511.588 254.473 509.327C259.052 511.124 263.197 512.023 266.907 512.023C270.617 512.081 273.545 511.385 275.69 509.936C277.893 508.429 278.994 506.371 278.994 503.762C278.994 503.472 278.994 503.211 278.994 502.98C278.994 502.69 278.994 502.429 278.994 502.197C277.545 503.298 275.864 504.168 273.951 504.806C272.038 505.443 269.98 505.762 267.777 505.762C264.125 505.762 260.849 504.922 257.951 503.24C255.11 501.501 252.879 499.125 251.255 496.11C249.632 493.038 248.821 489.472 248.821 485.414C248.821 482.284 249.342 479.415 250.386 476.806C251.429 474.197 252.879 471.936 254.734 470.023C256.589 468.11 258.705 466.661 261.081 465.676C263.458 464.632 265.951 464.11 268.56 464.11C270.646 464.11 272.588 464.4 274.386 464.98C276.183 465.56 277.777 466.342 279.168 467.328C279.168 466.922 279.168 466.545 279.168 466.197C279.168 465.849 279.168 465.473 279.168 465.067C281.545 465.067 283.951 465.067 286.385 465.067C288.82 465.067 291.197 465.067 293.516 465.067C293.516 471.27 293.516 477.559 293.516 483.936C293.516 490.255 293.516 496.516 293.516 502.719ZM271.342 493.327C273.777 493.327 275.719 492.574 277.168 491.067C278.675 489.501 279.429 487.501 279.429 485.067C279.429 482.574 278.675 480.545 277.168 478.98C275.719 477.415 273.777 476.632 271.342 476.632C268.791 476.632 266.762 477.415 265.255 478.98C263.748 480.487 262.994 482.516 262.994 485.067C262.994 487.559 263.748 489.559 265.255 491.067C266.762 492.574 268.791 493.327 271.342 493.327ZM326.359 459.936C324.678 459.936 323.142 459.531 321.751 458.719C320.417 457.907 319.345 456.835 318.533 455.502C317.722 454.168 317.316 452.69 317.316 451.067C317.316 449.444 317.722 447.995 318.533 446.719C319.345 445.386 320.417 444.313 321.751 443.502C323.142 442.69 324.678 442.284 326.359 442.284C327.982 442.284 329.461 442.69 330.794 443.502C332.185 444.313 333.287 445.386 334.098 446.719C334.91 447.995 335.316 449.444 335.316 451.067C335.316 452.69 334.91 454.168 334.098 455.502C333.287 456.835 332.185 457.907 330.794 458.719C329.461 459.531 327.982 459.936 326.359 459.936ZM319.142 510.023C319.142 502.603 319.142 495.125 319.142 487.588C319.142 479.994 319.142 472.487 319.142 465.067C321.519 465.067 323.924 465.067 326.359 465.067C328.794 465.067 331.171 465.067 333.49 465.067C333.49 472.487 333.49 479.994 333.49 487.588C333.49 495.125 333.49 502.603 333.49 510.023C331.171 510.023 328.794 510.023 326.359 510.023C323.924 510.023 321.519 510.023 319.142 510.023ZM363.851 510.023C363.851 504.69 363.851 499.327 363.851 493.936C363.851 488.545 363.851 483.212 363.851 477.936C362.691 477.936 361.503 477.936 360.286 477.936C359.126 477.936 357.967 477.936 356.807 477.936C356.807 475.791 356.807 473.646 356.807 471.502C356.807 469.357 356.807 467.212 356.807 465.067C357.967 465.067 359.126 465.067 360.286 465.067C361.503 465.067 362.691 465.067 363.851 465.067C363.851 463.038 363.851 461.038 363.851 459.067C363.851 457.038 363.851 455.038 363.851 453.067C366.228 453.067 368.633 453.067 371.068 453.067C373.503 453.067 375.88 453.067 378.198 453.067C378.198 455.038 378.198 457.038 378.198 459.067C378.198 461.038 378.198 463.038 378.198 465.067C379.532 465.067 380.894 465.067 382.285 465.067C383.677 465.067 385.039 465.067 386.372 465.067C386.372 467.212 386.372 469.357 386.372 471.502C386.372 473.646 386.372 475.791 386.372 477.936C385.039 477.936 383.677 477.936 382.285 477.936C380.894 477.936 379.532 477.936 378.198 477.936C378.198 483.212 378.198 488.545 378.198 493.936C378.198 499.327 378.198 504.69 378.198 510.023C375.88 510.023 373.503 510.023 371.068 510.023C368.633 510.023 366.228 510.023 363.851 510.023ZM438.519 510.023C438.519 509.559 438.519 509.124 438.519 508.719C438.519 508.255 438.519 507.82 438.519 507.414C437.07 508.632 435.418 509.559 433.563 510.197C431.766 510.893 429.824 511.24 427.737 511.24C424.78 511.24 421.998 510.69 419.389 509.588C416.78 508.429 414.461 506.806 412.432 504.719C410.461 502.574 408.896 500.052 407.737 497.154C406.635 494.255 406.085 491.038 406.085 487.501C406.085 483.907 406.635 480.661 407.737 477.762C408.896 474.864 410.461 472.4 412.432 470.371C414.461 468.284 416.78 466.69 419.389 465.589C421.998 464.429 424.751 463.849 427.65 463.849C429.737 463.849 431.708 464.197 433.563 464.893C435.418 465.531 437.07 466.429 438.519 467.589C438.519 467.125 438.519 466.69 438.519 466.284C438.519 465.878 438.519 465.473 438.519 465.067C440.896 465.067 443.302 465.067 445.737 465.067C448.171 465.067 450.548 465.067 452.867 465.067C452.867 472.487 452.867 479.994 452.867 487.588C452.867 495.125 452.867 502.603 452.867 510.023C450.548 510.023 448.171 510.023 445.737 510.023C443.302 510.023 440.896 510.023 438.519 510.023ZM429.65 498.545C432.432 498.545 434.664 497.53 436.345 495.501C438.026 493.472 438.867 490.806 438.867 487.501C438.867 484.197 438.026 481.559 436.345 479.588C434.664 477.559 432.432 476.545 429.65 476.545C426.809 476.545 424.548 477.531 422.867 479.501C421.244 481.472 420.432 484.139 420.432 487.501C420.432 490.864 421.244 493.559 422.867 495.588C424.548 497.559 426.809 498.545 429.65 498.545ZM478.529 510.023C478.529 499.53 478.529 488.951 478.529 478.284C478.529 467.618 478.529 457.038 478.529 446.545C480.906 446.545 483.312 446.545 485.746 446.545C488.181 446.545 490.558 446.545 492.877 446.545C492.877 457.038 492.877 467.618 492.877 478.284C492.877 488.951 492.877 499.53 492.877 510.023C490.558 510.023 488.181 510.023 485.746 510.023C483.312 510.023 480.906 510.023 478.529 510.023ZM553.321 510.023C553.321 500.284 553.321 490.429 553.321 480.458C553.321 470.487 553.321 460.632 553.321 450.893C556.915 450.893 560.509 450.893 564.104 450.893C567.756 450.893 571.35 450.893 574.886 450.893C579.35 450.893 583.234 451.763 586.538 453.502C589.842 455.183 592.422 457.56 594.277 460.632C596.132 463.705 597.06 467.299 597.06 471.415C597.06 475.473 596.132 479.038 594.277 482.11C592.48 485.183 589.987 487.559 586.799 489.241C583.669 490.922 580.103 491.762 576.103 491.762C574.828 491.762 573.553 491.762 572.277 491.762C571.06 491.762 569.814 491.762 568.538 491.762C568.538 494.777 568.538 497.82 568.538 500.893C568.538 503.965 568.538 507.008 568.538 510.023C566.046 510.023 563.524 510.023 560.973 510.023C558.422 510.023 555.872 510.023 553.321 510.023ZM574.886 464.545C573.843 464.545 572.77 464.545 571.669 464.545C570.625 464.545 569.582 464.545 568.538 464.545C568.538 466.864 568.538 469.212 568.538 471.589C568.538 473.907 568.538 476.226 568.538 478.545C569.698 478.545 570.886 478.545 572.103 478.545C573.379 478.545 574.596 478.545 575.756 478.545C577.553 478.545 579.002 477.878 580.103 476.545C581.263 475.212 581.843 473.56 581.843 471.589C581.843 469.56 581.234 467.878 580.016 466.545C578.799 465.212 577.089 464.545 574.886 464.545ZM648.375 510.023C648.375 509.559 648.375 509.124 648.375 508.719C648.375 508.255 648.375 507.82 648.375 507.414C646.925 508.632 645.273 509.559 643.418 510.197C641.621 510.893 639.679 511.24 637.592 511.24C634.636 511.24 631.853 510.69 629.244 509.588C626.636 508.429 624.317 506.806 622.288 504.719C620.317 502.574 618.752 500.052 617.592 497.154C616.491 494.255 615.94 491.038 615.94 487.501C615.94 483.907 616.491 480.661 617.592 477.762C618.752 474.864 620.317 472.4 622.288 470.371C624.317 468.284 626.636 466.69 629.244 465.589C631.853 464.429 634.607 463.849 637.505 463.849C639.592 463.849 641.563 464.197 643.418 464.893C645.273 465.531 646.925 466.429 648.375 467.589C648.375 467.125 648.375 466.69 648.375 466.284C648.375 465.878 648.375 465.473 648.375 465.067C650.751 465.067 653.157 465.067 655.592 465.067C658.027 465.067 660.403 465.067 662.722 465.067C662.722 472.487 662.722 479.994 662.722 487.588C662.722 495.125 662.722 502.603 662.722 510.023C660.403 510.023 658.027 510.023 655.592 510.023C653.157 510.023 650.751 510.023 648.375 510.023ZM639.505 498.545C642.288 498.545 644.519 497.53 646.201 495.501C647.882 493.472 648.722 490.806 648.722 487.501C648.722 484.197 647.882 481.559 646.201 479.588C644.519 477.559 642.288 476.545 639.505 476.545C636.665 476.545 634.404 477.531 632.723 479.501C631.099 481.472 630.288 484.139 630.288 487.501C630.288 490.864 631.099 493.559 632.723 495.588C634.404 497.559 636.665 498.545 639.505 498.545ZM722.297 496.11C722.297 499.704 721.283 502.661 719.254 504.98C717.283 507.24 714.616 508.893 711.254 509.936C707.891 510.979 704.123 511.414 699.949 511.24C695.834 511.124 691.631 510.458 687.341 509.24C687.341 507.037 687.341 504.777 687.341 502.458C687.341 500.139 687.341 497.878 687.341 495.675C689.776 496.777 692.21 497.646 694.645 498.284C697.08 498.864 699.283 499.211 701.254 499.327C703.225 499.443 704.819 499.298 706.036 498.893C707.254 498.429 707.862 497.675 707.862 496.632C707.862 495.82 707.341 495.183 706.297 494.719C705.312 494.255 704.007 493.849 702.384 493.501C700.761 493.096 699.022 492.632 697.167 492.11C695.37 491.53 693.66 490.748 692.036 489.762C690.413 488.719 689.08 487.356 688.037 485.675C687.051 483.936 686.558 481.704 686.558 478.98C686.558 475.733 687.486 472.98 689.341 470.719C691.254 468.4 693.805 466.661 696.993 465.502C700.181 464.284 703.747 463.676 707.688 463.676C711.63 463.676 715.659 464.342 719.775 465.676C719.775 467.878 719.775 470.139 719.775 472.458C719.775 474.777 719.775 477.038 719.775 479.241C716.529 477.675 713.486 476.632 710.645 476.11C707.804 475.588 705.515 475.531 703.775 475.936C702.036 476.284 701.167 477.067 701.167 478.284C701.167 479.096 701.66 479.733 702.645 480.197C703.689 480.603 704.993 480.98 706.558 481.328C708.181 481.675 709.891 482.139 711.688 482.719C713.544 483.299 715.254 484.11 716.819 485.154C718.442 486.139 719.746 487.53 720.732 489.327C721.775 491.067 722.297 493.327 722.297 496.11ZM778.794 496.11C778.794 499.704 777.78 502.661 775.751 504.98C773.78 507.24 771.113 508.893 767.751 509.936C764.389 510.979 760.621 511.414 756.447 511.24C752.331 511.124 748.128 510.458 743.838 509.24C743.838 507.037 743.838 504.777 743.838 502.458C743.838 500.139 743.838 497.878 743.838 495.675C746.273 496.777 748.708 497.646 751.143 498.284C753.577 498.864 755.78 499.211 757.751 499.327C759.722 499.443 761.316 499.298 762.534 498.893C763.751 498.429 764.36 497.675 764.36 496.632C764.36 495.82 763.838 495.183 762.795 494.719C761.809 494.255 760.505 493.849 758.882 493.501C757.258 493.096 755.519 492.632 753.664 492.11C751.867 491.53 750.157 490.748 748.534 489.762C746.911 488.719 745.577 487.356 744.534 485.675C743.548 483.936 743.056 481.704 743.056 478.98C743.056 475.733 743.983 472.98 745.838 470.719C747.751 468.4 750.302 466.661 753.49 465.502C756.679 464.284 760.244 463.676 764.186 463.676C768.128 463.676 772.157 464.342 776.273 465.676C776.273 467.878 776.273 470.139 776.273 472.458C776.273 474.777 776.273 477.038 776.273 479.241C773.026 477.675 769.983 476.632 767.142 476.11C764.302 475.588 762.012 475.531 760.273 475.936C758.534 476.284 757.664 477.067 757.664 478.284C757.664 479.096 758.157 479.733 759.143 480.197C760.186 480.603 761.49 480.98 763.056 481.328C764.679 481.675 766.389 482.139 768.186 482.719C770.041 483.299 771.751 484.11 773.316 485.154C774.939 486.139 776.244 487.53 777.229 489.327C778.273 491.067 778.794 493.327 778.794 496.11Z" fill="#036D33"/>
<path d="M131.355 412.42C135.245 399.854 139.134 387.138 143.024 374.272C146.988 361.406 150.915 348.69 154.805 336.124C159.218 336.124 163.669 336.124 168.157 336.124C172.72 336.124 177.208 336.124 181.621 336.124C185.511 348.69 189.4 361.406 193.29 374.272C197.254 387.138 201.181 399.854 205.071 412.42C201.855 412.42 198.563 412.42 195.197 412.42C191.906 412.42 188.615 412.42 185.324 412.42C184.576 410.027 183.865 407.633 183.192 405.24C182.519 402.771 181.808 400.34 181.06 397.946C176.796 397.946 172.495 397.946 168.157 397.946C163.893 397.946 159.63 397.946 155.366 397.946C154.618 400.34 153.907 402.771 153.234 405.24C152.561 407.633 151.85 410.027 151.102 412.42C147.886 412.42 144.595 412.42 141.229 412.42C137.937 412.42 134.646 412.42 131.355 412.42ZM160.303 381.229C162.921 381.229 165.539 381.229 168.157 381.229C170.85 381.229 173.505 381.229 176.123 381.229C174.852 376.815 173.543 372.365 172.196 367.877C170.85 363.389 169.541 358.938 168.269 354.525C166.997 358.938 165.651 363.389 164.23 367.877C162.883 372.365 161.574 376.815 160.303 381.229ZM212.389 412.42C212.389 399.854 212.389 387.138 212.389 374.272C212.389 361.406 212.389 348.69 212.389 336.124C217.027 336.124 221.665 336.124 226.302 336.124C231.015 336.124 235.652 336.124 240.215 336.124C245.975 336.124 250.987 337.246 255.25 339.49C259.514 341.659 262.842 344.726 265.236 348.69C267.63 352.655 268.827 357.292 268.827 362.603C268.827 367.839 267.63 372.439 265.236 376.404C262.917 380.368 259.701 383.435 255.587 385.604C251.548 387.774 246.947 388.858 241.786 388.858C240.14 388.858 238.495 388.858 236.849 388.858C235.278 388.858 233.67 388.858 232.025 388.858C232.025 392.748 232.025 396.675 232.025 400.639C232.025 404.604 232.025 408.531 232.025 412.42C228.808 412.42 225.554 412.42 222.263 412.42C218.972 412.42 215.681 412.42 212.389 412.42ZM240.215 353.739C238.869 353.739 237.485 353.739 236.064 353.739C234.717 353.739 233.371 353.739 232.025 353.739C232.025 356.731 232.025 359.761 232.025 362.828C232.025 365.82 232.025 368.812 232.025 371.804C233.521 371.804 235.054 371.804 236.625 371.804C238.27 371.804 239.841 371.804 241.337 371.804C243.656 371.804 245.526 370.943 246.947 369.223C248.443 367.503 249.191 365.371 249.191 362.828C249.191 360.21 248.406 358.04 246.835 356.32C245.264 354.6 243.058 353.739 240.215 353.739ZM295.164 412.42C299.054 399.854 302.943 387.138 306.833 374.272C310.797 361.406 314.724 348.69 318.614 336.124C323.027 336.124 327.478 336.124 331.966 336.124C336.529 336.124 341.017 336.124 345.43 336.124C349.32 348.69 353.209 361.406 357.099 374.272C361.063 387.138 364.99 399.854 368.88 412.42C365.663 412.42 362.372 412.42 359.006 412.42C355.715 412.42 352.424 412.42 349.133 412.42C348.385 410.027 347.674 407.633 347.001 405.24C346.328 402.771 345.617 400.34 344.869 397.946C340.605 397.946 336.304 397.946 331.966 397.946C327.702 397.946 323.439 397.946 319.175 397.946C318.427 400.34 317.716 402.771 317.043 405.24C316.37 407.633 315.659 410.027 314.911 412.42C311.695 412.42 308.404 412.42 305.038 412.42C301.746 412.42 298.455 412.42 295.164 412.42ZM324.112 381.229C326.73 381.229 329.348 381.229 331.966 381.229C334.659 381.229 337.314 381.229 339.932 381.229C338.66 376.815 337.351 372.365 336.005 367.877C334.659 363.389 333.35 358.938 332.078 354.525C330.806 358.938 329.46 363.389 328.039 367.877C326.692 372.365 325.383 376.815 324.112 381.229ZM419.396 394.468C419.396 399.106 418.087 402.921 415.469 405.913C412.925 408.83 409.485 410.962 405.146 412.308C400.808 413.655 395.946 414.216 390.56 413.991C385.249 413.842 379.826 412.981 374.291 411.411C374.291 408.568 374.291 405.651 374.291 402.659C374.291 399.667 374.291 396.75 374.291 393.907C377.433 395.328 380.574 396.45 383.716 397.273C386.857 398.021 389.7 398.47 392.243 398.62C394.786 398.769 396.843 398.582 398.414 398.059C399.985 397.46 400.77 396.488 400.77 395.141C400.77 394.094 400.097 393.271 398.751 392.673C397.479 392.075 395.796 391.551 393.702 391.102C391.607 390.579 389.363 389.98 386.97 389.307C384.651 388.559 382.444 387.549 380.35 386.278C378.255 384.931 376.535 383.173 375.189 381.004C373.917 378.76 373.281 375.88 373.281 372.365C373.281 368.176 374.478 364.623 376.872 361.706C379.34 358.714 382.631 356.47 386.745 354.974C390.859 353.403 395.46 352.617 400.546 352.617C405.632 352.617 410.831 353.478 416.142 355.198C416.142 358.04 416.142 360.958 416.142 363.95C416.142 366.942 416.142 369.859 416.142 372.701C411.953 370.682 408.026 369.335 404.361 368.662C400.696 367.989 397.741 367.914 395.497 368.438C393.253 368.886 392.131 369.896 392.131 371.467C392.131 372.514 392.767 373.337 394.038 373.935C395.385 374.459 397.068 374.945 399.087 375.394C401.182 375.843 403.388 376.441 405.707 377.189C408.101 377.937 410.307 378.985 412.327 380.331C414.422 381.603 416.105 383.398 417.376 385.717C418.723 387.961 419.396 390.878 419.396 394.468ZM472.1 394.468C472.1 399.106 470.79 402.921 468.172 405.913C465.629 408.83 462.188 410.962 457.85 412.308C453.512 413.655 448.65 414.216 443.264 413.991C437.953 413.842 432.53 412.981 426.995 411.411C426.995 408.568 426.995 405.651 426.995 402.659C426.995 399.667 426.995 396.75 426.995 393.907C430.136 395.328 433.278 396.45 436.42 397.273C439.561 398.021 442.404 398.47 444.947 398.62C447.49 398.769 449.547 398.582 451.118 398.059C452.689 397.46 453.474 396.488 453.474 395.141C453.474 394.094 452.801 393.271 451.455 392.673C450.183 392.075 448.5 391.551 446.406 391.102C444.311 390.579 442.067 389.98 439.673 389.307C437.355 388.559 435.148 387.549 433.054 386.278C430.959 384.931 429.239 383.173 427.892 381.004C426.621 378.76 425.985 375.88 425.985 372.365C425.985 368.176 427.182 364.623 429.575 361.706C432.044 358.714 435.335 356.47 439.449 354.974C443.563 353.403 448.163 352.617 453.25 352.617C458.336 352.617 463.535 353.478 468.846 355.198C468.846 358.04 468.846 360.958 468.846 363.95C468.846 366.942 468.846 369.859 468.846 372.701C464.657 370.682 460.73 369.335 457.065 368.662C453.399 367.989 450.445 367.914 448.201 368.438C445.957 368.886 444.835 369.896 444.835 371.467C444.835 372.514 445.47 373.337 446.742 373.935C448.089 374.459 449.772 374.945 451.791 375.394C453.886 375.843 456.092 376.441 458.411 377.189C460.805 377.937 463.011 378.985 465.031 380.331C467.125 381.603 468.808 383.398 470.08 385.717C471.426 387.961 472.1 390.878 472.1 394.468ZM530.961 409.728C525.8 411.897 520.676 413.243 515.59 413.767C510.503 414.29 505.679 413.991 501.116 412.869C496.628 411.822 492.626 409.989 489.11 407.371C485.595 404.753 482.827 401.425 480.807 397.385C478.863 393.346 477.89 388.671 477.89 383.36C477.89 378.947 478.601 374.908 480.022 371.243C481.518 367.503 483.612 364.249 486.305 361.481C488.998 358.639 492.177 356.47 495.842 354.974C499.507 353.403 503.509 352.617 507.848 352.617C511.737 352.617 515.253 353.253 518.395 354.525C521.536 355.796 524.266 357.592 526.585 359.91C528.904 362.154 530.774 364.847 532.195 367.989C533.617 371.13 534.514 374.571 534.888 378.311C535.262 382.051 535.038 386.016 534.215 390.205C528.081 390.205 521.91 390.205 515.702 390.205C509.493 390.205 503.322 390.205 497.189 390.205C498.61 393.047 500.966 395.067 504.257 396.263C507.623 397.46 511.588 397.834 516.151 397.385C520.788 396.937 525.725 395.74 530.961 393.795C530.961 396.413 530.961 399.069 530.961 401.761C530.961 404.454 530.961 407.11 530.961 409.728ZM507.399 369.223C505.23 369.223 503.21 369.821 501.34 371.018C499.545 372.215 498.161 374.048 497.189 376.516C500.555 376.516 503.921 376.516 507.287 376.516C510.728 376.516 514.131 376.516 517.497 376.516C516.599 373.973 515.253 372.14 513.458 371.018C511.737 369.821 509.718 369.223 507.399 369.223ZM544.693 412.42C544.693 402.846 544.693 393.197 544.693 383.473C544.693 373.674 544.693 363.987 544.693 354.413C547.759 354.413 550.864 354.413 554.005 354.413C557.147 354.413 560.214 354.413 563.206 354.413C563.206 354.936 563.206 355.422 563.206 355.871C563.206 356.32 563.206 356.806 563.206 357.33C565.151 355.909 567.32 354.824 569.713 354.076C572.107 353.253 574.575 352.842 577.119 352.842C579.886 352.842 582.43 353.328 584.748 354.3C587.067 355.198 589.049 356.544 590.695 358.34C593.089 356.619 595.781 355.273 598.773 354.3C601.84 353.328 604.982 352.842 608.198 352.842C612.761 352.842 616.688 353.777 619.979 355.647C623.345 357.517 625.926 360.172 627.721 363.613C629.591 367.054 630.526 371.205 630.526 376.067C630.526 382.051 630.526 388.11 630.526 394.244C630.526 400.378 630.526 406.436 630.526 412.42C627.534 412.42 624.467 412.42 621.326 412.42C618.184 412.42 615.08 412.42 612.013 412.42C612.013 406.81 612.013 401.126 612.013 395.366C612.013 389.606 612.013 383.921 612.013 378.311C612.013 375.768 611.415 373.711 610.218 372.14C609.096 370.495 607.263 369.672 604.72 369.672C602.252 369.672 600.307 370.457 598.886 372.028C597.539 373.524 596.866 375.619 596.866 378.311C596.866 383.921 596.866 389.606 596.866 395.366C596.866 401.126 596.866 406.81 596.866 412.42C593.874 412.42 590.807 412.42 587.666 412.42C584.524 412.42 581.42 412.42 578.353 412.42C578.353 406.81 578.353 401.126 578.353 395.366C578.353 389.606 578.353 383.921 578.353 378.311C578.353 375.768 577.754 373.711 576.558 372.14C575.436 370.495 573.603 369.672 571.06 369.672C568.591 369.672 566.647 370.457 565.225 372.028C563.879 373.524 563.206 375.619 563.206 378.311C563.206 383.921 563.206 389.606 563.206 395.366C563.206 401.126 563.206 406.81 563.206 412.42C560.214 412.42 557.147 412.42 554.005 412.42C550.864 412.42 547.759 412.42 544.693 412.42ZM660.518 412.42C657.526 412.42 654.459 412.42 651.318 412.42C648.176 412.42 645.072 412.42 642.005 412.42C642.005 398.882 642.005 385.23 642.005 371.467C642.005 357.704 642.005 344.053 642.005 330.514C645.072 330.514 648.176 330.514 651.318 330.514C654.459 330.514 657.526 330.514 660.518 330.514C660.518 335.002 660.518 339.527 660.518 344.09C660.518 348.653 660.518 353.178 660.518 357.666C662.388 356.17 664.52 355.011 666.914 354.188C669.307 353.291 671.85 352.842 674.543 352.842C678.283 352.842 681.836 353.59 685.202 355.086C688.568 356.507 691.523 358.564 694.066 361.257C696.684 363.95 698.704 367.166 700.125 370.906C701.621 374.646 702.369 378.798 702.369 383.36C702.369 387.848 701.621 391.962 700.125 395.702C698.704 399.443 696.684 402.696 694.066 405.464C691.523 408.157 688.568 410.251 685.202 411.747C681.836 413.243 678.246 413.991 674.431 413.991C671.738 413.991 669.195 413.542 666.801 412.645C664.483 411.822 662.388 410.625 660.518 409.054C660.518 409.578 660.518 410.139 660.518 410.737C660.518 411.261 660.518 411.822 660.518 412.42ZM671.963 397.61C675.628 397.61 678.508 396.338 680.602 393.795C682.771 391.177 683.856 387.699 683.856 383.36C683.856 379.022 682.771 375.581 680.602 373.038C678.508 370.495 675.628 369.223 671.963 369.223C668.372 369.223 665.492 370.532 663.323 373.15C661.154 375.693 660.069 379.097 660.069 383.36C660.069 387.624 661.154 391.065 663.323 393.683C665.492 396.301 668.372 397.61 671.963 397.61ZM712.131 412.42C712.131 398.882 712.131 385.23 712.131 371.467C712.131 357.704 712.131 344.053 712.131 330.514C715.197 330.514 718.302 330.514 721.443 330.514C724.585 330.514 727.652 330.514 730.644 330.514C730.644 344.053 730.644 357.704 730.644 371.467C730.644 385.23 730.644 398.882 730.644 412.42C727.652 412.42 724.585 412.42 721.443 412.42C718.302 412.42 715.197 412.42 712.131 412.42ZM748.95 430.373C750.446 426.408 751.979 422.406 753.55 418.367C755.196 414.403 756.767 410.476 758.263 406.586C754.747 397.984 751.157 389.307 747.491 380.555C743.901 371.729 740.348 363.015 736.832 354.413C740.123 354.413 743.415 354.413 746.706 354.413C749.997 354.413 753.251 354.413 756.467 354.413C758.412 359.2 760.357 364.062 762.302 368.999C764.321 373.935 766.304 378.835 768.248 383.697C770.044 378.835 771.876 373.935 773.746 368.999C775.616 364.062 777.449 359.2 779.244 354.413C782.461 354.413 785.677 354.413 788.893 354.413C792.11 354.413 795.326 354.413 798.543 354.413C793.531 366.904 788.482 379.583 783.396 392.449C778.384 405.24 773.372 417.881 768.361 430.373C765.144 430.373 761.89 430.373 758.599 430.373C755.383 430.373 752.166 430.373 748.95 430.373Z" fill="#111827"/>
</svg>
