<svg width="20" height="20" viewBox="0 0 20 20" fill="none" xmlns="http://www.w3.org/2000/svg">
<path d="M12.0834 3.33398H7.91675L5.83341 5.83398H3.33341C2.89139 5.83398 2.46746 6.00958 2.1549 6.32214C1.84234 6.6347 1.66675 7.05862 1.66675 7.50065V15.0007C1.66675 15.4427 1.84234 15.8666 2.1549 16.1792C2.46746 16.4917 2.89139 16.6673 3.33341 16.6673H16.6667C17.1088 16.6673 17.5327 16.4917 17.8453 16.1792C18.1578 15.8666 18.3334 15.4427 18.3334 15.0007V7.50065C18.3334 7.05862 18.1578 6.6347 17.8453 6.32214C17.5327 6.00958 17.1088 5.83398 16.6667 5.83398H14.1667L12.0834 3.33398Z" stroke="white" stroke-width="2" stroke-linecap="round" stroke-linejoin="round"/>
<path d="M10 13.334C11.3807 13.334 12.5 12.2147 12.5 10.834C12.5 9.45327 11.3807 8.33398 10 8.33398C8.61929 8.33398 7.5 9.45327 7.5 10.834C7.5 12.2147 8.61929 13.334 10 13.334Z" stroke="white" stroke-width="2" stroke-linecap="round" stroke-linejoin="round"/>
</svg>
