<svg width="177" height="125" viewBox="0 0 177 125" fill="none" xmlns="http://www.w3.org/2000/svg">
<path d="M88.5001 56.278C101.075 56.278 112.645 58.0644 121.813 61.0586C113.699 56.5257 101.783 53.6631 88.5001 53.6631C75.2171 53.6631 63.301 56.5257 55.1869 61.0586C64.3556 58.0643 75.9248 56.278 88.5001 56.278Z" fill="#CDA349"/>
<path d="M88.5001 25.7636C95.0692 25.7636 100.442 28.4307 100.866 31.8028C100.886 31.6556 100.896 31.5072 100.896 31.3573C100.896 27.7844 95.3465 24.8881 88.5001 24.8881C86.0963 24.8881 83.8529 25.2456 81.9529 25.8636C83.9707 25.1201 86.4317 24.6824 89.0899 24.6824C92.285 24.6824 95.1973 25.3136 97.3954 26.3497C96.6964 22.1413 92.3938 18.7497 88.7564 18.5956C88.8451 18.5917 88.9335 18.5895 89.0215 18.5895C89.5446 18.5895 90.0841 18.6612 90.6265 18.7928C90.5362 18.4433 90.2216 18.1839 89.8438 18.1839H89.7951V15.3952L89.0342 15.2758H89.8525C90.0258 15.2758 90.1661 15.1354 90.1661 14.9622C90.1661 14.8386 90.0944 14.732 89.9905 14.6809C89.8585 14.0794 89.2959 13.5884 88.7557 13.4644C88.7709 13.4252 88.7795 13.3829 88.7795 13.3384C88.7795 13.2181 88.7186 13.1119 88.6258 13.0492C88.6106 12.6151 88.529 10.8384 88.4306 10.8384C88.3322 10.8384 88.2507 12.6151 88.2354 13.0492C88.1427 13.1119 88.0817 13.2181 88.0817 13.3384C88.0817 13.3963 88.0961 13.4508 88.121 13.4989C87.6211 13.6637 87.1317 14.1253 87.0097 14.6809C86.9058 14.732 86.8341 14.8386 86.8341 14.9622C86.8341 15.1354 86.9745 15.2758 87.1476 15.2758H87.205V18.1838H87.1563C86.7255 18.1838 86.374 18.5199 86.3476 18.9442C83.0849 19.9794 79.8683 23.1633 79.533 26.8906C77.4084 28.0518 76.1035 29.6251 76.1035 31.3574C76.1035 31.5073 76.1144 31.6557 76.1337 31.8029C76.5583 28.4308 81.9306 25.7638 88.4998 25.7638L88.5001 25.7636ZM89.0898 15.7264C89.0898 15.6303 89.1676 15.5526 89.2636 15.5526C89.3595 15.5526 89.4373 15.6304 89.4373 15.7264V18.0528H89.0898V15.7264ZM88.3263 15.4057C88.3263 15.3538 88.3494 15.3077 88.3854 15.2759H88.6146C88.6507 15.3077 88.6738 15.3538 88.6738 15.4057V18.0528H88.3261L88.3263 15.4057ZM87.5627 15.7264C87.5627 15.6303 87.6406 15.5526 87.7365 15.5526C87.8324 15.5526 87.9103 15.6304 87.9103 15.7264V18.0528H87.5626L87.5627 15.7264ZM88.5001 38.4861C79.313 38.4861 71.8655 42.3728 71.8655 47.1672C71.8655 47.7893 71.9929 48.3957 72.2313 48.9807L72.4912 47.0335V48.5329C72.493 48.5295 72.495 48.5261 72.4968 48.5226C72.4931 48.6607 72.4912 48.801 72.4912 48.9438V55.123C73.0184 55.023 73.5505 54.9277 74.0872 54.8374V48.2848C74.0872 47.7307 74.5365 47.2815 75.0906 47.2815C75.6448 47.2815 76.094 47.7307 76.094 48.2848V54.5255C76.5396 54.462 76.9883 54.4019 77.4396 54.3451V46.2765C77.4396 45.7224 77.8889 45.2731 78.443 45.2731C78.9971 45.2731 79.4464 45.7224 79.4464 46.2765V54.1165C79.8924 54.0711 80.3412 54.0295 80.792 53.9907V45.3727C80.792 44.8185 81.2412 44.3693 81.7954 44.3693C82.3495 44.3693 82.7987 44.8185 82.7987 45.3727V53.8414C83.2453 53.8133 83.6938 53.7882 84.1444 53.7667V44.7579C84.1444 44.2037 84.5936 43.7545 85.1478 43.7545C85.7019 43.7545 86.1511 44.2037 86.1511 44.7579V53.6934C86.5979 53.6819 87.0465 53.6739 87.4968 53.669V44.4667C87.4968 43.9126 87.946 43.4633 88.5001 43.4633C89.0543 43.4633 89.5035 43.9126 89.5035 44.4667V53.669C89.9537 53.6738 90.4024 53.6819 90.8492 53.6934V44.7579C90.8492 44.2037 91.2984 43.7545 91.8525 43.7545C92.4067 43.7545 92.8559 44.2037 92.8559 44.7579V53.7667C93.3066 53.7883 93.755 53.8133 94.2015 53.8414V45.3727C94.2015 44.8185 94.6508 44.3693 95.2049 44.3693C95.7591 44.3693 96.2083 44.8185 96.2083 45.3727V53.9907C96.6592 54.0295 97.1079 54.0711 97.5539 54.1165V46.2765C97.5539 45.7224 98.0032 45.2731 98.5573 45.2731C99.1114 45.2731 99.5607 45.7224 99.5607 46.2765V54.3451C100.012 54.402 100.461 54.4621 100.906 54.5255V48.2848C100.906 47.7307 101.356 47.2815 101.91 47.2815C102.464 47.2815 102.913 47.7307 102.913 48.2848V54.8374C103.45 54.9278 103.982 55.023 104.509 55.123V48.9438C104.509 48.8009 104.507 48.6606 104.503 48.5226C104.505 48.5261 104.507 48.5295 104.509 48.5329V47.0335L104.769 48.9807C105.007 48.3957 105.135 47.7893 105.135 47.1672C105.135 42.3728 97.6872 38.4861 88.5001 38.4861ZM99.7869 38.1843V33.984C99.7869 33.8833 99.7855 33.7843 99.7829 33.6869C99.7842 33.6894 99.7856 33.6918 99.7869 33.6942V32.6371L99.9701 34.01C100.138 33.5975 100.228 33.1699 100.228 32.7314C100.228 29.3511 94.9772 26.611 88.5 26.611C82.0229 26.611 76.772 29.3513 76.772 32.7314C76.772 33.1699 76.8618 33.5975 77.0298 34.01L77.2131 32.6371V33.6942C77.2144 33.6917 77.2157 33.6894 77.2171 33.6869C77.2145 33.7843 77.2131 33.8831 77.2131 33.984V38.1843C73.3655 39.8675 70.9172 42.3933 70.9172 45.2184C70.9172 45.4309 70.9327 45.6415 70.9601 45.8503C71.2844 43.2738 73.6474 40.9888 77.2129 39.4277C77.5764 39.2686 77.9504 39.1156 78.3382 38.972C78.794 38.8032 79.2665 38.6458 79.753 38.4997C80.0628 38.4067 80.3804 38.3201 80.7018 38.2369C81.1625 38.1176 81.6341 38.0083 82.1167 37.9101C82.4286 37.8466 82.7452 37.7882 83.0654 37.7338C83.5291 37.6552 84.0005 37.5859 84.4803 37.5273C84.7934 37.4891 85.1098 37.4557 85.429 37.4264C85.895 37.3835 86.366 37.3485 86.8439 37.3253C87.1576 37.31 87.4743 37.2998 87.7927 37.2933C88.0276 37.2884 88.2629 37.2843 88.5 37.2843C88.7372 37.2843 88.9725 37.2884 89.2074 37.2933C89.5258 37.2999 89.8423 37.31 90.1562 37.3253C90.634 37.3487 91.1051 37.3836 91.571 37.4264C91.8903 37.4557 92.2067 37.4891 92.5198 37.5273C92.9995 37.5859 93.4709 37.6552 93.9346 37.7338C94.2549 37.7882 94.5715 37.8465 94.8834 37.9101C95.366 38.0083 95.8375 38.1176 96.2983 38.2369C96.6197 38.3201 96.9371 38.4067 97.247 38.4997C97.7335 38.6458 98.206 38.803 98.6619 38.972C99.0497 39.1157 99.4235 39.2686 99.7871 39.4277C103.353 40.9888 105.716 43.2738 106.04 45.8503C106.067 45.6415 106.083 45.431 106.083 45.2184C106.083 42.3933 103.635 39.8675 99.7869 38.1843ZM79.7533 37.2598C79.2664 37.4058 78.7945 37.5636 78.3384 37.7325V33.5194C78.3384 33.1287 78.6552 32.812 79.0458 32.812C79.4364 32.812 79.7531 33.1288 79.7531 33.5194L79.7533 37.2598ZM82.1169 36.6688C81.6347 36.7669 81.1625 36.8751 80.702 36.9942V32.1034C80.702 31.7127 81.0187 31.3961 81.4094 31.3961C81.8001 31.3961 82.1168 31.7127 82.1168 32.1034L82.1169 36.6688ZM84.4804 36.2863C84.0011 36.3448 83.5289 36.4129 83.0655 36.4914V31.4662C83.0655 31.0755 83.3822 30.7588 83.7729 30.7588C84.1636 30.7588 84.4803 31.0755 84.4803 31.4662L84.4804 36.2863ZM86.844 36.0843C86.3663 36.1076 85.895 36.1421 85.4292 36.185V31.0328C85.4292 30.6421 85.7459 30.3254 86.1365 30.3254C86.5271 30.3254 86.8439 30.6421 86.8439 31.0328V36.0843H86.844ZM89.2075 36.0519C88.9725 36.047 88.7374 36.0425 88.5001 36.0425C88.2629 36.0425 88.0277 36.047 87.7928 36.0519V30.8274C87.7928 30.4367 88.1094 30.1201 88.5001 30.1201C88.8908 30.1201 89.2075 30.4367 89.2075 30.8274V36.0519ZM91.571 36.185C91.1052 36.1422 90.6339 36.1077 90.1562 36.0843V31.0328C90.1562 30.6421 90.4728 30.3254 90.8635 30.3254C91.2542 30.3254 91.5709 30.6421 91.5709 31.0328L91.571 36.185ZM93.9346 36.4914C93.4713 36.4129 92.9991 36.3448 92.5198 36.2863V31.4662C92.5198 31.0755 92.8365 30.7588 93.2272 30.7588C93.6179 30.7588 93.9345 31.0755 93.9345 31.4662L93.9346 36.4914ZM96.2982 36.9942C95.8377 36.8751 95.3655 36.767 94.8833 36.6688V32.1034C94.8833 31.7127 95.2 31.3961 95.5907 31.3961C95.9814 31.3961 96.298 31.7127 96.298 32.1034V36.9942H96.2982ZM98.6618 37.7325C98.2057 37.5636 97.7338 37.4058 97.2469 37.2598V33.5194C97.2469 33.1287 97.5636 32.812 97.9543 32.812C98.345 32.812 98.6617 33.1287 98.6617 33.5194L98.6618 37.7325Z" fill="#036D33"/>
<path d="M88.5475 0L89.6169 3.2915H93.0777L90.2779 5.32565L91.3473 8.61703L88.5475 6.58289L85.7475 8.61703L86.8171 5.32565L84.0172 3.2915H87.4779L88.5475 0Z" fill="#CDA349"/>
<path d="M71.9127 6.99561L72.5965 9.09996H74.8092L73.0191 10.4005L73.7029 12.5048L71.9127 11.2043L70.1227 12.5048L70.8065 10.4005L69.0163 9.09996H71.2291L71.9127 6.99561Z" fill="#CDA349"/>
<path d="M61.1861 17.6538L61.592 18.9036H62.9061L61.843 19.6759L62.2491 20.9257L61.1861 20.1534L60.1229 20.9257L60.529 19.6759L59.4659 18.9036H60.78L61.1861 17.6538Z" fill="#CDA349"/>
<path d="M105.087 6.99561L104.404 9.09996H102.191L103.981 10.4005L103.297 12.5049L105.087 11.2043L106.877 12.5049L106.194 10.4005L107.984 9.09996H105.771L105.087 6.99561Z" fill="#CDA349"/>
<path d="M115.813 17.6538L115.407 18.9035H114.093L115.157 19.6758L114.75 20.9255L115.813 20.1532L116.877 20.9255L116.47 19.6758L117.534 18.9035H116.22L115.813 17.6538Z" fill="#CDA349"/>
<path d="M5.26295 107.456C5.26295 105.279 5.26295 103.077 5.26295 100.849C5.26295 98.6208 5.26295 96.4185 5.26295 94.2422C6.0402 94.2422 6.82393 94.2422 7.61414 94.2422C8.40435 94.2422 9.18808 94.2422 9.96534 94.2422C10.924 94.2422 11.8048 94.4106 12.608 94.7474C13.4112 95.0713 14.1107 95.5312 14.7066 96.1271C15.3025 96.723 15.7624 97.4225 16.0862 98.2257C16.423 99.0159 16.5914 99.8838 16.5914 100.829C16.5914 101.775 16.423 102.65 16.0862 103.453C15.7624 104.256 15.3025 104.962 14.7066 105.571C14.1107 106.167 13.4112 106.633 12.608 106.97C11.8048 107.294 10.924 107.456 9.96534 107.456C9.18808 107.456 8.40435 107.456 7.61414 107.456C6.82393 107.456 6.0402 107.456 5.26295 107.456ZM9.96534 97.3124C9.75807 97.3124 9.54433 97.3124 9.3241 97.3124C9.10388 97.3124 8.88366 97.3124 8.66344 97.3124C8.66344 98.4783 8.66344 99.6571 8.66344 100.849C8.66344 102.041 8.66344 103.22 8.66344 104.385C8.88366 104.385 9.10388 104.385 9.3241 104.385C9.54433 104.385 9.75807 104.385 9.96534 104.385C10.6131 104.385 11.1766 104.23 11.6559 103.919C12.1352 103.608 12.5044 103.187 12.7635 102.656C13.0225 102.112 13.1521 101.503 13.1521 100.829C13.1521 100.156 13.0225 99.5535 12.7635 99.0224C12.5044 98.4912 12.1352 98.0767 11.6559 97.7787C11.1766 97.4678 10.6131 97.3124 9.96534 97.3124ZM23.4645 96.2631C23.0889 96.2631 22.7456 96.1724 22.4347 95.9911C22.1367 95.8097 21.8971 95.57 21.7157 95.2721C21.5343 94.9741 21.4437 94.6438 21.4437 94.2811C21.4437 93.9184 21.5343 93.5945 21.7157 93.3095C21.8971 93.0116 22.1367 92.7719 22.4347 92.5906C22.7456 92.4092 23.0889 92.3185 23.4645 92.3185C23.8272 92.3185 24.1576 92.4092 24.4555 92.5906C24.7664 92.7719 25.0126 93.0116 25.1939 93.3095C25.3753 93.5945 25.466 93.9184 25.466 94.2811C25.466 94.6438 25.3753 94.9741 25.1939 95.2721C25.0126 95.57 24.7664 95.8097 24.4555 95.9911C24.1576 96.1724 23.8272 96.2631 23.4645 96.2631ZM21.8517 107.456C21.8517 105.797 21.8517 104.126 21.8517 102.442C21.8517 100.745 21.8517 99.0677 21.8517 97.4095C22.3828 97.4095 22.9204 97.4095 23.4645 97.4095C24.0086 97.4095 24.5397 97.4095 25.0579 97.4095C25.0579 99.0677 25.0579 100.745 25.0579 102.442C25.0579 104.126 25.0579 105.797 25.0579 107.456C24.5397 107.456 24.0086 107.456 23.4645 107.456C22.9204 107.456 22.3828 107.456 21.8517 107.456ZM40.2368 105.823C40.2368 106.924 39.9972 107.844 39.5179 108.583C39.0515 109.321 38.4103 109.872 37.5942 110.234C36.778 110.61 35.8453 110.804 34.796 110.817C33.7597 110.83 32.6651 110.675 31.5121 110.351C31.5121 109.846 31.5121 109.334 31.5121 108.816C31.5121 108.311 31.5121 107.805 31.5121 107.3C32.5355 107.702 33.4618 107.902 34.2908 107.902C35.1199 107.915 35.7741 107.76 36.2534 107.436C36.7457 107.099 36.9918 106.639 36.9918 106.057C36.9918 105.992 36.9918 105.933 36.9918 105.882C36.9918 105.817 36.9918 105.759 36.9918 105.707C36.6679 105.953 36.2923 106.147 35.8648 106.29C35.4373 106.432 34.9774 106.503 34.4851 106.503C33.669 106.503 32.9371 106.316 32.2894 105.94C31.6546 105.551 31.1559 105.02 30.7932 104.347C30.4305 103.66 30.2491 102.863 30.2491 101.956C30.2491 101.257 30.3657 100.616 30.5989 100.033C30.832 99.4498 31.1559 98.9446 31.5704 98.5171C31.985 98.0896 32.4578 97.7658 32.9889 97.5456C33.5201 97.3124 34.0771 97.1958 34.66 97.1958C35.1264 97.1958 35.5603 97.2606 35.9619 97.3901C36.3635 97.5197 36.7198 97.6945 37.0307 97.9148C37.0307 97.8241 37.0307 97.7399 37.0307 97.6622C37.0307 97.5844 37.0307 97.5002 37.0307 97.4095C37.5618 97.4095 38.0994 97.4095 38.6435 97.4095C39.1875 97.4095 39.7187 97.4095 40.2368 97.4095C40.2368 98.7957 40.2368 100.201 40.2368 101.626C40.2368 103.038 40.2368 104.437 40.2368 105.823ZM35.2818 103.725C35.8259 103.725 36.2599 103.556 36.5837 103.22C36.9205 102.87 37.0889 102.423 37.0889 101.879C37.0889 101.322 36.9205 100.868 36.5837 100.519C36.2599 100.169 35.8259 99.9939 35.2818 99.9939C34.7118 99.9939 34.2584 100.169 33.9216 100.519C33.5848 100.855 33.4164 101.309 33.4164 101.879C33.4164 102.436 33.5848 102.883 33.9216 103.22C34.2584 103.556 34.7118 103.725 35.2818 103.725ZM47.5761 96.2631C47.2004 96.2631 46.8572 96.1724 46.5463 95.9911C46.2483 95.8097 46.0087 95.57 45.8273 95.2721C45.6459 94.9741 45.5553 94.6438 45.5553 94.2811C45.5553 93.9184 45.6459 93.5945 45.8273 93.3095C46.0087 93.0116 46.2483 92.7719 46.5463 92.5906C46.8572 92.4092 47.2004 92.3185 47.5761 92.3185C47.9388 92.3185 48.2692 92.4092 48.5671 92.5906C48.878 92.7719 49.1242 93.0116 49.3055 93.3095C49.4869 93.5945 49.5776 93.9184 49.5776 94.2811C49.5776 94.6438 49.4869 94.9741 49.3055 95.2721C49.1242 95.57 48.878 95.8097 48.5671 95.9911C48.2692 96.1724 47.9388 96.2631 47.5761 96.2631ZM45.9633 107.456C45.9633 105.797 45.9633 104.126 45.9633 102.442C45.9633 100.745 45.9633 99.0677 45.9633 97.4095C46.4944 97.4095 47.032 97.4095 47.5761 97.4095C48.1202 97.4095 48.6513 97.4095 49.1695 97.4095C49.1695 99.0677 49.1695 100.745 49.1695 102.442C49.1695 104.126 49.1695 105.797 49.1695 107.456C48.6513 107.456 48.1202 107.456 47.5761 107.456C47.032 107.456 46.4944 107.456 45.9633 107.456ZM55.9541 107.456C55.9541 106.264 55.9541 105.066 55.9541 103.861C55.9541 102.656 55.9541 101.464 55.9541 100.285C55.695 100.285 55.4294 100.285 55.1574 100.285C54.8983 100.285 54.6392 100.285 54.3801 100.285C54.3801 99.8061 54.3801 99.3268 54.3801 98.8475C54.3801 98.3682 54.3801 97.8889 54.3801 97.4095C54.6392 97.4095 54.8983 97.4095 55.1574 97.4095C55.4294 97.4095 55.695 97.4095 55.9541 97.4095C55.9541 96.9561 55.9541 96.5092 55.9541 96.0688C55.9541 95.6154 55.9541 95.1685 55.9541 94.728C56.4852 94.728 57.0228 94.728 57.5669 94.728C58.111 94.728 58.6421 94.728 59.1603 94.728C59.1603 95.1685 59.1603 95.6154 59.1603 96.0688C59.1603 96.5092 59.1603 96.9561 59.1603 97.4095C59.4582 97.4095 59.7626 97.4095 60.0735 97.4095C60.3844 97.4095 60.6889 97.4095 60.9868 97.4095C60.9868 97.8889 60.9868 98.3682 60.9868 98.8475C60.9868 99.3268 60.9868 99.8061 60.9868 100.285C60.6889 100.285 60.3844 100.285 60.0735 100.285C59.7626 100.285 59.4582 100.285 59.1603 100.285C59.1603 101.464 59.1603 102.656 59.1603 103.861C59.1603 105.066 59.1603 106.264 59.1603 107.456C58.6421 107.456 58.111 107.456 57.5669 107.456C57.0228 107.456 56.4852 107.456 55.9541 107.456ZM72.6397 107.456C72.6397 107.352 72.6397 107.255 72.6397 107.164C72.6397 107.06 72.6397 106.963 72.6397 106.873C72.3158 107.145 71.9467 107.352 71.5321 107.494C71.1305 107.65 70.6966 107.728 70.2302 107.728C69.5695 107.728 68.9477 107.605 68.3648 107.358C67.7819 107.099 67.2637 106.737 66.8103 106.27C66.3698 105.791 66.0201 105.227 65.761 104.58C65.5149 103.932 65.3918 103.213 65.3918 102.423C65.3918 101.62 65.5149 100.894 65.761 100.247C66.0201 99.5988 66.3698 99.0483 66.8103 98.5949C67.2637 98.1285 67.7819 97.7723 68.3648 97.5261C68.9477 97.2671 69.5631 97.1375 70.2108 97.1375C70.6771 97.1375 71.1176 97.2152 71.5321 97.3707C71.9467 97.5132 72.3158 97.714 72.6397 97.9731C72.6397 97.8694 72.6397 97.7723 72.6397 97.6816C72.6397 97.5909 72.6397 97.5002 72.6397 97.4095C73.1708 97.4095 73.7084 97.4095 74.2525 97.4095C74.7966 97.4095 75.3277 97.4095 75.8459 97.4095C75.8459 99.0677 75.8459 100.745 75.8459 102.442C75.8459 104.126 75.8459 105.797 75.8459 107.456C75.3277 107.456 74.7966 107.456 74.2525 107.456C73.7084 107.456 73.1708 107.456 72.6397 107.456ZM70.6577 104.891C71.2795 104.891 71.7782 104.664 72.1539 104.211C72.5296 103.757 72.7174 103.161 72.7174 102.423C72.7174 101.684 72.5296 101.095 72.1539 100.655C71.7782 100.201 71.2795 99.9745 70.6577 99.9745C70.0229 99.9745 69.5177 100.195 69.1421 100.635C68.7793 101.076 68.598 101.671 68.598 102.423C68.598 103.174 68.7793 103.777 69.1421 104.23C69.5177 104.67 70.0229 104.891 70.6577 104.891ZM81.5804 107.456C81.5804 105.111 81.5804 102.747 81.5804 100.363C81.5804 97.9795 81.5804 95.6154 81.5804 93.2707C82.1115 93.2707 82.6491 93.2707 83.1932 93.2707C83.7373 93.2707 84.2684 93.2707 84.7866 93.2707C84.7866 95.6154 84.7866 97.9795 84.7866 100.363C84.7866 102.747 84.7866 105.111 84.7866 107.456C84.2684 107.456 83.7373 107.456 83.1932 107.456C82.6491 107.456 82.1115 107.456 81.5804 107.456ZM98.2937 107.456C98.2937 105.279 98.2937 103.077 98.2937 100.849C98.2937 98.6208 98.2937 96.4185 98.2937 94.2422C99.0968 94.2422 99.9 94.2422 100.703 94.2422C101.519 94.2422 102.322 94.2422 103.113 94.2422C104.11 94.2422 104.978 94.4365 105.716 94.8252C106.455 95.2008 107.031 95.732 107.446 96.4185C107.86 97.1051 108.068 97.9083 108.068 98.828C108.068 99.7348 107.86 100.532 107.446 101.218C107.044 101.905 106.487 102.436 105.775 102.811C105.075 103.187 104.279 103.375 103.385 103.375C103.1 103.375 102.815 103.375 102.53 103.375C102.258 103.375 101.979 103.375 101.694 103.375C101.694 104.049 101.694 104.729 101.694 105.415C101.694 106.102 101.694 106.782 101.694 107.456C101.137 107.456 100.574 107.456 100.004 107.456C99.4336 107.456 98.8637 107.456 98.2937 107.456ZM103.113 97.293C102.879 97.293 102.64 97.293 102.394 97.293C102.161 97.293 101.927 97.293 101.694 97.293C101.694 97.8111 101.694 98.3358 101.694 98.8669C101.694 99.3851 101.694 99.9032 101.694 100.421C101.953 100.421 102.219 100.421 102.491 100.421C102.776 100.421 103.048 100.421 103.307 100.421C103.709 100.421 104.032 100.272 104.279 99.9745C104.538 99.6765 104.667 99.3073 104.667 98.8669C104.667 98.4135 104.531 98.0378 104.259 97.7399C103.987 97.4419 103.605 97.293 103.113 97.293ZM119.535 107.456C119.535 107.352 119.535 107.255 119.535 107.164C119.535 107.06 119.535 106.963 119.535 106.873C119.211 107.145 118.842 107.352 118.427 107.494C118.025 107.65 117.591 107.728 117.125 107.728C116.464 107.728 115.843 107.605 115.26 107.358C114.677 107.099 114.159 106.737 113.705 106.27C113.265 105.791 112.915 105.227 112.656 104.58C112.41 103.932 112.287 103.213 112.287 102.423C112.287 101.62 112.41 100.894 112.656 100.247C112.915 99.5988 113.265 99.0483 113.705 98.5949C114.159 98.1285 114.677 97.7723 115.26 97.5261C115.843 97.2671 116.458 97.1375 117.106 97.1375C117.572 97.1375 118.012 97.2152 118.427 97.3707C118.842 97.5132 119.211 97.714 119.535 97.9731C119.535 97.8694 119.535 97.7723 119.535 97.6816C119.535 97.5909 119.535 97.5002 119.535 97.4095C120.066 97.4095 120.603 97.4095 121.147 97.4095C121.691 97.4095 122.223 97.4095 122.741 97.4095C122.741 99.0677 122.741 100.745 122.741 102.442C122.741 104.126 122.741 105.797 122.741 107.456C122.223 107.456 121.691 107.456 121.147 107.456C120.603 107.456 120.066 107.456 119.535 107.456ZM117.553 104.891C118.174 104.891 118.673 104.664 119.049 104.211C119.424 103.757 119.612 103.161 119.612 102.423C119.612 101.684 119.424 101.095 119.049 100.655C118.673 100.201 118.174 99.9745 117.553 99.9745C116.918 99.9745 116.413 100.195 116.037 100.635C115.674 101.076 115.493 101.671 115.493 102.423C115.493 103.174 115.674 103.777 116.037 104.23C116.413 104.67 116.918 104.891 117.553 104.891ZM136.054 104.347C136.054 105.15 135.827 105.81 135.373 106.329C134.933 106.834 134.337 107.203 133.586 107.436C132.834 107.669 131.992 107.766 131.06 107.728C130.14 107.702 129.201 107.553 128.242 107.281C128.242 106.788 128.242 106.283 128.242 105.765C128.242 105.247 128.242 104.742 128.242 104.249C128.786 104.496 129.33 104.69 129.874 104.832C130.418 104.962 130.911 105.04 131.351 105.066C131.792 105.091 132.148 105.059 132.42 104.968C132.692 104.865 132.828 104.696 132.828 104.463C132.828 104.282 132.711 104.139 132.478 104.036C132.258 103.932 131.966 103.841 131.604 103.764C131.241 103.673 130.852 103.569 130.438 103.453C130.036 103.323 129.654 103.148 129.291 102.928C128.929 102.695 128.631 102.39 128.398 102.015C128.177 101.626 128.067 101.127 128.067 100.519C128.067 99.7931 128.275 99.1778 128.689 98.6726C129.117 98.1544 129.687 97.7658 130.399 97.5067C131.111 97.2347 131.908 97.0986 132.789 97.0986C133.67 97.0986 134.57 97.2476 135.49 97.5456C135.49 98.0378 135.49 98.543 135.49 99.0612C135.49 99.5794 135.49 100.085 135.49 100.577C134.765 100.227 134.084 99.9939 133.45 99.8773C132.815 99.7607 132.303 99.7478 131.915 99.8385C131.526 99.9162 131.332 100.091 131.332 100.363C131.332 100.544 131.442 100.687 131.662 100.791C131.895 100.881 132.187 100.965 132.536 101.043C132.899 101.121 133.281 101.225 133.683 101.354C134.097 101.484 134.48 101.665 134.829 101.898C135.192 102.118 135.484 102.429 135.704 102.831C135.937 103.22 136.054 103.725 136.054 104.347ZM148.679 104.347C148.679 105.15 148.452 105.81 147.998 106.329C147.558 106.834 146.962 107.203 146.211 107.436C145.459 107.669 144.617 107.766 143.685 107.728C142.765 107.702 141.826 107.553 140.867 107.281C140.867 106.788 140.867 106.283 140.867 105.765C140.867 105.247 140.867 104.742 140.867 104.249C141.411 104.496 141.955 104.69 142.499 104.832C143.043 104.962 143.536 105.04 143.976 105.066C144.417 105.091 144.773 105.059 145.045 104.968C145.317 104.865 145.453 104.696 145.453 104.463C145.453 104.282 145.336 104.139 145.103 104.036C144.883 103.932 144.592 103.841 144.229 103.764C143.866 103.673 143.477 103.569 143.063 103.453C142.661 103.323 142.279 103.148 141.916 102.928C141.554 102.695 141.256 102.39 141.023 102.015C140.802 101.626 140.692 101.127 140.692 100.519C140.692 99.7931 140.9 99.1778 141.314 98.6726C141.742 98.1544 142.312 97.7658 143.024 97.5067C143.737 97.2347 144.533 97.0986 145.414 97.0986C146.295 97.0986 147.195 97.2476 148.115 97.5456C148.115 98.0378 148.115 98.543 148.115 99.0612C148.115 99.5794 148.115 100.085 148.115 100.577C147.39 100.227 146.71 99.9939 146.075 99.8773C145.44 99.7607 144.928 99.7478 144.54 99.8385C144.151 99.9162 143.957 100.091 143.957 100.363C143.957 100.544 144.067 100.687 144.287 100.791C144.52 100.881 144.812 100.965 145.162 101.043C145.524 101.121 145.906 101.225 146.308 101.354C146.723 101.484 147.105 101.665 147.454 101.898C147.817 102.118 148.109 102.429 148.329 102.831C148.562 103.22 148.679 103.725 148.679 104.347Z" fill="#036D33"/>
<path d="M4.00003 86.0586C4.86922 83.2504 5.73841 80.4089 6.60759 77.5339C7.4935 74.6589 8.37104 71.8173 9.24023 69.0091C10.2264 69.0091 11.221 69.0091 12.2239 69.0091C13.2435 69.0091 14.2464 69.0091 15.2326 69.0091C16.1018 71.8173 16.971 74.6589 17.8402 77.5339C18.7261 80.4089 19.6036 83.2504 20.4728 86.0586C19.7541 86.0586 19.0186 86.0586 18.2664 86.0586C17.531 86.0586 16.7955 86.0586 16.06 86.0586C15.8929 85.5237 15.7341 84.9888 15.5836 84.4539C15.4332 83.9023 15.2744 83.3591 15.1073 82.8242C14.1545 82.8242 13.1934 82.8242 12.2239 82.8242C11.2711 82.8242 10.3184 82.8242 9.3656 82.8242C9.19844 83.3591 9.03965 83.9023 8.88921 84.4539C8.73878 84.9888 8.57998 85.5237 8.41283 86.0586C7.69408 86.0586 6.95861 86.0586 6.20643 86.0586C5.47096 86.0586 4.7355 86.0586 4.00003 86.0586ZM10.4688 79.0884C11.0538 79.0884 11.6389 79.0884 12.2239 79.0884C12.8256 79.0884 13.419 79.0884 14.0041 79.0884C13.7199 78.1022 13.4274 77.1076 13.1265 76.1047C12.8256 75.1018 12.5331 74.1073 12.249 73.1211C11.9648 74.1073 11.6639 75.1018 11.3463 76.1047C11.0455 77.1076 10.753 78.1022 10.4688 79.0884ZM22.1082 86.0586C22.1082 83.2504 22.1082 80.4089 22.1082 77.5339C22.1082 74.6589 22.1082 71.8173 22.1082 69.0091C23.1446 69.0091 24.1809 69.0091 25.2172 69.0091C26.2703 69.0091 27.3066 69.0091 28.3263 69.0091C29.6133 69.0091 30.7332 69.2599 31.686 69.7613C32.6388 70.2461 33.3826 70.9314 33.9175 71.8173C34.4524 72.7032 34.7198 73.7395 34.7198 74.9263C34.7198 76.0964 34.4524 77.1243 33.9175 78.0102C33.3993 78.8961 32.6806 79.5815 31.7612 80.0662C30.8586 80.5509 29.8306 80.7933 28.6773 80.7933C28.3095 80.7933 27.9418 80.7933 27.5741 80.7933C27.2231 80.7933 26.8637 80.7933 26.496 80.7933C26.496 81.6625 26.496 82.5401 26.496 83.426C26.496 84.3119 26.496 85.1894 26.496 86.0586C25.7772 86.0586 25.0501 86.0586 24.3146 86.0586C23.5792 86.0586 22.8437 86.0586 22.1082 86.0586ZM28.3263 72.9456C28.0254 72.9456 27.7162 72.9456 27.3986 72.9456C27.0977 72.9456 26.7968 72.9456 26.496 72.9456C26.496 73.6142 26.496 74.2911 26.496 74.9764C26.496 75.6451 26.496 76.3137 26.496 76.9823C26.8303 76.9823 27.1729 76.9823 27.5239 76.9823C27.8917 76.9823 28.2427 76.9823 28.577 76.9823C29.0952 76.9823 29.513 76.79 29.8306 76.4056C30.1649 76.0211 30.3321 75.5448 30.3321 74.9764C30.3321 74.3914 30.1566 73.9067 29.8056 73.5222C29.4545 73.1378 28.9614 72.9456 28.3263 72.9456ZM42.235 86.0586C42.235 83.2504 42.235 80.4089 42.235 77.5339C42.235 74.6589 42.235 71.8173 42.235 69.0091C42.9704 69.0091 43.7059 69.0091 44.4414 69.0091C45.1768 69.0091 45.9039 69.0091 46.6227 69.0091C46.6227 71.1654 46.6227 73.3467 46.6227 75.5531C46.6227 77.7428 46.6227 79.9158 46.6227 82.072C47.5086 82.072 48.4029 82.072 49.3055 82.072C50.2081 82.072 51.094 82.072 51.9632 82.072C51.9632 82.7239 51.9632 83.3925 51.9632 84.0778C51.9632 84.7465 51.9632 85.4067 51.9632 86.0586C50.3585 86.0586 48.7372 86.0586 47.0991 86.0586C45.461 86.0586 43.8396 86.0586 42.235 86.0586ZM65.0169 85.4568C63.8635 85.9416 62.7185 86.2425 61.5819 86.3595C60.4453 86.4765 59.3672 86.4096 58.3475 86.1589C57.3446 85.9249 56.4504 85.5154 55.6648 84.9303C54.8791 84.3453 54.2607 83.6015 53.8094 82.6988C53.3748 81.7962 53.1575 80.7515 53.1575 79.5648C53.1575 78.5786 53.3163 77.6759 53.6339 76.8569C53.9682 76.0211 54.4362 75.294 55.0379 74.6756C55.6397 74.0404 56.3501 73.5557 57.1691 73.2214C57.9882 72.8703 58.8824 72.6948 59.8519 72.6948C60.7211 72.6948 61.5067 72.8369 62.2087 73.1211C62.9108 73.4052 63.5209 73.8064 64.039 74.3246C64.5572 74.826 64.9751 75.4278 65.2927 76.1298C65.6103 76.8318 65.8109 77.6007 65.8944 78.4365C65.978 79.2722 65.9279 80.1581 65.744 81.0942C64.3733 81.0942 62.9943 81.0942 61.607 81.0942C60.2196 81.0942 58.8406 81.0942 57.47 81.0942C57.7876 81.7294 58.3141 82.1807 59.0496 82.4481C59.8018 82.7156 60.6877 82.7991 61.7073 82.6988C62.7436 82.5986 63.8468 82.3311 65.0169 81.8965C65.0169 82.4815 65.0169 83.0749 65.0169 83.6767C65.0169 84.2784 65.0169 84.8718 65.0169 85.4568ZM59.7516 76.4056C59.2669 76.4056 58.8156 76.5393 58.3977 76.8068C57.9965 77.0742 57.6873 77.4837 57.47 78.0353C58.2222 78.0353 58.9744 78.0353 59.7265 78.0353C60.4954 78.0353 61.256 78.0353 62.0082 78.0353C61.8076 77.467 61.5067 77.0575 61.1055 76.8068C60.7211 76.5393 60.2698 76.4056 59.7516 76.4056ZM80.2707 83.9525C80.2707 85.3733 79.9615 86.56 79.343 87.5128C78.7413 88.4656 77.9139 89.176 76.8608 89.644C75.8078 90.1287 74.6043 90.3795 73.2503 90.3962C71.9131 90.4129 70.5007 90.2123 69.013 89.7944C69.013 89.1425 69.013 88.4823 69.013 87.8137C69.013 87.1618 69.013 86.5099 69.013 85.858C70.3335 86.3762 71.5287 86.6353 72.5984 86.6353C73.6682 86.652 74.5123 86.4514 75.1308 86.0335C75.766 85.5989 76.0836 85.0055 76.0836 84.2534C76.0836 84.1698 76.0836 84.0946 76.0836 84.0277C76.0836 83.9441 76.0836 83.8689 76.0836 83.802C75.6657 84.1196 75.1809 84.3704 74.6293 84.5542C74.0777 84.7381 73.4843 84.83 72.8492 84.83C71.7961 84.83 70.8517 84.5877 70.016 84.1029C69.1969 83.6015 68.5534 82.9161 68.0854 82.047C67.6173 81.1611 67.3833 80.1331 67.3833 78.963C67.3833 78.0604 67.5338 77.233 67.8346 76.4808C68.1355 75.7286 68.5534 75.0767 69.0883 74.5251C69.6231 73.9735 70.2333 73.5557 70.9186 73.2715C71.6039 72.9706 72.3226 72.8202 73.0748 72.8202C73.6766 72.8202 74.2365 72.9038 74.7547 73.0709C75.2729 73.2381 75.7325 73.4637 76.1337 73.7479C76.1337 73.6309 76.1337 73.5222 76.1337 73.4219C76.1337 73.3216 76.1337 73.213 76.1337 73.096C76.819 73.096 77.5127 73.096 78.2147 73.096C78.9168 73.096 79.6021 73.096 80.2707 73.096C80.2707 74.8845 80.2707 76.6981 80.2707 78.5368C80.2707 80.3587 80.2707 82.164 80.2707 83.9525ZM73.8772 81.2446C74.5792 81.2446 75.1391 81.0273 75.557 80.5927C75.9916 80.1414 76.2089 79.5648 76.2089 78.8627C76.2089 78.144 75.9916 77.5589 75.557 77.1076C75.1391 76.6563 74.5792 76.4307 73.8772 76.4307C73.1417 76.4307 72.5567 76.6563 72.1221 77.1076C71.6875 77.5422 71.4702 78.1273 71.4702 78.8627C71.4702 79.5815 71.6875 80.1581 72.1221 80.5927C72.5567 81.0273 73.1417 81.2446 73.8772 81.2446ZM85.2277 71.6167C84.7429 71.6167 84.3 71.4997 83.8988 71.2657C83.5144 71.0317 83.2051 70.7224 82.9711 70.338C82.7371 69.9535 82.6201 69.5273 82.6201 69.0593C82.6201 68.5913 82.7371 68.1734 82.9711 67.8056C83.2051 67.4212 83.5144 67.112 83.8988 66.878C84.3 66.6439 84.7429 66.5269 85.2277 66.5269C85.6957 66.5269 86.1219 66.6439 86.5064 66.878C86.9075 67.112 87.2251 67.4212 87.4591 67.8056C87.6931 68.1734 87.8102 68.5913 87.8102 69.0593C87.8102 69.5273 87.6931 69.9535 87.4591 70.338C87.2251 70.7224 86.9075 71.0317 86.5064 71.2657C86.1219 71.4997 85.6957 71.6167 85.2277 71.6167ZM83.1466 86.0586C83.1466 83.9191 83.1466 81.7628 83.1466 79.5898C83.1466 77.4001 83.1466 75.2355 83.1466 73.096C83.8319 73.096 84.5256 73.096 85.2277 73.096C85.9297 73.096 86.615 73.096 87.2836 73.096C87.2836 75.2355 87.2836 77.4001 87.2836 79.5898C87.2836 81.7628 87.2836 83.9191 87.2836 86.0586C86.615 86.0586 85.9297 86.0586 85.2277 86.0586C84.5256 86.0586 83.8319 86.0586 83.1466 86.0586ZM100.075 82.047C100.075 83.0833 99.7821 83.9358 99.1971 84.6044C98.6288 85.2563 97.8599 85.7326 96.8904 86.0335C95.9209 86.3344 94.8344 86.4598 93.6309 86.4096C92.4442 86.3762 91.2323 86.184 89.9954 85.8329C89.9954 85.1978 89.9954 84.5459 89.9954 83.8773C89.9954 83.2087 89.9954 82.5568 89.9954 81.9216C90.6974 82.2392 91.3995 82.4899 92.1015 82.6738C92.8035 82.8409 93.4387 82.9412 94.007 82.9746C94.5754 83.0081 95.035 82.9663 95.386 82.8493C95.7371 82.7156 95.9126 82.4983 95.9126 82.1974C95.9126 81.9634 95.7621 81.7795 95.4613 81.6458C95.1771 81.5121 94.801 81.3951 94.333 81.2948C93.865 81.1778 93.3635 81.044 92.8286 80.8936C92.3104 80.7265 91.8174 80.5008 91.3493 80.2166C90.8813 79.9158 90.4969 79.523 90.196 79.0382C89.9118 78.5368 89.7697 77.8932 89.7697 77.1076C89.7697 76.1716 90.0372 75.3776 90.5721 74.7257C91.1237 74.0571 91.8591 73.5557 92.7785 73.2214C93.6978 72.8703 94.7258 72.6948 95.8624 72.6948C96.9991 72.6948 98.1608 72.887 99.3475 73.2715C99.3475 73.9067 99.3475 74.5586 99.3475 75.2272C99.3475 75.8958 99.3475 76.5477 99.3475 77.1828C98.4115 76.7315 97.5339 76.4307 96.7149 76.2802C95.8959 76.1298 95.2356 76.1131 94.7341 76.2301C94.2327 76.3304 93.982 76.556 93.982 76.907C93.982 77.1411 94.124 77.3249 94.4082 77.4586C94.7091 77.5757 95.0852 77.6843 95.5365 77.7846C96.0045 77.8849 96.4976 78.0186 97.0158 78.1858C97.5507 78.3529 98.0437 78.5869 98.4951 78.8878C98.9631 79.1719 99.3392 79.5731 99.6233 80.0913C99.9242 80.5927 100.075 81.2446 100.075 82.047ZM102.196 86.0586C102.196 83.0332 102.196 79.9826 102.196 76.907C102.196 73.8315 102.196 70.7809 102.196 67.7555C102.881 67.7555 103.575 67.7555 104.277 67.7555C104.979 67.7555 105.664 67.7555 106.333 67.7555C106.333 70.7809 106.333 73.8315 106.333 76.907C106.333 79.9826 106.333 83.0332 106.333 86.0586C105.664 86.0586 104.979 86.0586 104.277 86.0586C103.575 86.0586 102.881 86.0586 102.196 86.0586ZM117.87 86.0586C117.87 85.9249 117.87 85.7995 117.87 85.6825C117.87 85.5488 117.87 85.4234 117.87 85.3064C117.453 85.6574 116.976 85.9249 116.441 86.1087C115.923 86.3093 115.363 86.4096 114.761 86.4096C113.909 86.4096 113.107 86.2508 112.354 85.9332C111.602 85.5989 110.934 85.1309 110.349 84.5292C109.78 83.9107 109.329 83.1836 108.995 82.3478C108.677 81.5121 108.518 80.5844 108.518 79.5648C108.518 78.5284 108.677 77.5924 108.995 76.7566C109.329 75.9209 109.78 75.2105 110.349 74.6254C110.934 74.0237 111.602 73.564 112.354 73.2464C113.107 72.9121 113.901 72.745 114.736 72.745C115.338 72.745 115.906 72.8453 116.441 73.0458C116.976 73.2297 117.453 73.4888 117.87 73.8231C117.87 73.6894 117.87 73.564 117.87 73.447C117.87 73.33 117.87 73.213 117.87 73.096C118.556 73.096 119.249 73.096 119.951 73.096C120.653 73.096 121.339 73.096 122.007 73.096C122.007 75.2355 122.007 77.4001 122.007 79.5898C122.007 81.7628 122.007 83.9191 122.007 86.0586C121.339 86.0586 120.653 86.0586 119.951 86.0586C119.249 86.0586 118.556 86.0586 117.87 86.0586ZM115.313 82.749C116.115 82.749 116.759 82.4565 117.244 81.8714C117.728 81.2864 117.971 80.5175 117.971 79.5648C117.971 78.612 117.728 77.8515 117.244 77.2831C116.759 76.6981 116.115 76.4056 115.313 76.4056C114.494 76.4056 113.842 76.6897 113.357 77.2581C112.889 77.8264 112.655 78.5953 112.655 79.5648C112.655 80.5342 112.889 81.3115 113.357 81.8965C113.842 82.4648 114.494 82.749 115.313 82.749ZM126.122 86.0586C126.122 84.5208 126.122 82.9746 126.122 81.4201C126.122 79.8656 126.122 78.3278 126.122 76.8068C125.788 76.8068 125.445 76.8068 125.094 76.8068C124.76 76.8068 124.426 76.8068 124.091 76.8068C124.091 76.1883 124.091 75.5698 124.091 74.9514C124.091 74.3329 124.091 73.7145 124.091 73.096C124.426 73.096 124.76 73.096 125.094 73.096C125.445 73.096 125.788 73.096 126.122 73.096C126.122 72.511 126.122 71.9343 126.122 71.366C126.122 70.7809 126.122 70.2043 126.122 69.636C126.808 69.636 127.501 69.636 128.203 69.636C128.905 69.636 129.591 69.636 130.259 69.636C130.259 70.2043 130.259 70.7809 130.259 71.366C130.259 71.9343 130.259 72.511 130.259 73.096C130.644 73.096 131.037 73.096 131.438 73.096C131.839 73.096 132.232 73.096 132.616 73.096C132.616 73.7145 132.616 74.3329 132.616 74.9514C132.616 75.5698 132.616 76.1883 132.616 76.8068C132.232 76.8068 131.839 76.8068 131.438 76.8068C131.037 76.8068 130.644 76.8068 130.259 76.8068C130.259 78.3278 130.259 79.8656 130.259 81.4201C130.259 82.9746 130.259 84.5208 130.259 86.0586C129.591 86.0586 128.905 86.0586 128.203 86.0586C127.501 86.0586 126.808 86.0586 126.122 86.0586ZM146.721 73.096C146.721 75.2355 146.721 77.4001 146.721 79.5898C146.721 81.7628 146.721 83.9191 146.721 86.0586C146.053 86.0586 145.368 86.0586 144.666 86.0586C143.963 86.0586 143.27 86.0586 142.584 86.0586C142.584 85.9416 142.584 85.8329 142.584 85.7326C142.584 85.6324 142.584 85.5237 142.584 85.4067C142.133 85.7243 141.623 85.9667 141.055 86.1338C140.503 86.3177 139.902 86.4096 139.25 86.4096C138.297 86.4096 137.453 86.1923 136.717 85.7577C135.999 85.3231 135.43 84.6963 135.013 83.8773C134.611 83.0582 134.411 82.0887 134.411 80.9688C134.411 79.665 134.411 78.3529 134.411 77.0324C134.411 75.7119 134.411 74.3998 134.411 73.096C135.096 73.096 135.79 73.096 136.492 73.096C137.194 73.096 137.879 73.096 138.548 73.096C138.548 74.2995 138.548 75.5197 138.548 76.7566C138.548 77.9935 138.548 79.2137 138.548 80.4172C138.548 81.0858 138.698 81.6291 138.999 82.047C139.317 82.4481 139.81 82.6487 140.478 82.6487C141.147 82.6487 141.665 82.4565 142.033 82.072C142.401 81.6876 142.584 81.136 142.584 80.4172C142.584 79.2137 142.584 77.9935 142.584 76.7566C142.584 75.5197 142.584 74.2995 142.584 73.096C143.27 73.096 143.963 73.096 144.666 73.096C145.368 73.096 146.053 73.096 146.721 73.096ZM149.474 86.0586C149.474 83.9191 149.474 81.7628 149.474 79.5898C149.474 77.4001 149.474 75.2355 149.474 73.096C150.159 73.096 150.853 73.096 151.555 73.096C152.257 73.096 152.942 73.096 153.611 73.096C153.611 73.213 153.611 73.33 153.611 73.447C153.611 73.564 153.611 73.681 153.611 73.798C154.129 73.4303 154.714 73.1545 155.366 72.9706C156.018 72.7868 156.728 72.7366 157.497 72.8202C157.497 73.4888 157.497 74.1658 157.497 74.8511C157.497 75.5364 157.497 76.2134 157.497 76.882C156.177 76.6981 155.199 76.8151 154.564 77.233C153.928 77.6342 153.611 78.2944 153.611 79.2137C153.611 80.3337 153.611 81.4703 153.611 82.6236C153.611 83.777 153.611 84.922 153.611 86.0586C152.942 86.0586 152.257 86.0586 151.555 86.0586C150.853 86.0586 150.159 86.0586 149.474 86.0586ZM170.401 85.4568C169.247 85.9416 168.102 86.2425 166.966 86.3595C165.829 86.4765 164.751 86.4096 163.731 86.1589C162.728 85.9249 161.834 85.5154 161.049 84.9303C160.263 84.3453 159.645 83.6015 159.193 82.6988C158.759 81.7962 158.541 80.7515 158.541 79.5648C158.541 78.5786 158.7 77.6759 159.018 76.8569C159.352 76.0211 159.82 75.294 160.422 74.6756C161.024 74.0404 161.734 73.5557 162.553 73.2214C163.372 72.8703 164.266 72.6948 165.236 72.6948C166.105 72.6948 166.891 72.8369 167.593 73.1211C168.295 73.4052 168.905 73.8064 169.423 74.3246C169.941 74.826 170.359 75.4278 170.677 76.1298C170.994 76.8318 171.195 77.6007 171.278 78.4365C171.362 79.2722 171.312 80.1581 171.128 81.0942C169.757 81.0942 168.378 81.0942 166.991 81.0942C165.603 81.0942 164.224 81.0942 162.854 81.0942C163.171 81.7294 163.698 82.1807 164.433 82.4481C165.186 82.7156 166.071 82.7991 167.091 82.6988C168.127 82.5986 169.231 82.3311 170.401 81.8965C170.401 82.4815 170.401 83.0749 170.401 83.6767C170.401 84.2784 170.401 84.8718 170.401 85.4568ZM165.135 76.4056C164.651 76.4056 164.199 76.5393 163.782 76.8068C163.38 77.0742 163.071 77.4837 162.854 78.0353C163.606 78.0353 164.358 78.0353 165.11 78.0353C165.879 78.0353 166.64 78.0353 167.392 78.0353C167.191 77.467 166.891 77.0575 166.489 76.8068C166.105 76.5393 165.654 76.4056 165.135 76.4056Z" fill="#111827"/>
</svg>
