<svg width="150" height="113" viewBox="0 0 150 113" fill="none" xmlns="http://www.w3.org/2000/svg">
<path d="M74.8124 56.278C87.3877 56.278 98.9569 58.0644 108.126 61.0586C100.011 56.5257 88.0954 53.6631 74.8124 53.6631C61.5293 53.6631 49.6133 56.5257 41.4991 61.0586C50.6679 58.0643 62.237 56.278 74.8124 56.278Z" fill="#CDA349"/>
<path d="M74.8124 25.7636C81.3815 25.7636 86.754 28.4307 87.1785 31.8028C87.1978 31.6556 87.2087 31.5072 87.2087 31.3573C87.2087 27.7844 81.6587 24.8881 74.8124 24.8881C72.4086 24.8881 70.1651 25.2456 68.2651 25.8636C70.283 25.1201 72.744 24.6824 75.4022 24.6824C78.5973 24.6824 81.5095 25.3136 83.7077 26.3497C83.0086 22.1413 78.706 18.7497 75.0686 18.5956C75.1574 18.5917 75.2458 18.5895 75.3337 18.5895C75.8569 18.5895 76.3963 18.6612 76.9388 18.7928C76.8485 18.4433 76.5338 18.1839 76.156 18.1839H76.1074V15.3952L75.3464 15.2758H76.1648C76.338 15.2758 76.4783 15.1354 76.4783 14.9622C76.4783 14.8386 76.4067 14.732 76.3027 14.6809C76.1707 14.0794 75.6082 13.5884 75.068 13.4644C75.0831 13.4252 75.0918 13.3829 75.0918 13.3384C75.0918 13.2181 75.0309 13.1119 74.9381 13.0492C74.9228 12.6151 74.8413 10.8384 74.7429 10.8384C74.6445 10.8384 74.5629 12.6151 74.5476 13.0492C74.455 13.1119 74.394 13.2181 74.394 13.3384C74.394 13.3963 74.4083 13.4508 74.4333 13.4989C73.9334 13.6637 73.4439 14.1253 73.322 14.6809C73.218 14.732 73.1464 14.8386 73.1464 14.9622C73.1464 15.1354 73.2868 15.2758 73.4599 15.2758H73.5173V18.1838H73.4685C73.0377 18.1838 72.6863 18.5199 72.6599 18.9442C69.3971 19.9794 66.1805 23.1633 65.8452 26.8906C63.7207 28.0518 62.4158 29.6251 62.4158 31.3574C62.4158 31.5073 62.4267 31.6557 62.446 31.8029C62.8705 28.4308 68.2429 25.7638 74.8121 25.7638L74.8124 25.7636ZM75.402 15.7264C75.402 15.6303 75.4799 15.5526 75.5758 15.5526C75.6718 15.5526 75.7496 15.6304 75.7496 15.7264V18.0528H75.402V15.7264ZM74.6385 15.4057C74.6385 15.3538 74.6616 15.3077 74.6977 15.2759H74.9269C74.9629 15.3077 74.9861 15.3538 74.9861 15.4057V18.0528H74.6384L74.6385 15.4057ZM73.875 15.7264C73.875 15.6303 73.9528 15.5526 74.0488 15.5526C74.1447 15.5526 74.2225 15.6304 74.2225 15.7264V18.0528H73.8749L73.875 15.7264ZM74.8124 38.4861C65.6253 38.4861 58.1778 42.3728 58.1778 47.1672C58.1778 47.7893 58.3051 48.3957 58.5435 48.9807L58.8035 47.0335V48.5329C58.8052 48.5295 58.8073 48.5261 58.8091 48.5226C58.8054 48.6607 58.8035 48.801 58.8035 48.9438V55.123C59.3306 55.023 59.8628 54.9277 60.3995 54.8374V48.2848C60.3995 47.7307 60.8487 47.2815 61.4029 47.2815C61.957 47.2815 62.4062 47.7307 62.4062 48.2848V54.5255C62.8519 54.462 63.3005 54.4019 63.7519 54.3451V46.2765C63.7519 45.7224 64.2011 45.2731 64.7552 45.2731C65.3094 45.2731 65.7586 45.7224 65.7586 46.2765V54.1165C66.2047 54.0711 66.6535 54.0295 67.1043 53.9907V45.3727C67.1043 44.8185 67.5535 44.3693 68.1076 44.3693C68.6618 44.3693 69.111 44.8185 69.111 45.3727V53.8414C69.5575 53.8133 70.0061 53.7882 70.4567 53.7667V44.7579C70.4567 44.2037 70.9059 43.7545 71.46 43.7545C72.0142 43.7545 72.4634 44.2037 72.4634 44.7579V53.6934C72.9101 53.6819 73.3588 53.6739 73.809 53.669V44.4667C73.809 43.9126 74.2583 43.4633 74.8124 43.4633C75.3665 43.4633 75.8158 43.9126 75.8158 44.4667V53.669C76.266 53.6738 76.7147 53.6819 77.1614 53.6934V44.7579C77.1614 44.2037 77.6106 43.7545 78.1648 43.7545C78.7189 43.7545 79.1682 44.2037 79.1682 44.7579V53.7667C79.6188 53.7883 80.0673 53.8133 80.5138 53.8414V45.3727C80.5138 44.8185 80.963 44.3693 81.5172 44.3693C82.0713 44.3693 82.5205 44.8185 82.5205 45.3727V53.9907C82.9714 54.0295 83.4201 54.0711 83.8662 54.1165V46.2765C83.8662 45.7224 84.3154 45.2731 84.8696 45.2731C85.4237 45.2731 85.8729 45.7224 85.8729 46.2765V54.3451C86.3243 54.402 86.7729 54.4621 87.2186 54.5255V48.2848C87.2186 47.7307 87.6678 47.2815 88.2219 47.2815C88.7761 47.2815 89.2253 47.7307 89.2253 48.2848V54.8374C89.762 54.9278 90.2942 55.023 90.8212 55.123V48.9438C90.8212 48.8009 90.8193 48.6606 90.8155 48.5226C90.8173 48.5261 90.8193 48.5295 90.8212 48.5329V47.0335L91.0812 48.9807C91.3196 48.3957 91.4469 47.7893 91.4469 47.1672C91.4469 42.3728 83.9994 38.4861 74.8124 38.4861ZM86.0992 38.1843V33.984C86.0992 33.8833 86.0977 33.7843 86.0951 33.6869C86.0965 33.6894 86.0978 33.6918 86.0992 33.6942V32.6371L86.2824 34.01C86.4504 33.5975 86.5402 33.1699 86.5402 32.7314C86.5402 29.3511 81.2895 26.611 74.8123 26.611C68.3351 26.611 63.0843 29.3513 63.0843 32.7314C63.0843 33.1699 63.174 33.5975 63.3421 34.01L63.5253 32.6371V33.6942C63.5267 33.6917 63.528 33.6894 63.5293 33.6869C63.5268 33.7843 63.5253 33.8831 63.5253 33.984V38.1843C59.6778 39.8675 57.2294 42.3933 57.2294 45.2184C57.2294 45.4309 57.2449 45.6415 57.2723 45.8503C57.5966 43.2738 59.9597 40.9888 63.5252 39.4277C63.8887 39.2686 64.2627 39.1156 64.6504 38.972C65.1063 38.8032 65.5788 38.6458 66.0653 38.4997C66.3751 38.4067 66.6927 38.3201 67.0141 38.2369C67.4747 38.1176 67.9463 38.0083 68.4289 37.9101C68.7409 37.8466 69.0574 37.7882 69.3777 37.7338C69.8414 37.6552 70.3128 37.5859 70.7925 37.5273C71.1056 37.4891 71.422 37.4557 71.7413 37.4264C72.2073 37.3835 72.6783 37.3485 73.1561 37.3253C73.4699 37.31 73.7866 37.2998 74.1049 37.2933C74.3398 37.2884 74.5751 37.2843 74.8123 37.2843C75.0494 37.2843 75.2848 37.2884 75.5197 37.2933C75.838 37.2999 76.1546 37.31 76.4684 37.3253C76.9463 37.3487 77.4173 37.3836 77.8833 37.4264C78.2025 37.4557 78.519 37.4891 78.8321 37.5273C79.3117 37.5859 79.7832 37.6552 80.2469 37.7338C80.5672 37.7882 80.8837 37.8465 81.1957 37.9101C81.6783 38.0083 82.1497 38.1176 82.6105 38.2369C82.9319 38.3201 83.2494 38.4067 83.5593 38.4997C84.0458 38.6458 84.5183 38.803 84.9741 38.972C85.3619 39.1157 85.7358 39.2686 86.0994 39.4277C89.665 40.9888 92.0279 43.2738 92.3522 45.8503C92.3796 45.6415 92.3952 45.431 92.3952 45.2184C92.3952 42.3933 89.9468 39.8675 86.0992 38.1843ZM66.0655 37.2598C65.5787 37.4058 65.1067 37.5636 64.6507 37.7325V33.5194C64.6507 33.1287 64.9674 32.812 65.358 32.812C65.7486 32.812 66.0654 33.1288 66.0654 33.5194L66.0655 37.2598ZM68.4291 36.6688C67.947 36.7669 67.4747 36.8751 67.0143 36.9942V32.1034C67.0143 31.7127 67.331 31.3961 67.7217 31.3961C68.1124 31.3961 68.429 31.7127 68.429 32.1034L68.4291 36.6688ZM70.7926 36.2863C70.3133 36.3448 69.8412 36.4129 69.3778 36.4914V31.4662C69.3778 31.0755 69.6945 30.7588 70.0852 30.7588C70.4759 30.7588 70.7925 31.0755 70.7925 31.4662L70.7926 36.2863ZM73.1563 36.0843C72.6785 36.1076 72.2073 36.1421 71.7414 36.185V31.0328C71.7414 30.6421 72.0582 30.3254 72.4488 30.3254C72.8394 30.3254 73.1561 30.6421 73.1561 31.0328V36.0843H73.1563ZM75.5198 36.0519C75.2848 36.047 75.0496 36.0425 74.8124 36.0425C74.5751 36.0425 74.3399 36.047 74.105 36.0519V30.8274C74.105 30.4367 74.4217 30.1201 74.8124 30.1201C75.2031 30.1201 75.5198 30.4367 75.5198 30.8274V36.0519ZM77.8833 36.185C77.4174 36.1422 76.9462 36.1077 76.4684 36.0843V31.0328C76.4684 30.6421 76.7851 30.3254 77.1758 30.3254C77.5665 30.3254 77.8832 30.6421 77.8832 31.0328L77.8833 36.185ZM80.2469 36.4914C79.7835 36.4129 79.3114 36.3448 78.8321 36.2863V31.4662C78.8321 31.0755 79.1487 30.7588 79.5394 30.7588C79.9301 30.7588 80.2468 31.0755 80.2468 31.4662L80.2469 36.4914ZM82.6104 36.9942C82.15 36.8751 81.6778 36.767 81.1956 36.6688V32.1034C81.1956 31.7127 81.5122 31.3961 81.9029 31.3961C82.2936 31.3961 82.6103 31.7127 82.6103 32.1034V36.9942H82.6104ZM84.974 37.7325C84.5179 37.5636 84.046 37.4058 83.5592 37.2598V33.5194C83.5592 33.1287 83.8758 32.812 84.2665 32.812C84.6572 32.812 84.9739 33.1287 84.9739 33.5194L84.974 37.7325Z" fill="#036D33"/>
<path d="M74.8597 0L75.9291 3.2915H79.3899L76.5901 5.32565L77.6595 8.61703L74.8597 6.58289L72.0598 8.61703L73.1293 5.32565L70.3294 3.2915H73.7902L74.8597 0Z" fill="#CDA349"/>
<path d="M58.225 6.99561L58.9088 9.09996H61.1214L59.3314 10.4005L60.0151 12.5048L58.225 11.2043L56.4349 12.5048L57.1187 10.4005L55.3286 9.09996H57.5413L58.225 6.99561Z" fill="#CDA349"/>
<path d="M47.4983 17.6538L47.9043 18.9036H49.2184L48.1552 19.6759L48.5613 20.9257L47.4983 20.1534L46.4352 20.9257L46.8413 19.6759L45.7781 18.9036H47.0922L47.4983 17.6538Z" fill="#CDA349"/>
<path d="M91.3996 6.99561L90.7158 9.09996H88.5032L90.2932 10.4005L89.6094 12.5049L91.3996 11.2043L93.1896 12.5049L92.5059 10.4005L94.296 9.09996H92.0834L91.3996 6.99561Z" fill="#CDA349"/>
<path d="M102.126 17.6538L101.72 18.9035H100.406L101.469 19.6758L101.063 20.9255L102.126 20.1532L103.189 20.9255L102.783 19.6758L103.846 18.9035H102.532L102.126 17.6538Z" fill="#CDA349"/>
<path d="M1.57529 107.456C1.57529 105.279 1.57529 103.077 1.57529 100.849C1.57529 98.6208 1.57529 96.4185 1.57529 94.2422C2.35255 94.2422 3.13628 94.2422 3.92649 94.2422C4.7167 94.2422 5.50043 94.2422 6.27769 94.2422C7.2363 94.2422 8.11719 94.4106 8.92035 94.7474C9.72352 95.0713 10.423 95.5312 11.0189 96.1271C11.6148 96.723 12.0747 97.4225 12.3986 98.2257C12.7354 99.0159 12.9038 99.8838 12.9038 100.829C12.9038 101.775 12.7354 102.65 12.3986 103.453C12.0747 104.256 11.6148 104.962 11.0189 105.571C10.423 106.167 9.72352 106.633 8.92035 106.97C8.11719 107.294 7.2363 107.456 6.27769 107.456C5.50043 107.456 4.7167 107.456 3.92649 107.456C3.13628 107.456 2.35255 107.456 1.57529 107.456ZM6.27769 97.3124C6.07042 97.3124 5.85667 97.3124 5.63645 97.3124C5.41623 97.3124 5.19601 97.3124 4.97578 97.3124C4.97578 98.4783 4.97578 99.6571 4.97578 100.849C4.97578 102.041 4.97578 103.22 4.97578 104.385C5.19601 104.385 5.41623 104.385 5.63645 104.385C5.85667 104.385 6.07042 104.385 6.27769 104.385C6.9254 104.385 7.48891 104.23 7.96822 103.919C8.44752 103.608 8.81672 103.187 9.0758 102.656C9.33489 102.112 9.46443 101.503 9.46443 100.829C9.46443 100.156 9.33489 99.5535 9.0758 99.0224C8.81672 98.4912 8.44752 98.0767 7.96822 97.7787C7.48891 97.4678 6.9254 97.3124 6.27769 97.3124ZM19.7769 96.2631C19.4012 96.2631 19.0579 96.1724 18.747 95.9911C18.4491 95.8097 18.2094 95.57 18.028 95.2721C17.8467 94.9741 17.756 94.6438 17.756 94.2811C17.756 93.9184 17.8467 93.5945 18.028 93.3095C18.2094 93.0116 18.4491 92.7719 18.747 92.5906C19.0579 92.4092 19.4012 92.3185 19.7769 92.3185C20.1396 92.3185 20.4699 92.4092 20.7679 92.5906C21.0788 92.7719 21.3249 93.0116 21.5063 93.3095C21.6876 93.5945 21.7783 93.9184 21.7783 94.2811C21.7783 94.6438 21.6876 94.9741 21.5063 95.2721C21.3249 95.57 21.0788 95.8097 20.7679 95.9911C20.4699 96.1724 20.1396 96.2631 19.7769 96.2631ZM18.1641 107.456C18.1641 105.797 18.1641 104.126 18.1641 102.442C18.1641 100.745 18.1641 99.0677 18.1641 97.4095C18.6952 97.4095 19.2328 97.4095 19.7769 97.4095C20.321 97.4095 20.8521 97.4095 21.3702 97.4095C21.3702 99.0677 21.3702 100.745 21.3702 102.442C21.3702 104.126 21.3702 105.797 21.3702 107.456C20.8521 107.456 20.321 107.456 19.7769 107.456C19.2328 107.456 18.6952 107.456 18.1641 107.456ZM36.5492 105.823C36.5492 106.924 36.3095 107.844 35.8302 108.583C35.3639 109.321 34.7226 109.872 33.9065 110.234C33.0904 110.61 32.1577 110.804 31.1084 110.817C30.0721 110.83 28.9774 110.675 27.8245 110.351C27.8245 109.846 27.8245 109.334 27.8245 108.816C27.8245 108.311 27.8245 107.805 27.8245 107.3C28.8479 107.702 29.7741 107.902 30.6032 107.902C31.4323 107.915 32.0864 107.76 32.5657 107.436C33.058 107.099 33.3041 106.639 33.3041 106.057C33.3041 105.992 33.3041 105.933 33.3041 105.882C33.3041 105.817 33.3041 105.759 33.3041 105.707C32.9803 105.953 32.6046 106.147 32.1771 106.29C31.7496 106.432 31.2898 106.503 30.7975 106.503C29.9814 106.503 29.2495 106.316 28.6017 105.94C27.967 105.551 27.4683 105.02 27.1055 104.347C26.7428 103.66 26.5615 102.863 26.5615 101.956C26.5615 101.257 26.678 100.616 26.9112 100.033C27.1444 99.4498 27.4683 98.9446 27.8828 98.5171C28.2973 98.0896 28.7702 97.7658 29.3013 97.5456C29.8324 97.3124 30.3894 97.1958 30.9724 97.1958C31.4387 97.1958 31.8727 97.2606 32.2743 97.3901C32.6759 97.5197 33.0321 97.6945 33.343 97.9148C33.343 97.8241 33.343 97.7399 33.343 97.6622C33.343 97.5844 33.343 97.5002 33.343 97.4095C33.8741 97.4095 34.4117 97.4095 34.9558 97.4095C35.4999 97.4095 36.031 97.4095 36.5492 97.4095C36.5492 98.7957 36.5492 100.201 36.5492 101.626C36.5492 103.038 36.5492 104.437 36.5492 105.823ZM31.5942 103.725C32.1383 103.725 32.5722 103.556 32.8961 103.22C33.2329 102.87 33.4013 102.423 33.4013 101.879C33.4013 101.322 33.2329 100.868 32.8961 100.519C32.5722 100.169 32.1383 99.9939 31.5942 99.9939C31.0242 99.9939 30.5708 100.169 30.234 100.519C29.8972 100.855 29.7288 101.309 29.7288 101.879C29.7288 102.436 29.8972 102.883 30.234 103.22C30.5708 103.556 31.0242 103.725 31.5942 103.725ZM43.8885 96.2631C43.5128 96.2631 43.1695 96.1724 42.8586 95.9911C42.5607 95.8097 42.321 95.57 42.1396 95.2721C41.9583 94.9741 41.8676 94.6438 41.8676 94.2811C41.8676 93.9184 41.9583 93.5945 42.1396 93.3095C42.321 93.0116 42.5607 92.7719 42.8586 92.5906C43.1695 92.4092 43.5128 92.3185 43.8885 92.3185C44.2512 92.3185 44.5815 92.4092 44.8795 92.5906C45.1904 92.7719 45.4365 93.0116 45.6179 93.3095C45.7992 93.5945 45.8899 93.9184 45.8899 94.2811C45.8899 94.6438 45.7992 94.9741 45.6179 95.2721C45.4365 95.57 45.1904 95.8097 44.8795 95.9911C44.5815 96.1724 44.2512 96.2631 43.8885 96.2631ZM42.2757 107.456C42.2757 105.797 42.2757 104.126 42.2757 102.442C42.2757 100.745 42.2757 99.0677 42.2757 97.4095C42.8068 97.4095 43.3444 97.4095 43.8885 97.4095C44.4325 97.4095 44.9637 97.4095 45.4818 97.4095C45.4818 99.0677 45.4818 100.745 45.4818 102.442C45.4818 104.126 45.4818 105.797 45.4818 107.456C44.9637 107.456 44.4325 107.456 43.8885 107.456C43.3444 107.456 42.8068 107.456 42.2757 107.456ZM52.2664 107.456C52.2664 106.264 52.2664 105.066 52.2664 103.861C52.2664 102.656 52.2664 101.464 52.2664 100.285C52.0073 100.285 51.7418 100.285 51.4697 100.285C51.2107 100.285 50.9516 100.285 50.6925 100.285C50.6925 99.8061 50.6925 99.3268 50.6925 98.8475C50.6925 98.3682 50.6925 97.8889 50.6925 97.4095C50.9516 97.4095 51.2107 97.4095 51.4697 97.4095C51.7418 97.4095 52.0073 97.4095 52.2664 97.4095C52.2664 96.9561 52.2664 96.5092 52.2664 96.0688C52.2664 95.6154 52.2664 95.1685 52.2664 94.728C52.7976 94.728 53.3352 94.728 53.8792 94.728C54.4233 94.728 54.9544 94.728 55.4726 94.728C55.4726 95.1685 55.4726 95.6154 55.4726 96.0688C55.4726 96.5092 55.4726 96.9561 55.4726 97.4095C55.7706 97.4095 56.075 97.4095 56.3859 97.4095C56.6968 97.4095 57.0012 97.4095 57.2992 97.4095C57.2992 97.8889 57.2992 98.3682 57.2992 98.8475C57.2992 99.3268 57.2992 99.8061 57.2992 100.285C57.0012 100.285 56.6968 100.285 56.3859 100.285C56.075 100.285 55.7706 100.285 55.4726 100.285C55.4726 101.464 55.4726 102.656 55.4726 103.861C55.4726 105.066 55.4726 106.264 55.4726 107.456C54.9544 107.456 54.4233 107.456 53.8792 107.456C53.3352 107.456 52.7976 107.456 52.2664 107.456ZM68.9521 107.456C68.9521 107.352 68.9521 107.255 68.9521 107.164C68.9521 107.06 68.9521 106.963 68.9521 106.873C68.6282 107.145 68.259 107.352 67.8445 107.494C67.4429 107.65 67.0089 107.728 66.5426 107.728C65.8819 107.728 65.2601 107.605 64.6772 107.358C64.0942 107.099 63.576 106.737 63.1226 106.27C62.6822 105.791 62.3324 105.227 62.0733 104.58C61.8272 103.932 61.7042 103.213 61.7042 102.423C61.7042 101.62 61.8272 100.894 62.0733 100.247C62.3324 99.5988 62.6822 99.0483 63.1226 98.5949C63.576 98.1285 64.0942 97.7723 64.6772 97.5261C65.2601 97.2671 65.8754 97.1375 66.5231 97.1375C66.9895 97.1375 67.4299 97.2152 67.8445 97.3707C68.259 97.5132 68.6282 97.714 68.9521 97.9731C68.9521 97.8694 68.9521 97.7723 68.9521 97.6816C68.9521 97.5909 68.9521 97.5002 68.9521 97.4095C69.4832 97.4095 70.0208 97.4095 70.5649 97.4095C71.1089 97.4095 71.6401 97.4095 72.1582 97.4095C72.1582 99.0677 72.1582 100.745 72.1582 102.442C72.1582 104.126 72.1582 105.797 72.1582 107.456C71.6401 107.456 71.1089 107.456 70.5649 107.456C70.0208 107.456 69.4832 107.456 68.9521 107.456ZM66.9701 104.891C67.5919 104.891 68.0906 104.664 68.4663 104.211C68.8419 103.757 69.0298 103.161 69.0298 102.423C69.0298 101.684 68.8419 101.095 68.4663 100.655C68.0906 100.201 67.5919 99.9745 66.9701 99.9745C66.3353 99.9745 65.8301 100.195 65.4544 100.635C65.0917 101.076 64.9103 101.671 64.9103 102.423C64.9103 103.174 65.0917 103.777 65.4544 104.23C65.8301 104.67 66.3353 104.891 66.9701 104.891ZM77.8928 107.456C77.8928 105.111 77.8928 102.747 77.8928 100.363C77.8928 97.9795 77.8928 95.6154 77.8928 93.2707C78.4239 93.2707 78.9615 93.2707 79.5056 93.2707C80.0496 93.2707 80.5808 93.2707 81.0989 93.2707C81.0989 95.6154 81.0989 97.9795 81.0989 100.363C81.0989 102.747 81.0989 105.111 81.0989 107.456C80.5808 107.456 80.0496 107.456 79.5056 107.456C78.9615 107.456 78.4239 107.456 77.8928 107.456ZM94.606 107.456C94.606 105.279 94.606 103.077 94.606 100.849C94.606 98.6208 94.606 96.4185 94.606 94.2422C95.4092 94.2422 96.2123 94.2422 97.0155 94.2422C97.8316 94.2422 98.6348 94.2422 99.425 94.2422C100.422 94.2422 101.29 94.4365 102.029 94.8252C102.767 95.2008 103.344 95.732 103.758 96.4185C104.173 97.1051 104.38 97.9083 104.38 98.828C104.38 99.7348 104.173 100.532 103.758 101.218C103.357 101.905 102.8 102.436 102.087 102.811C101.388 103.187 100.591 103.375 99.697 103.375C99.412 103.375 99.127 103.375 98.842 103.375C98.57 103.375 98.2915 103.375 98.0065 103.375C98.0065 104.049 98.0065 104.729 98.0065 105.415C98.0065 106.102 98.0065 106.782 98.0065 107.456C97.4495 107.456 96.886 107.456 96.316 107.456C95.746 107.456 95.176 107.456 94.606 107.456ZM99.425 97.293C99.1918 97.293 98.9522 97.293 98.706 97.293C98.4729 97.293 98.2397 97.293 98.0065 97.293C98.0065 97.8111 98.0065 98.3358 98.0065 98.8669C98.0065 99.3851 98.0065 99.9032 98.0065 100.421C98.2656 100.421 98.5311 100.421 98.8032 100.421C99.0882 100.421 99.3602 100.421 99.6193 100.421C100.021 100.421 100.345 100.272 100.591 99.9745C100.85 99.6765 100.98 99.3073 100.98 98.8669C100.98 98.4135 100.843 98.0378 100.571 97.7399C100.299 97.4419 99.9173 97.293 99.425 97.293ZM115.847 107.456C115.847 107.352 115.847 107.255 115.847 107.164C115.847 107.06 115.847 106.963 115.847 106.873C115.523 107.145 115.154 107.352 114.739 107.494C114.338 107.65 113.904 107.728 113.437 107.728C112.777 107.728 112.155 107.605 111.572 107.358C110.989 107.099 110.471 106.737 110.018 106.27C109.577 105.791 109.227 105.227 108.968 104.58C108.722 103.932 108.599 103.213 108.599 102.423C108.599 101.62 108.722 100.894 108.968 100.247C109.227 99.5988 109.577 99.0483 110.018 98.5949C110.471 98.1285 110.989 97.7723 111.572 97.5261C112.155 97.2671 112.77 97.1375 113.418 97.1375C113.884 97.1375 114.325 97.2152 114.739 97.3707C115.154 97.5132 115.523 97.714 115.847 97.9731C115.847 97.8694 115.847 97.7723 115.847 97.6816C115.847 97.5909 115.847 97.5002 115.847 97.4095C116.378 97.4095 116.916 97.4095 117.46 97.4095C118.004 97.4095 118.535 97.4095 119.053 97.4095C119.053 99.0677 119.053 100.745 119.053 102.442C119.053 104.126 119.053 105.797 119.053 107.456C118.535 107.456 118.004 107.456 117.46 107.456C116.916 107.456 116.378 107.456 115.847 107.456ZM113.865 104.891C114.487 104.891 114.985 104.664 115.361 104.211C115.737 103.757 115.925 103.161 115.925 102.423C115.925 101.684 115.737 101.095 115.361 100.655C114.985 100.201 114.487 99.9745 113.865 99.9745C113.23 99.9745 112.725 100.195 112.349 100.635C111.987 101.076 111.805 101.671 111.805 102.423C111.805 103.174 111.987 103.777 112.349 104.23C112.725 104.67 113.23 104.891 113.865 104.891ZM132.366 104.347C132.366 105.15 132.139 105.81 131.686 106.329C131.245 106.834 130.649 107.203 129.898 107.436C129.147 107.669 128.305 107.766 127.372 107.728C126.452 107.702 125.513 107.553 124.554 107.281C124.554 106.788 124.554 106.283 124.554 105.765C124.554 105.247 124.554 104.742 124.554 104.249C125.099 104.496 125.643 104.69 126.187 104.832C126.731 104.962 127.223 105.04 127.663 105.066C128.104 105.091 128.46 105.059 128.732 104.968C129.004 104.865 129.14 104.696 129.14 104.463C129.14 104.282 129.024 104.139 128.791 104.036C128.57 103.932 128.279 103.841 127.916 103.764C127.553 103.673 127.165 103.569 126.75 103.453C126.349 103.323 125.966 103.148 125.604 102.928C125.241 102.695 124.943 102.39 124.71 102.015C124.49 101.626 124.38 101.127 124.38 100.519C124.38 99.7931 124.587 99.1778 125.001 98.6726C125.429 98.1544 125.999 97.7658 126.711 97.5067C127.424 97.2347 128.221 97.0986 129.101 97.0986C129.982 97.0986 130.883 97.2476 131.802 97.5456C131.802 98.0378 131.802 98.543 131.802 99.0612C131.802 99.5794 131.802 100.085 131.802 100.577C131.077 100.227 130.397 99.9939 129.762 99.8773C129.127 99.7607 128.616 99.7478 128.227 99.8385C127.838 99.9162 127.644 100.091 127.644 100.363C127.644 100.544 127.754 100.687 127.974 100.791C128.208 100.881 128.499 100.965 128.849 101.043C129.212 101.121 129.594 101.225 129.995 101.354C130.41 101.484 130.792 101.665 131.142 101.898C131.504 102.118 131.796 102.429 132.016 102.831C132.249 103.22 132.366 103.725 132.366 104.347ZM144.991 104.347C144.991 105.15 144.764 105.81 144.311 106.329C143.87 106.834 143.275 107.203 142.523 107.436C141.772 107.669 140.93 107.766 139.997 107.728C139.077 107.702 138.138 107.553 137.18 107.281C137.18 106.788 137.18 106.283 137.18 105.765C137.18 105.247 137.18 104.742 137.18 104.249C137.724 104.496 138.268 104.69 138.812 104.832C139.356 104.962 139.848 105.04 140.289 105.066C140.729 105.091 141.085 105.059 141.357 104.968C141.629 104.865 141.765 104.696 141.765 104.463C141.765 104.282 141.649 104.139 141.416 104.036C141.195 103.932 140.904 103.841 140.541 103.764C140.178 103.673 139.79 103.569 139.375 103.453C138.974 103.323 138.592 103.148 138.229 102.928C137.866 102.695 137.568 102.39 137.335 102.015C137.115 101.626 137.005 101.127 137.005 100.519C137.005 99.7931 137.212 99.1778 137.626 98.6726C138.054 98.1544 138.624 97.7658 139.336 97.5067C140.049 97.2347 140.846 97.0986 141.726 97.0986C142.607 97.0986 143.508 97.2476 144.427 97.5456C144.427 98.0378 144.427 98.543 144.427 99.0612C144.427 99.5794 144.427 100.085 144.427 100.577C143.702 100.227 143.022 99.9939 142.387 99.8773C141.752 99.7607 141.241 99.7478 140.852 99.8385C140.463 99.9162 140.269 100.091 140.269 100.363C140.269 100.544 140.379 100.687 140.599 100.791C140.833 100.881 141.124 100.965 141.474 101.043C141.837 101.121 142.219 101.225 142.62 101.354C143.035 101.484 143.417 101.665 143.767 101.898C144.129 102.118 144.421 102.429 144.641 102.831C144.874 103.22 144.991 103.725 144.991 104.347Z" fill="#036D33"/>
<path d="M0.312378 86.0586C1.18157 83.2504 2.05075 80.4089 2.91994 77.5339C3.80585 74.6589 4.68339 71.8173 5.55258 69.0091C6.53877 69.0091 7.53333 69.0091 8.53624 69.0091C9.55586 69.0091 10.5588 69.0091 11.545 69.0091C12.4142 71.8173 13.2833 74.6589 14.1525 77.5339C15.0384 80.4089 15.916 83.2504 16.7852 86.0586C16.0664 86.0586 15.3309 86.0586 14.5788 86.0586C13.8433 86.0586 13.1078 86.0586 12.3724 86.0586C12.2052 85.5237 12.0464 84.9888 11.896 84.4539C11.7455 83.9023 11.5868 83.3591 11.4196 82.8242C10.4668 82.8242 9.50571 82.8242 8.53624 82.8242C7.58347 82.8242 6.63071 82.8242 5.67794 82.8242C5.51079 83.3591 5.352 83.9023 5.20156 84.4539C5.05112 84.9888 4.89233 85.5237 4.72518 86.0586C4.00643 86.0586 3.27096 86.0586 2.51878 86.0586C1.78331 86.0586 1.04784 86.0586 0.312378 86.0586ZM6.78114 79.0884C7.36617 79.0884 7.9512 79.0884 8.53624 79.0884C9.13798 79.0884 9.73137 79.0884 10.3164 79.0884C10.0322 78.1022 9.73973 77.1076 9.43885 76.1047C9.13798 75.1018 8.84547 74.1073 8.56131 73.1211C8.27715 74.1073 7.97628 75.1018 7.65869 76.1047C7.35782 77.1076 7.0653 78.1022 6.78114 79.0884ZM18.4206 86.0586C18.4206 83.2504 18.4206 80.4089 18.4206 77.5339C18.4206 74.6589 18.4206 71.8173 18.4206 69.0091C19.4569 69.0091 20.4933 69.0091 21.5296 69.0091C22.5826 69.0091 23.619 69.0091 24.6386 69.0091C25.9257 69.0091 27.0456 69.2599 27.9984 69.7613C28.9511 70.2461 29.6949 70.9314 30.2298 71.8173C30.7647 72.7032 31.0322 73.7395 31.0322 74.9263C31.0322 76.0964 30.7647 77.1243 30.2298 78.0102C29.7117 78.8961 28.9929 79.5815 28.0736 80.0662C27.171 80.5509 26.143 80.7933 24.9896 80.7933C24.6219 80.7933 24.2542 80.7933 23.8864 80.7933C23.5354 80.7933 23.176 80.7933 22.8083 80.7933C22.8083 81.6625 22.8083 82.5401 22.8083 83.426C22.8083 84.3119 22.8083 85.1894 22.8083 86.0586C22.0896 86.0586 21.3624 86.0586 20.627 86.0586C19.8915 86.0586 19.156 86.0586 18.4206 86.0586ZM24.6386 72.9456C24.3377 72.9456 24.0285 72.9456 23.7109 72.9456C23.41 72.9456 23.1092 72.9456 22.8083 72.9456C22.8083 73.6142 22.8083 74.2911 22.8083 74.9764C22.8083 75.6451 22.8083 76.3137 22.8083 76.9823C23.1426 76.9823 23.4853 76.9823 23.8363 76.9823C24.204 76.9823 24.555 76.9823 24.8893 76.9823C25.4075 76.9823 25.8254 76.79 26.143 76.4056C26.4773 76.0211 26.6444 75.5448 26.6444 74.9764C26.6444 74.3914 26.4689 73.9067 26.1179 73.5222C25.7669 73.1378 25.2738 72.9456 24.6386 72.9456ZM36.9176 86.0586C37.7868 83.2504 38.656 80.4089 39.5252 77.5339C40.4111 74.6589 41.2886 71.8173 42.1578 69.0091C43.144 69.0091 44.1385 69.0091 45.1414 69.0091C46.1611 69.0091 47.164 69.0091 48.1502 69.0091C49.0194 71.8173 49.8886 74.6589 50.7577 77.5339C51.6436 80.4089 52.5212 83.2504 53.3904 86.0586C52.6716 86.0586 51.9362 86.0586 51.184 86.0586C50.4485 86.0586 49.713 86.0586 48.9776 86.0586C48.8104 85.5237 48.6516 84.9888 48.5012 84.4539C48.3508 83.9023 48.192 83.3591 48.0248 82.8242C47.072 82.8242 46.1109 82.8242 45.1414 82.8242C44.1887 82.8242 43.2359 82.8242 42.2832 82.8242C42.116 83.3591 41.9572 83.9023 41.8068 84.4539C41.6563 84.9888 41.4975 85.5237 41.3304 86.0586C40.6116 86.0586 39.8762 86.0586 39.124 86.0586C38.3885 86.0586 37.6531 86.0586 36.9176 86.0586ZM43.3864 79.0884C43.9714 79.0884 44.5564 79.0884 45.1414 79.0884C45.7432 79.0884 46.3366 79.0884 46.9216 79.0884C46.6375 78.1022 46.3449 77.1076 46.0441 76.1047C45.7432 75.1018 45.4507 74.1073 45.1665 73.1211C44.8824 74.1073 44.5815 75.1018 44.2639 76.1047C43.963 77.1076 43.6705 78.1022 43.3864 79.0884ZM64.6788 82.047C64.6788 83.0833 64.3863 83.9358 63.8012 84.6044C63.2329 85.2563 62.464 85.7326 61.4946 86.0335C60.5251 86.3344 59.4386 86.4598 58.2351 86.4096C57.0483 86.3762 55.8365 86.184 54.5996 85.8329C54.5996 85.1978 54.5996 84.5459 54.5996 83.8773C54.5996 83.2087 54.5996 82.5568 54.5996 81.9216C55.3016 82.2392 56.0036 82.4899 56.7057 82.6738C57.4077 82.8409 58.0429 82.9412 58.6112 82.9746C59.1795 83.0081 59.6392 82.9663 59.9902 82.8493C60.3412 82.7156 60.5167 82.4983 60.5167 82.1974C60.5167 81.9634 60.3663 81.7795 60.0654 81.6458C59.7813 81.5121 59.4052 81.3951 58.9371 81.2948C58.4691 81.1778 57.9677 81.044 57.4328 80.8936C56.9146 80.7265 56.4215 80.5008 55.9535 80.2166C55.4855 79.9158 55.101 79.523 54.8001 79.0382C54.516 78.5368 54.3739 77.8932 54.3739 77.1076C54.3739 76.1716 54.6413 75.3776 55.1762 74.7257C55.7278 74.0571 56.4633 73.5557 57.3826 73.2214C58.302 72.8703 59.3299 72.6948 60.4666 72.6948C61.6032 72.6948 62.7649 72.887 63.9517 73.2715C63.9517 73.9067 63.9517 74.5586 63.9517 75.2272C63.9517 75.8958 63.9517 76.5477 63.9517 77.1828C63.0156 76.7315 62.1381 76.4307 61.319 76.2802C60.5 76.1298 59.8398 76.1131 59.3383 76.2301C58.8368 76.3304 58.5861 76.556 58.5861 76.907C58.5861 77.1411 58.7282 77.3249 59.0124 77.4586C59.3132 77.5757 59.6893 77.6843 60.1406 77.7846C60.6087 77.8849 61.1017 78.0186 61.6199 78.1858C62.1548 78.3529 62.6479 78.5869 63.0992 78.8878C63.5672 79.1719 63.9433 79.5731 64.2275 80.0913C64.5284 80.5927 64.6788 81.2446 64.6788 82.047ZM76.4561 82.047C76.4561 83.0833 76.1636 83.9358 75.5786 84.6044C75.0103 85.2563 74.2414 85.7326 73.2719 86.0335C72.3024 86.3344 71.2159 86.4598 70.0124 86.4096C68.8257 86.3762 67.6138 86.184 66.3769 85.8329C66.3769 85.1978 66.3769 84.5459 66.3769 83.8773C66.3769 83.2087 66.3769 82.5568 66.3769 81.9216C67.0789 82.2392 67.781 82.4899 68.483 82.6738C69.185 82.8409 69.8202 82.9412 70.3885 82.9746C70.9568 83.0081 71.4165 82.9663 71.7675 82.8493C72.1185 82.7156 72.2941 82.4983 72.2941 82.1974C72.2941 81.9634 72.1436 81.7795 71.8427 81.6458C71.5586 81.5121 71.1825 81.3951 70.7145 81.2948C70.2464 81.1778 69.745 81.044 69.2101 80.8936C68.6919 80.7265 68.1988 80.5008 67.7308 80.2166C67.2628 79.9158 66.8783 79.523 66.5775 79.0382C66.2933 78.5368 66.1512 77.8932 66.1512 77.1076C66.1512 76.1716 66.4187 75.3776 66.9536 74.7257C67.5052 74.0571 68.2406 73.5557 69.16 73.2214C70.0793 72.8703 71.1073 72.6948 72.2439 72.6948C73.3805 72.6948 74.5422 72.887 75.729 73.2715C75.729 73.9067 75.729 74.5586 75.729 75.2272C75.729 75.8958 75.729 76.5477 75.729 77.1828C74.793 76.7315 73.9154 76.4307 73.0964 76.2802C72.2773 76.1298 71.6171 76.1131 71.1156 76.2301C70.6142 76.3304 70.3634 76.556 70.3634 76.907C70.3634 77.1411 70.5055 77.3249 70.7897 77.4586C71.0906 77.5757 71.4667 77.6843 71.918 77.7846C72.386 77.8849 72.8791 78.0186 73.3973 78.1858C73.9321 78.3529 74.4252 78.5869 74.8765 78.8878C75.3446 79.1719 75.7207 79.5731 76.0048 80.0913C76.3057 80.5927 76.4561 81.2446 76.4561 82.047ZM89.6095 85.4568C88.4562 85.9416 87.3112 86.2425 86.1745 86.3595C85.0379 86.4765 83.9598 86.4096 82.9402 86.1589C81.9373 85.9249 81.043 85.5154 80.2574 84.9303C79.4718 84.3453 78.8533 83.6015 78.402 82.6988C77.9674 81.7962 77.7501 80.7515 77.7501 79.5648C77.7501 78.5786 77.9089 77.6759 78.2265 76.8569C78.5608 76.0211 79.0288 75.294 79.6306 74.6756C80.2323 74.0404 80.9427 73.5557 81.7617 73.2214C82.5808 72.8703 83.475 72.6948 84.4445 72.6948C85.3137 72.6948 86.0993 72.8369 86.8014 73.1211C87.5034 73.4052 88.1135 73.8064 88.6317 74.3246C89.1498 74.826 89.5677 75.4278 89.8853 76.1298C90.2029 76.8318 90.4035 77.6007 90.4871 78.4365C90.5706 79.2722 90.5205 80.1581 90.3366 81.0942C88.966 81.0942 87.587 81.0942 86.1996 81.0942C84.8123 81.0942 83.4333 81.0942 82.0626 81.0942C82.3802 81.7294 82.9067 82.1807 83.6422 82.4481C84.3944 82.7156 85.2803 82.7991 86.2999 82.6988C87.3362 82.5986 88.4394 82.3311 89.6095 81.8965C89.6095 82.4815 89.6095 83.0749 89.6095 83.6767C89.6095 84.2784 89.6095 84.8718 89.6095 85.4568ZM84.3442 76.4056C83.8595 76.4056 83.4082 76.5393 82.9903 76.8068C82.5891 77.0742 82.2799 77.4837 82.0626 78.0353C82.8148 78.0353 83.567 78.0353 84.3192 78.0353C85.0881 78.0353 85.8486 78.0353 86.6008 78.0353C86.4002 77.467 86.0993 77.0575 85.6982 76.8068C85.3137 76.5393 84.8624 76.4056 84.3442 76.4056ZM92.678 86.0586C92.678 83.9191 92.678 81.7628 92.678 79.5898C92.678 77.4001 92.678 75.2355 92.678 73.096C93.3633 73.096 94.057 73.096 94.759 73.096C95.4611 73.096 96.1464 73.096 96.815 73.096C96.815 73.213 96.815 73.3216 96.815 73.4219C96.815 73.5222 96.815 73.6309 96.815 73.7479C97.2496 73.4303 97.7343 73.1879 98.2692 73.0208C98.8041 72.8369 99.3557 72.745 99.924 72.745C100.542 72.745 101.111 72.8536 101.629 73.0709C102.147 73.2715 102.59 73.5724 102.958 73.9735C103.493 73.5891 104.094 73.2882 104.763 73.0709C105.448 72.8536 106.15 72.745 106.869 72.745C107.889 72.745 108.766 72.9539 109.502 73.3718C110.254 73.7897 110.831 74.3831 111.232 75.152C111.65 75.9209 111.859 76.8485 111.859 77.935C111.859 79.2722 111.859 80.6262 111.859 81.9968C111.859 83.3675 111.859 84.7214 111.859 86.0586C111.19 86.0586 110.505 86.0586 109.803 86.0586C109.101 86.0586 108.407 86.0586 107.722 86.0586C107.722 84.805 107.722 83.5346 107.722 82.2475C107.722 80.9605 107.722 79.6901 107.722 78.4365C107.722 77.8682 107.588 77.4085 107.32 77.0575C107.07 76.6897 106.66 76.5059 106.092 76.5059C105.54 76.5059 105.106 76.6814 104.788 77.0324C104.487 77.3667 104.337 77.8347 104.337 78.4365C104.337 79.6901 104.337 80.9605 104.337 82.2475C104.337 83.5346 104.337 84.805 104.337 86.0586C103.668 86.0586 102.983 86.0586 102.281 86.0586C101.579 86.0586 100.885 86.0586 100.2 86.0586C100.2 84.805 100.2 83.5346 100.2 82.2475C100.2 80.9605 100.2 79.6901 100.2 78.4365C100.2 77.8682 100.066 77.4085 99.7986 77.0575C99.5479 76.6897 99.1384 76.5059 98.5701 76.5059C98.0185 76.5059 97.5839 76.6814 97.2663 77.0324C96.9654 77.3667 96.815 77.8347 96.815 78.4365C96.815 79.6901 96.815 80.9605 96.815 82.2475C96.815 83.5346 96.815 84.805 96.815 86.0586C96.1464 86.0586 95.4611 86.0586 94.759 86.0586C94.057 86.0586 93.3633 86.0586 92.678 86.0586ZM118.561 86.0586C117.892 86.0586 117.207 86.0586 116.505 86.0586C115.803 86.0586 115.109 86.0586 114.424 86.0586C114.424 83.0332 114.424 79.9826 114.424 76.907C114.424 73.8315 114.424 70.7809 114.424 67.7555C115.109 67.7555 115.803 67.7555 116.505 67.7555C117.207 67.7555 117.892 67.7555 118.561 67.7555C118.561 68.7584 118.561 69.7697 118.561 70.7893C118.561 71.8089 118.561 72.8202 118.561 73.8231C118.979 73.4888 119.455 73.2297 119.99 73.0458C120.525 72.8453 121.093 72.745 121.695 72.745C122.531 72.745 123.325 72.9121 124.077 73.2464C124.829 73.564 125.489 74.0237 126.057 74.6254C126.642 75.2272 127.094 75.9459 127.411 76.7817C127.746 77.6174 127.913 78.5451 127.913 79.5648C127.913 80.5677 127.746 81.487 127.411 82.3228C127.094 83.1585 126.642 83.8856 126.057 84.5041C125.489 85.1058 124.829 85.5739 124.077 85.9082C123.325 86.2425 122.522 86.4096 121.67 86.4096C121.068 86.4096 120.5 86.3093 119.965 86.1087C119.447 85.9249 118.979 85.6574 118.561 85.3064C118.561 85.4234 118.561 85.5488 118.561 85.6825C118.561 85.7995 118.561 85.9249 118.561 86.0586ZM121.118 82.749C121.937 82.749 122.581 82.4648 123.049 81.8965C123.533 81.3115 123.776 80.5342 123.776 79.5648C123.776 78.5953 123.533 77.8264 123.049 77.2581C122.581 76.6897 121.937 76.4056 121.118 76.4056C120.316 76.4056 119.672 76.6981 119.188 77.2831C118.703 77.8515 118.46 78.612 118.46 79.5648C118.46 80.5175 118.703 81.2864 119.188 81.8714C119.672 82.4565 120.316 82.749 121.118 82.749ZM130.094 86.0586C130.094 83.0332 130.094 79.9826 130.094 76.907C130.094 73.8315 130.094 70.7809 130.094 67.7555C130.779 67.7555 131.473 67.7555 132.175 67.7555C132.877 67.7555 133.563 67.7555 134.231 67.7555C134.231 70.7809 134.231 73.8315 134.231 76.907C134.231 79.9826 134.231 83.0332 134.231 86.0586C133.563 86.0586 132.877 86.0586 132.175 86.0586C131.473 86.0586 130.779 86.0586 130.094 86.0586ZM138.322 90.0702C138.656 89.1843 138.999 88.2901 139.35 87.3874C139.718 86.5015 140.069 85.624 140.403 84.7548C139.617 82.8326 138.815 80.8936 137.996 78.9379C137.194 76.9655 136.4 75.0182 135.614 73.096C136.35 73.096 137.085 73.096 137.82 73.096C138.556 73.096 139.283 73.096 140.002 73.096C140.436 74.1658 140.871 75.2522 141.306 76.3554C141.757 77.4586 142.2 78.5535 142.634 79.64C143.036 78.5535 143.445 77.4586 143.863 76.3554C144.281 75.2522 144.69 74.1658 145.092 73.096C145.81 73.096 146.529 73.096 147.248 73.096C147.967 73.096 148.685 73.096 149.404 73.096C148.284 75.8874 147.156 78.7206 146.019 81.5956C144.899 84.4539 143.779 87.2788 142.66 90.0702C141.941 90.0702 141.214 90.0702 140.478 90.0702C139.759 90.0702 139.041 90.0702 138.322 90.0702Z" fill="#111827"/>
</svg>
