<svg width="16" height="13" viewBox="0 0 16 13" fill="none" xmlns="http://www.w3.org/2000/svg">
<path d="M7.87432 0C5.66494 0 3.8958 1.00625 2.60791 2.20391C1.32822 3.39062 0.472363 4.8125 0.0676758 5.78867C-0.0225586 6.00469 -0.0225586 6.24531 0.0676758 6.46133C0.472363 7.4375 1.32822 8.85938 2.60791 10.0461C3.8958 11.2437 5.66494 12.25 7.87432 12.25C10.0837 12.25 11.8528 11.2437 13.1407 10.0461C14.4204 8.85664 15.2763 7.4375 15.6837 6.46133C15.7739 6.24531 15.7739 6.00469 15.6837 5.78867C15.2763 4.8125 14.4204 3.39062 13.1407 2.20391C11.8528 1.00625 10.0837 0 7.87432 0ZM3.93682 6.125C3.93682 5.08071 4.35166 4.07919 5.09008 3.34077C5.82851 2.60234 6.83003 2.1875 7.87432 2.1875C8.91861 2.1875 9.92013 2.60234 10.6585 3.34077C11.397 4.07919 11.8118 5.08071 11.8118 6.125C11.8118 7.16929 11.397 8.17081 10.6585 8.90923C9.92013 9.64766 8.91861 10.0625 7.87432 10.0625C6.83003 10.0625 5.82851 9.64766 5.09008 8.90923C4.35166 8.17081 3.93682 7.16929 3.93682 6.125ZM7.87432 4.375C7.87432 5.34023 7.08955 6.125 6.12432 6.125C5.93018 6.125 5.74424 6.09219 5.56924 6.03477C5.41885 5.98555 5.24385 6.07852 5.24932 6.23711C5.25752 6.42578 5.28486 6.61445 5.33682 6.80312C5.71143 8.20312 7.15244 9.03438 8.55244 8.65977C9.95244 8.28516 10.7837 6.84414 10.4091 5.44414C10.1056 4.30938 9.10205 3.54648 7.98643 3.5C7.82783 3.49453 7.73486 3.6668 7.78408 3.81992C7.8415 3.99492 7.87432 4.18086 7.87432 4.375Z" fill="#64748B"/>
</svg>
