<svg width="12" height="12" viewBox="0 0 12 12" fill="none" xmlns="http://www.w3.org/2000/svg">
<g clip-path="url(#clip0_2173_8152)">
<path d="M5.5 0V1.5H6.5V0H5.5ZM2.11133 1.4043L1.4043 2.11133L2.46484 3.17188L3.17188 2.46484L2.11133 1.4043ZM9.88867 1.4043L8.82812 2.46484L9.53516 3.17188L10.5957 2.11133L9.88867 1.4043ZM6 2.5C4.07293 2.5 2.5 4.07293 2.5 6C2.5 7.92707 4.07293 9.5 6 9.5C7.92707 9.5 9.5 7.92707 9.5 6C9.5 4.07293 7.92707 2.5 6 2.5ZM6 3.5C7.38663 3.5 8.5 4.61337 8.5 6C8.5 7.38663 7.38663 8.5 6 8.5C4.61337 8.5 3.5 7.38663 3.5 6C3.5 4.61337 4.61337 3.5 6 3.5ZM0 5.5V6.5H1.5V5.5H0ZM10.5 5.5V6.5H12V5.5H10.5ZM2.46484 8.82812L1.4043 9.88867L2.11133 10.5957L3.17188 9.53516L2.46484 8.82812ZM9.53516 8.82812L8.82812 9.53516L9.88867 10.5957L10.5957 9.88867L9.53516 8.82812ZM5.5 10.5V12H6.5V10.5H5.5Z" fill="black"/>
</g>
<defs>
<clipPath id="clip0_2173_8152">
<rect width="12" height="12" fill="white"/>
</clipPath>
</defs>
</svg>
