<svg width="16" height="14" viewBox="0 0 16 14" fill="none" xmlns="http://www.w3.org/2000/svg">
<path d="M6.80937 2.30938L10.6469 6.14687C10.8719 6.37187 11 6.68125 11 7C11 7.31875 10.8719 7.62812 10.6469 7.85312L6.80937 11.6906C6.60938 11.8906 6.34062 12 6.05937 12C5.475 12 5 11.525 5 10.9406V9H1C0.446875 9 0 8.55313 0 8V6C0 5.44688 0.446875 5 1 5H5V3.05937C5 2.475 5.475 2 6.05937 2C6.34062 2 6.60938 2.1125 6.80937 2.30938ZM11 12H13C13.5531 12 14 11.5531 14 11V3C14 2.44688 13.5531 2 13 2H11C10.4469 2 10 1.55313 10 1C10 0.446875 10.4469 0 11 0H13C14.6562 0 16 1.34375 16 3V11C16 12.6562 14.6562 14 13 14H11C10.4469 14 10 13.5531 10 13C10 12.4469 10.4469 12 11 12Z" fill="white"/>
</svg>
