<svg width="31" height="30" viewBox="0 0 31 30" fill="none" xmlns="http://www.w3.org/2000/svg">
<path d="M14.8159 0.634277C6.99779 0.634277 0.634399 6.99766 0.634399 14.8158C0.634399 22.6338 6.99779 28.9972 14.8159 28.9972C17.8353 28.9972 20.6264 28.0298 22.9153 26.419C23.1718 26.2387 23.3462 25.9639 23.4001 25.6551C23.4539 25.3462 23.3829 25.0286 23.2027 24.7721C23.0224 24.5156 22.7476 24.3412 22.4387 24.2873C22.1299 24.2334 21.8123 24.3044 21.5558 24.4847C19.6399 25.8331 17.332 26.6337 14.8159 26.6337C8.27522 26.6337 2.99798 21.3564 2.99798 14.8158C2.99798 8.2751 8.27522 2.99786 14.8159 2.99786C17.332 2.99786 19.6399 3.79843 21.5558 5.14678C21.6828 5.23604 21.8261 5.29942 21.9776 5.33329C22.1291 5.36716 22.2858 5.37086 22.4387 5.34417C22.5917 5.31749 22.7378 5.26094 22.8689 5.17777C23 5.09459 23.1134 4.98641 23.2027 4.85941C23.2919 4.7324 23.3553 4.58906 23.3892 4.43756C23.423 4.28606 23.4267 4.12937 23.4001 3.97645C23.3734 3.82352 23.3168 3.67734 23.2337 3.54627C23.1505 3.41519 23.0423 3.30179 22.9153 3.21252C20.6264 1.60166 17.8353 0.634277 14.8159 0.634277ZM24.2587 8.89526C24.0236 8.89533 23.7938 8.9655 23.5988 9.09681C23.4038 9.22813 23.2524 9.41461 23.1639 9.63243C23.0755 9.85025 23.054 10.0895 23.1022 10.3196C23.1504 10.5497 23.2662 10.7602 23.4346 10.9242L26.1444 13.634H13.6341C13.4775 13.6318 13.322 13.6607 13.1767 13.7191C13.0314 13.7775 12.8991 13.8642 12.7876 13.9741C12.676 14.0841 12.5875 14.2151 12.527 14.3596C12.4666 14.5041 12.4355 14.6591 12.4355 14.8158C12.4355 14.9724 12.4666 15.1274 12.527 15.2719C12.5875 15.4164 12.676 15.5474 12.7876 15.6574C12.8991 15.7673 13.0314 15.854 13.1767 15.9124C13.322 15.9708 13.4775 15.9998 13.6341 15.9975H26.1444L23.4346 18.7074C23.3212 18.8162 23.2307 18.9467 23.1683 19.091C23.1059 19.2353 23.0729 19.3907 23.0713 19.5479C23.0697 19.7051 23.0995 19.8611 23.159 20.0067C23.2184 20.1522 23.3063 20.2845 23.4174 20.3957C23.5286 20.5068 23.6609 20.5947 23.8064 20.6542C23.952 20.7136 24.108 20.7434 24.2652 20.7418C24.4224 20.7402 24.5778 20.7072 24.7221 20.6448C24.8664 20.5825 24.9969 20.4919 25.1058 20.3785L29.729 15.7552C29.8738 15.6447 29.9911 15.5023 30.0718 15.3391C30.1525 15.1758 30.1943 14.9961 30.1941 14.814C30.1939 14.6319 30.1516 14.4523 30.0705 14.2893C29.9894 14.1262 29.8718 13.9841 29.7267 13.874L25.1058 9.25303C24.9956 9.13982 24.8639 9.04984 24.7184 8.98839C24.5729 8.92694 24.4166 8.89527 24.2587 8.89526Z" fill="#111827" stroke="#111827" stroke-width="1.26884"/>
</svg>
