<svg width="13" height="14" viewBox="0 0 13 14" fill="none" xmlns="http://www.w3.org/2000/svg">
<g clip-path="url(#clip0_2170_3002)">
<path d="M3.9375 3.9375V5.25H8.3125V3.9375C8.3125 2.72891 7.33359 1.75 6.125 1.75C4.91641 1.75 3.9375 2.72891 3.9375 3.9375ZM2.1875 5.25V3.9375C2.1875 1.76367 3.95117 0 6.125 0C8.29883 0 10.0625 1.76367 10.0625 3.9375V5.25H10.5C11.4652 5.25 12.25 6.03477 12.25 7V12.25C12.25 13.2152 11.4652 14 10.5 14H1.75C0.784766 14 0 13.2152 0 12.25V7C0 6.03477 0.784766 5.25 1.75 5.25H2.1875Z" fill="#64748B"/>
</g>
<defs>
<clipPath id="clip0_2170_3002">
<path d="M0 0H12.25V14H0V0Z" fill="white"/>
</clipPath>
</defs>
</svg>
