<svg width="11" height="11" viewBox="0 0 11 11" fill="none" xmlns="http://www.w3.org/2000/svg">
<g clip-path="url(#clip0_2361_5165)">
<path d="M2.53292 7.59933H1.68858C1.46464 7.59933 1.24988 7.51037 1.09154 7.35203C0.933195 7.19368 0.844238 6.97892 0.844238 6.75499V4.64414C0.844238 4.42021 0.933195 4.20545 1.09154 4.04711C1.24988 3.88876 1.46464 3.7998 1.68858 3.7998H8.44329C8.66722 3.7998 8.88198 3.88876 9.04032 4.04711C9.19867 4.20545 9.28762 4.42021 9.28762 4.64414V6.75499C9.28762 6.97892 9.19867 7.19368 9.04032 7.35203C8.88198 7.51037 8.66722 7.59933 8.44329 7.59933H7.59895" stroke="#457E51" stroke-width="1.26733" stroke-linecap="round" stroke-linejoin="round"/>
<path d="M2.53296 3.79991V1.2669C2.53296 1.15493 2.57744 1.04755 2.65661 0.968377C2.73578 0.889205 2.84316 0.844727 2.95513 0.844727H7.17682C7.28879 0.844727 7.39617 0.889205 7.47534 0.968377C7.55451 1.04755 7.59899 1.15493 7.59899 1.2669V3.79991" stroke="#457E51" stroke-width="1.26733" stroke-linecap="round" stroke-linejoin="round"/>
<path d="M7.17682 5.91016H2.95513C2.72197 5.91016 2.53296 6.09917 2.53296 6.33233V8.86534C2.53296 9.0985 2.72197 9.28751 2.95513 9.28751H7.17682C7.40998 9.28751 7.59899 9.0985 7.59899 8.86534V6.33233C7.59899 6.09917 7.40998 5.91016 7.17682 5.91016Z" stroke="#457E51" stroke-width="1.26733" stroke-linecap="round" stroke-linejoin="round"/>
</g>
<defs>
<clipPath id="clip0_2361_5165">
<rect width="10.1321" height="10.1321" fill="white"/>
</clipPath>
</defs>
</svg>
