<svg width="14" height="14" viewBox="0 0 14 14" fill="none" xmlns="http://www.w3.org/2000/svg">
<path d="M4.04688 12.0094L3.70234 12.816C3.19102 12.5563 2.7207 12.2363 2.29414 11.8617L2.91484 11.241C3.25664 11.5391 3.63672 11.7988 4.04688 12.0094ZM0.877734 7.20508H0C0.0382813 7.78477 0.147656 8.34531 0.319922 8.87578L1.13477 8.55039C1.00078 8.12109 0.910547 7.66992 0.877734 7.20508ZM0.877734 6.33008C0.916016 5.81602 1.01992 5.31836 1.18125 4.85078L0.374609 4.50625C0.169531 5.08047 0.0410156 5.69297 0 6.33008H0.877734ZM1.52578 4.04688C1.73906 3.63945 1.99609 3.25938 2.29414 2.91211L1.67344 2.29141C1.29883 2.71797 0.976172 3.18828 0.719141 3.69961L1.52578 4.04688ZM10.623 11.241C10.243 11.5691 9.81914 11.8508 9.3625 12.0723L9.68789 12.8871C10.2539 12.6164 10.7762 12.2691 11.2438 11.859L10.623 11.241ZM2.91211 2.29414C3.29219 1.96602 3.71602 1.68438 4.17266 1.46289L3.84727 0.648047C3.28125 0.91875 2.75898 1.26602 2.29414 1.67617L2.91211 2.29414ZM12.0094 9.48828C11.7961 9.8957 11.5391 10.2758 11.241 10.623L11.8617 11.2438C12.2363 10.8172 12.559 10.3441 12.816 9.83555L12.0094 9.48828ZM12.6574 7.20508C12.6191 7.71914 12.5152 8.2168 12.3539 8.68437L13.1605 9.02891C13.3656 8.45195 13.4941 7.83945 13.5324 7.20234H12.6574V7.20508ZM8.55039 12.4004C8.12109 12.5371 7.66992 12.6246 7.20508 12.6574V13.5352C7.78477 13.4969 8.34531 13.3875 8.87578 13.2152L8.55039 12.4004ZM6.33008 12.6574C5.81602 12.6191 5.31836 12.5152 4.85078 12.3539L4.50625 13.1605C5.0832 13.3656 5.6957 13.4941 6.33281 13.5324V12.6574H6.33008ZM12.4004 4.98477C12.5371 5.41406 12.6246 5.86523 12.6574 6.33008H13.5352C13.4969 5.75039 13.3875 5.18984 13.2152 4.65937L12.4004 4.98477ZM2.29414 10.623C1.96602 10.243 1.68438 9.81914 1.46289 9.3625L0.648047 9.68789C0.91875 10.2539 1.26602 10.7762 1.67617 11.2438L2.29414 10.623ZM7.20508 0.877734C7.71914 0.916016 8.21406 1.01992 8.68437 1.18125L9.02891 0.374609C8.45469 0.169531 7.84219 0.0410156 7.20508 0V0.877734ZM4.98477 1.13477C5.41406 0.998047 5.86523 0.910547 6.33008 0.877734V0C5.75039 0.0382813 5.18984 0.147656 4.65937 0.319922L4.98477 1.13477ZM11.8617 2.29141L11.241 2.91211C11.5691 3.29219 11.8508 3.71602 12.075 4.17266L12.8898 3.84727C12.6191 3.28125 12.2719 2.75898 11.8617 2.29141ZM10.623 2.29414L11.2438 1.67344C10.8172 1.29883 10.3469 0.976172 9.83555 0.719141L9.49102 1.52578C9.8957 1.73906 10.2785 1.99609 10.623 2.29414Z" fill="#111827"/>
<path d="M6.76758 10.4863C7.19042 10.4863 7.5332 10.1435 7.5332 9.7207C7.5332 9.29786 7.19042 8.95508 6.76758 8.95508C6.34474 8.95508 6.00195 9.29786 6.00195 9.7207C6.00195 10.1435 6.34474 10.4863 6.76758 10.4863Z" fill="#111827"/>
<path d="M6.97812 8.29883H6.54062C6.36016 8.29883 6.2125 8.15117 6.2125 7.9707C6.2125 6.0293 8.32891 6.22344 8.32891 5.02305C8.32891 4.47617 7.84219 3.92383 6.75937 3.92383C5.96367 3.92383 5.54805 4.18633 5.14062 4.70859C5.03398 4.84531 4.83711 4.87266 4.69766 4.77422L4.33945 4.52266C4.18633 4.41602 4.15078 4.2 4.26836 4.05234C4.84805 3.30859 5.53711 2.83008 6.76211 2.83008C8.19219 2.83008 9.42539 3.64492 9.42539 5.02305C9.42539 6.87148 7.30898 6.75938 7.30898 7.9707C7.30625 8.15117 7.15859 8.29883 6.97812 8.29883Z" fill="#111827"/>
</svg>
