<svg width="40" height="40" viewBox="0 0 40 40" fill="none" xmlns="http://www.w3.org/2000/svg">
<circle cx="20" cy="20" r="20" fill="#DCFCE7"/>
<path d="M17.75 14H22.25C22.3875 14 22.5 14.1125 22.5 14.25V15.5H17.5V14.25C17.5 14.1125 17.6125 14 17.75 14ZM16 14.25V15.5H14C12.8969 15.5 12 16.3969 12 17.5V20.5H18H22H28V17.5C28 16.3969 27.1031 15.5 26 15.5H24V14.25C24 13.2844 23.2156 12.5 22.25 12.5H17.75C16.7844 12.5 16 13.2844 16 14.25ZM28 21.5H22V22.5C22 23.0531 21.5531 23.5 21 23.5H19C18.4469 23.5 18 23.0531 18 22.5V21.5H12V25.5C12 26.6031 12.8969 27.5 14 27.5H26C27.1031 27.5 28 26.6031 28 25.5V21.5Z" fill="#16A34A"/>
</svg>
