<svg width="20" height="20" viewBox="0 0 20 20" fill="none" xmlns="http://www.w3.org/2000/svg">
<path d="M2.5 5.83333V4.16667C2.5 3.72464 2.67559 3.30072 2.98816 2.98816C3.30072 2.67559 3.72464 2.5 4.16667 2.5H5.83333" stroke="#166534" stroke-width="2" stroke-linecap="round" stroke-linejoin="round"/>
<path d="M14.1667 2.5H15.8334C16.2754 2.5 16.6994 2.67559 17.0119 2.98816C17.3245 3.30072 17.5001 3.72464 17.5001 4.16667V5.83333" stroke="#166534" stroke-width="2" stroke-linecap="round" stroke-linejoin="round"/>
<path d="M17.5001 14.166V15.8327C17.5001 16.2747 17.3245 16.6986 17.0119 17.0112C16.6994 17.3238 16.2754 17.4993 15.8334 17.4993H14.1667" stroke="#166534" stroke-width="2" stroke-linecap="round" stroke-linejoin="round"/>
<path d="M5.83333 17.4993H4.16667C3.72464 17.4993 3.30072 17.3238 2.98816 17.0112C2.67559 16.6986 2.5 16.2747 2.5 15.8327V14.166" stroke="#166534" stroke-width="2" stroke-linecap="round" stroke-linejoin="round"/>
<path d="M5.83325 10H14.1666" stroke="#166534" stroke-width="2" stroke-linecap="round" stroke-linejoin="round"/>
</svg>
