<svg width="9" height="10" viewBox="0 0 9 10" fill="none" xmlns="http://www.w3.org/2000/svg">
<path d="M6.96646 3.1668C7.66593 3.1668 8.23297 2.59977 8.23297 1.9003C8.23297 1.20082 7.66593 0.633789 6.96646 0.633789C6.26699 0.633789 5.69995 1.20082 5.69995 1.9003C5.69995 2.59977 6.26699 3.1668 6.96646 3.1668Z" stroke="#457E51" stroke-width="1.26733" stroke-linecap="round" stroke-linejoin="round"/>
<path d="M1.90005 6.12188C2.59953 6.12188 3.16656 5.55485 3.16656 4.85538C3.16656 4.1559 2.59953 3.58887 1.90005 3.58887C1.20058 3.58887 0.633545 4.1559 0.633545 4.85538C0.633545 5.55485 1.20058 6.12188 1.90005 6.12188Z" stroke="#457E51" stroke-width="1.26733" stroke-linecap="round" stroke-linejoin="round"/>
<path d="M6.96597 9.07647C7.66544 9.07647 8.23248 8.50944 8.23248 7.80996C8.23248 7.11049 7.66544 6.54346 6.96597 6.54346C6.2665 6.54346 5.69946 7.11049 5.69946 7.80996C5.69946 8.50944 6.2665 9.07647 6.96597 9.07647Z" stroke="#457E51" stroke-width="1.26733" stroke-linecap="round" stroke-linejoin="round"/>
<path d="M2.9939 5.49316L5.87731 7.1734" stroke="#457E51" stroke-width="1.26733" stroke-linecap="round" stroke-linejoin="round"/>
<path d="M5.87309 2.53809L2.9939 4.21832" stroke="#457E51" stroke-width="1.26733" stroke-linecap="round" stroke-linejoin="round"/>
</svg>
