<svg width="40" height="40" viewBox="0 0 40 40" fill="none" xmlns="http://www.w3.org/2000/svg">
<circle cx="20" cy="20" r="20" fill="#DCFCE7"/>
<path d="M19.5139 18.5137C20.5748 18.5137 21.5922 18.0922 22.3423 17.3421C23.0925 16.592 23.5139 15.5745 23.5139 14.5137C23.5139 13.4528 23.0925 12.4354 22.3423 11.6852C21.5922 10.9351 20.5748 10.5137 19.5139 10.5137C18.4531 10.5137 17.4356 10.9351 16.6855 11.6852C15.9353 12.4354 15.5139 13.4528 15.5139 14.5137C15.5139 15.5745 15.9353 16.592 16.6855 17.3421C17.4356 18.0922 18.4531 18.5137 19.5139 18.5137ZM18.0858 20.0137C15.0077 20.0137 12.5139 22.5074 12.5139 25.5855C12.5139 26.098 12.9295 26.5137 13.442 26.5137H25.5858C26.0983 26.5137 26.5139 26.098 26.5139 25.5855C26.5139 22.5074 24.0202 20.0137 20.942 20.0137H18.0858Z" fill="#16A34A"/>
</svg>
