<svg width="209" height="225" viewBox="0 0 209 225" fill="none" xmlns="http://www.w3.org/2000/svg">
<path d="M178.917 51.0263C184.142 41.3234 180.512 29.2218 170.809 23.9967C161.106 18.7716 149.004 22.4016 143.779 32.1046C138.554 41.8075 142.184 53.9091 151.887 59.1342C161.59 64.3593 173.692 60.7293 178.917 51.0263Z" fill="#41415B"/>
<path d="M161.362 59.2164C171.114 59.2164 179.019 51.3109 179.019 41.5589C179.019 31.8069 171.114 23.9014 161.362 23.9014C151.61 23.9014 143.704 31.8069 143.704 41.5589C143.704 51.3109 151.61 59.2164 161.362 59.2164Z" fill="#F4F4F4"/>
<path d="M164.396 58.1941C154.932 59.9525 145.834 53.8063 143.888 44.4246C143.909 44.5481 143.925 44.671 143.947 44.7939C145.729 54.3822 154.945 60.7102 164.533 58.9287C174.122 57.1472 180.45 47.9307 178.668 38.3423C178.645 38.2188 178.616 38.0985 178.591 37.9763C180.144 47.4315 173.861 56.4356 164.396 58.1941Z" fill="black"/>
<path d="M158.42 25.7313C167.751 23.9978 176.728 29.9463 178.845 39.1034C178.808 38.8468 178.769 38.5902 178.722 38.3336C176.94 28.7452 167.724 22.4172 158.136 24.1987C148.547 25.9802 142.219 35.1968 144.001 44.7851C144.049 45.0423 144.104 45.2957 144.163 45.5478C142.849 36.2404 149.09 27.4648 158.42 25.7313Z" fill="black"/>
<path d="M159.491 31.2135C159.165 31.2724 158.851 31.0542 158.791 30.7278L158.182 27.3574C158.123 27.0317 158.341 26.7169 158.668 26.658C158.993 26.5992 159.308 26.8174 159.368 27.1437L159.978 30.5141C160.035 30.8398 159.817 31.1546 159.491 31.2135Z" fill="#DD3E4B"/>
<path d="M164.099 56.6979C163.774 56.7567 163.459 56.5385 163.4 56.2122L162.791 52.8418C162.732 52.5161 162.95 52.2013 163.276 52.1424C163.602 52.0835 163.917 52.3017 163.976 52.6281L164.586 55.9985C164.643 56.3235 164.425 56.6384 164.099 56.6979Z" fill="#DD3E4B"/>
<path d="M173.159 39.5478C173.1 39.2221 173.319 38.9073 173.644 38.8478L177.015 38.2386C177.34 38.1797 177.655 38.3979 177.715 38.7243C177.774 39.05 177.555 39.3648 177.229 39.4243L173.859 40.0335C173.533 40.0924 173.218 39.8736 173.159 39.5478Z" fill="#DD3E4B"/>
<path d="M145.111 44.6199C145.052 44.2942 145.27 43.9793 145.597 43.9198L148.967 43.3106C149.293 43.2517 149.608 43.47 149.667 43.7963C149.726 44.122 149.508 44.4369 149.181 44.4957L145.811 45.1049C145.485 45.1638 145.17 44.9456 145.111 44.6199Z" fill="#DD3E4B"/>
<path d="M168.263 31.8558C167.991 31.667 167.922 31.2901 168.111 31.0175L170.063 28.2032C170.252 27.9312 170.629 27.8628 170.902 28.0515C171.173 28.2403 171.242 28.6172 171.053 28.8898L169.101 31.7041C168.912 31.9767 168.535 32.0445 168.263 31.8558Z" fill="#DD3E4B"/>
<path d="M152.015 55.2754C151.743 55.0867 151.675 54.7098 151.864 54.4372L153.816 51.6229C154.005 51.3509 154.382 51.2824 154.654 51.4712C154.926 51.66 154.995 52.0369 154.806 52.3095L152.854 55.1238C152.664 55.3957 152.287 55.4642 152.015 55.2754Z" fill="#DD3E4B"/>
<path d="M171.205 48.5572C171.394 48.2852 171.771 48.2168 172.043 48.4055L174.858 50.3579C175.13 50.5467 175.198 50.9236 175.009 51.1962C174.82 51.4681 174.444 51.5366 174.171 51.3478L171.357 49.3955C171.084 49.2061 171.016 48.8292 171.205 48.5572Z" fill="#DD3E4B"/>
<path d="M147.785 32.3099C147.974 32.0379 148.351 31.9695 148.624 32.1582L151.438 34.1106C151.71 34.2993 151.778 34.6762 151.59 34.9488C151.401 35.2208 151.024 35.2893 150.751 35.1005L147.937 33.1482C147.665 32.9594 147.597 32.5818 147.785 32.3099Z" fill="#DD3E4B"/>
<path opacity="0.5" d="M162.22 41.9865C162.334 42.6155 161.912 43.2228 161.283 43.3367L154.654 44.5352C154.025 44.6491 153.417 44.2274 153.303 43.5984C153.19 42.9693 153.611 42.3621 154.24 42.2482L160.87 41.0496C161.499 40.9364 162.107 41.3581 162.22 41.9865Z" fill="black"/>
<path d="M164.547 41.2611C164.661 41.8902 164.239 42.4974 163.61 42.6113L153.711 44.4012C153.082 44.5151 152.474 44.0934 152.36 43.4643C152.246 42.8353 152.668 42.228 153.297 42.1141L163.197 40.3243C163.826 40.2111 164.433 40.6321 164.547 41.2611Z" fill="#C93A4C"/>
<path opacity="0.5" d="M160.964 42.7862C160.565 42.4676 160.498 41.8801 160.817 41.4808L166.868 33.8903C167.187 33.491 167.774 33.4244 168.173 33.7431C168.573 34.0618 168.639 34.6492 168.321 35.0485L162.27 42.639C161.951 43.0383 161.364 43.1049 160.964 42.7862Z" fill="black"/>
<path d="M159.434 44.3422C159.034 44.0235 158.968 43.4361 159.287 43.0368L166.993 33.3698C167.312 32.9705 167.899 32.9039 168.298 33.2226C168.698 33.5413 168.764 34.1287 168.446 34.528L160.739 44.195C160.42 44.5943 159.833 44.6602 159.434 44.3422Z" fill="#DD3E4B"/>
<path opacity="0.5" d="M163.382 41.6651C163.55 42.5904 162.935 43.4766 162.01 43.6436C161.084 43.8113 160.198 43.1963 160.031 42.271C159.864 41.3457 160.478 40.4595 161.404 40.2925C162.329 40.1248 163.215 40.7391 163.382 41.6651Z" fill="black"/>
<path d="M163.302 41.4856C163.47 42.4109 162.855 43.2972 161.93 43.4642C161.004 43.6312 160.118 43.0169 159.951 42.0916C159.784 41.1663 160.399 40.28 161.324 40.113C162.249 39.9453 163.135 40.5603 163.302 41.4856Z" fill="#233354"/>
<path d="M162.6 41.6132C162.697 42.1501 162.34 42.6646 161.803 42.7618C161.266 42.8591 160.752 42.502 160.655 41.9652C160.557 41.4283 160.914 40.9138 161.451 40.8165C161.989 40.7193 162.503 41.0757 162.6 41.6132Z" fill="white"/>
<path opacity="0.3" d="M104.152 224.247C136.279 224.247 162.323 221.167 162.323 217.368C162.323 213.569 136.279 210.489 104.152 210.489C72.0251 210.489 45.981 213.569 45.981 217.368C45.981 221.167 72.0251 224.247 104.152 224.247Z" fill="#DADAE0"/>
<path d="M149.283 45.8554V206.874C149.283 213.382 144.011 218.662 137.503 218.662H70.8056C64.2978 218.662 59.0186 213.382 59.0186 206.874V45.8554C59.0186 41.7664 61.1046 38.1574 64.2722 36.0521C66.1471 34.7979 68.3932 34.0684 70.8056 34.0684H137.503C144.011 34.0684 149.283 39.3476 149.283 45.8554Z" fill="#484867"/>
<path d="M136.043 214.856H72.2629C67.3126 214.856 63.2998 210.844 63.2998 205.893V47.2969C63.2998 42.3466 67.3126 38.3337 72.2629 38.3337H136.043C140.994 38.3337 145.007 42.3466 145.007 47.2969V205.893C145.007 210.844 140.994 214.856 136.043 214.856Z" fill="#FDFDFD"/>
<path d="M119.186 43.9023H89.1208C87.793 43.9023 86.7161 42.826 86.7161 41.4976V36.3745H121.59V41.4976C121.591 42.826 120.514 43.9023 119.186 43.9023Z" fill="#484867"/>
<path opacity="0.5" d="M109.511 41.5599H95.2237C94.6509 41.5599 94.187 41.096 94.187 40.5226C94.187 39.9499 94.6509 39.4854 95.2237 39.4854H109.511C110.084 39.4854 110.549 39.9499 110.549 40.5226C110.548 41.096 110.084 41.5599 109.511 41.5599Z" fill="#D1D1E6"/>
<path opacity="0.5" d="M114.12 40.5229C114.12 41.0956 113.656 41.5602 113.083 41.5602C112.51 41.5602 112.046 41.0962 112.046 40.5229C112.046 39.9502 112.51 39.4856 113.083 39.4856C113.656 39.4856 114.12 39.9502 114.12 40.5229Z" fill="#D1D1E6"/>
<path d="M76.2555 92.9373H73.8296V95.3631H76.2555V92.9373Z" fill="#4C6ED4"/>
<path d="M78.6825 92.9373H76.2566V95.3631H78.6825V92.9373Z" fill="#4C6ED4"/>
<path d="M81.108 92.9373H78.6821V95.3631H81.108V92.9373Z" fill="#4C6ED4"/>
<path d="M83.5338 92.9373H81.1079V95.3631H83.5338V92.9373Z" fill="#4C6ED4"/>
<path d="M85.9598 92.9373H83.5339V95.3631H85.9598V92.9373Z" fill="#4C6ED4"/>
<path d="M88.3851 92.9373H85.9592V95.3631H88.3851V92.9373Z" fill="#4C6ED4"/>
<path d="M90.8111 92.9373H88.3853V95.3631H90.8111V92.9373Z" fill="#4C6ED4"/>
<path d="M95.662 92.9373H93.2361V95.3631H95.662V92.9373Z" fill="#4C6ED4"/>
<path d="M98.088 92.9373H95.6621V95.3631H98.088V92.9373Z" fill="#4C6ED4"/>
<path d="M100.514 92.9373H98.0886V95.3631H100.514V92.9373Z" fill="#4C6ED4"/>
<path d="M102.939 92.9373H100.513V95.3631H102.939V92.9373Z" fill="#4C6ED4"/>
<path d="M110.217 92.9373H107.791V95.3631H110.217V92.9373Z" fill="#4C6ED4"/>
<path d="M119.92 92.9373H117.494V95.3631H119.92V92.9373Z" fill="#4C6ED4"/>
<path d="M122.345 92.9373H119.919V95.3631H122.345V92.9373Z" fill="#4C6ED4"/>
<path d="M124.772 92.9373H122.346V95.3631H124.772V92.9373Z" fill="#4C6ED4"/>
<path d="M127.197 92.9373H124.771V95.3631H127.197V92.9373Z" fill="#4C6ED4"/>
<path d="M129.622 92.9373H127.196V95.3631H129.622V92.9373Z" fill="#4C6ED4"/>
<path d="M132.048 92.9373H129.623V95.3631H132.048V92.9373Z" fill="#4C6ED4"/>
<path d="M134.474 92.9373H132.049V95.3631H134.474V92.9373Z" fill="#4C6ED4"/>
<path d="M76.2555 95.3635H73.8296V97.7894H76.2555V95.3635Z" fill="#4C6ED4"/>
<path d="M90.8111 95.3635H88.3853V97.7894H90.8111V95.3635Z" fill="#4C6ED4"/>
<path d="M102.939 95.3635H100.513V97.7894H102.939V95.3635Z" fill="#4C6ED4"/>
<path d="M105.365 95.3635H102.939V97.7894H105.365V95.3635Z" fill="#4C6ED4"/>
<path d="M110.217 95.3635H107.791V97.7894H110.217V95.3635Z" fill="#4C6ED4"/>
<path d="M115.068 95.3635H112.642V97.7894H115.068V95.3635Z" fill="#4C6ED4"/>
<path d="M119.92 95.3635H117.494V97.7894H119.92V95.3635Z" fill="#4C6ED4"/>
<path d="M134.474 95.3635H132.049V97.7894H134.474V95.3635Z" fill="#4C6ED4"/>
<path d="M76.2555 97.7883H73.8296V100.214H76.2555V97.7883Z" fill="#4C6ED4"/>
<path d="M81.108 97.7883H78.6821V100.214H81.108V97.7883Z" fill="#4C6ED4"/>
<path d="M83.5338 97.7883H81.1079V100.214H83.5338V97.7883Z" fill="#4C6ED4"/>
<path d="M85.9598 97.7883H83.5339V100.214H85.9598V97.7883Z" fill="#4C6ED4"/>
<path d="M90.8111 97.7883H88.3853V100.214H90.8111V97.7883Z" fill="#4C6ED4"/>
<path d="M98.088 97.7883H95.6621V100.214H98.088V97.7883Z" fill="#4C6ED4"/>
<path d="M102.939 97.7883H100.513V100.214H102.939V97.7883Z" fill="#4C6ED4"/>
<path d="M107.791 97.7883H105.365V100.214H107.791V97.7883Z" fill="#4C6ED4"/>
<path d="M110.217 97.7883H107.791V100.214H110.217V97.7883Z" fill="#4C6ED4"/>
<path d="M112.642 97.7883H110.217V100.214H112.642V97.7883Z" fill="#4C6ED4"/>
<path d="M115.068 97.7883H112.642V100.214H115.068V97.7883Z" fill="#4C6ED4"/>
<path d="M119.92 97.7883H117.494V100.214H119.92V97.7883Z" fill="#4C6ED4"/>
<path d="M124.772 97.7883H122.346V100.214H124.772V97.7883Z" fill="#4C6ED4"/>
<path d="M127.197 97.7883H124.771V100.214H127.197V97.7883Z" fill="#4C6ED4"/>
<path d="M129.622 97.7883H127.196V100.214H129.622V97.7883Z" fill="#4C6ED4"/>
<path d="M134.474 97.7883H132.049V100.214H134.474V97.7883Z" fill="#4C6ED4"/>
<path d="M76.2555 100.215H73.8296V102.64H76.2555V100.215Z" fill="#4C6ED4"/>
<path d="M81.108 100.215H78.6821V102.64H81.108V100.215Z" fill="#4C6ED4"/>
<path d="M83.5338 100.215H81.1079V102.64H83.5338V100.215Z" fill="#4C6ED4"/>
<path d="M85.9598 100.215H83.5339V102.64H85.9598V100.215Z" fill="#4C6ED4"/>
<path d="M90.8111 100.215H88.3853V102.64H90.8111V100.215Z" fill="#4C6ED4"/>
<path d="M100.514 100.215H98.0886V102.64H100.514V100.215Z" fill="#4C6ED4"/>
<path d="M102.939 100.215H100.513V102.64H102.939V100.215Z" fill="#4C6ED4"/>
<path d="M107.791 100.215H105.365V102.64H107.791V100.215Z" fill="#4C6ED4"/>
<path d="M110.217 100.215H107.791V102.64H110.217V100.215Z" fill="#4C6ED4"/>
<path d="M112.642 100.215H110.217V102.64H112.642V100.215Z" fill="#4C6ED4"/>
<path d="M115.068 100.215H112.642V102.64H115.068V100.215Z" fill="#4C6ED4"/>
<path d="M119.92 100.215H117.494V102.64H119.92V100.215Z" fill="#4C6ED4"/>
<path d="M124.772 100.215H122.346V102.64H124.772V100.215Z" fill="#4C6ED4"/>
<path d="M127.197 100.215H124.771V102.64H127.197V100.215Z" fill="#4C6ED4"/>
<path d="M129.622 100.215H127.196V102.64H129.622V100.215Z" fill="#4C6ED4"/>
<path d="M134.474 100.215H132.049V102.64H134.474V100.215Z" fill="#4C6ED4"/>
<path d="M76.2555 102.64H73.8296V105.066H76.2555V102.64Z" fill="#4C6ED4"/>
<path d="M81.108 102.64H78.6821V105.066H81.108V102.64Z" fill="#4C6ED4"/>
<path d="M83.5338 102.64H81.1079V105.066H83.5338V102.64Z" fill="#4C6ED4"/>
<path d="M85.9598 102.64H83.5339V105.066H85.9598V102.64Z" fill="#4C6ED4"/>
<path d="M90.8111 102.64H88.3853V105.066H90.8111V102.64Z" fill="#4C6ED4"/>
<path d="M100.514 102.64H98.0886V105.066H100.514V102.64Z" fill="#4C6ED4"/>
<path d="M102.939 102.64H100.513V105.066H102.939V102.64Z" fill="#4C6ED4"/>
<path d="M105.365 102.64H102.939V105.066H105.365V102.64Z" fill="#4C6ED4"/>
<path d="M107.791 102.64H105.365V105.066H107.791V102.64Z" fill="#4C6ED4"/>
<path d="M110.217 102.64H107.791V105.066H110.217V102.64Z" fill="#4C6ED4"/>
<path d="M115.068 102.64H112.642V105.066H115.068V102.64Z" fill="#4C6ED4"/>
<path d="M119.92 102.64H117.494V105.066H119.92V102.64Z" fill="#4C6ED4"/>
<path d="M124.772 102.64H122.346V105.066H124.772V102.64Z" fill="#4C6ED4"/>
<path d="M127.197 102.64H124.771V105.066H127.197V102.64Z" fill="#4C6ED4"/>
<path d="M129.622 102.64H127.196V105.066H129.622V102.64Z" fill="#4C6ED4"/>
<path d="M134.474 102.64H132.049V105.066H134.474V102.64Z" fill="#4C6ED4"/>
<path d="M76.2555 105.067H73.8296V107.493H76.2555V105.067Z" fill="#4C6ED4"/>
<path d="M90.8111 105.067H88.3853V107.493H90.8111V105.067Z" fill="#4C6ED4"/>
<path d="M98.088 105.067H95.6621V107.493H98.088V105.067Z" fill="#4C6ED4"/>
<path d="M102.939 105.067H100.513V107.493H102.939V105.067Z" fill="#4C6ED4"/>
<path d="M107.791 105.067H105.365V107.493H107.791V105.067Z" fill="#4C6ED4"/>
<path d="M110.217 105.067H107.791V107.493H110.217V105.067Z" fill="#4C6ED4"/>
<path d="M115.068 105.067H112.642V107.493H115.068V105.067Z" fill="#4C6ED4"/>
<path d="M119.92 105.067H117.494V107.493H119.92V105.067Z" fill="#4C6ED4"/>
<path d="M134.474 105.067H132.049V107.493H134.474V105.067Z" fill="#4C6ED4"/>
<path d="M76.2555 107.493H73.8296V109.919H76.2555V107.493Z" fill="#4C6ED4"/>
<path d="M78.6825 107.493H76.2566V109.919H78.6825V107.493Z" fill="#4C6ED4"/>
<path d="M81.108 107.493H78.6821V109.919H81.108V107.493Z" fill="#4C6ED4"/>
<path d="M83.5338 107.493H81.1079V109.919H83.5338V107.493Z" fill="#4C6ED4"/>
<path d="M85.9598 107.493H83.5339V109.919H85.9598V107.493Z" fill="#4C6ED4"/>
<path d="M88.3851 107.493H85.9592V109.919H88.3851V107.493Z" fill="#4C6ED4"/>
<path d="M90.8111 107.493H88.3853V109.919H90.8111V107.493Z" fill="#4C6ED4"/>
<path d="M95.662 107.493H93.2361V109.919H95.662V107.493Z" fill="#4C6ED4"/>
<path d="M100.514 107.493H98.0886V109.919H100.514V107.493Z" fill="#4C6ED4"/>
<path d="M105.365 107.493H102.939V109.919H105.365V107.493Z" fill="#4C6ED4"/>
<path d="M110.217 107.493H107.791V109.919H110.217V107.493Z" fill="#4C6ED4"/>
<path d="M115.068 107.493H112.642V109.919H115.068V107.493Z" fill="#4C6ED4"/>
<path d="M119.92 107.493H117.494V109.919H119.92V107.493Z" fill="#4C6ED4"/>
<path d="M122.345 107.493H119.919V109.919H122.345V107.493Z" fill="#4C6ED4"/>
<path d="M124.772 107.493H122.346V109.919H124.772V107.493Z" fill="#4C6ED4"/>
<path d="M127.197 107.493H124.771V109.919H127.197V107.493Z" fill="#4C6ED4"/>
<path d="M129.622 107.493H127.196V109.919H129.622V107.493Z" fill="#4C6ED4"/>
<path d="M132.048 107.493H129.623V109.919H132.048V107.493Z" fill="#4C6ED4"/>
<path d="M134.474 107.493H132.049V109.919H134.474V107.493Z" fill="#4C6ED4"/>
<path d="M95.662 109.918H93.2361V112.344H95.662V109.918Z" fill="#4C6ED4"/>
<path d="M98.088 109.918H95.6621V112.344H98.088V109.918Z" fill="#4C6ED4"/>
<path d="M105.365 109.918H102.939V112.344H105.365V109.918Z" fill="#4C6ED4"/>
<path d="M107.791 109.918H105.365V112.344H107.791V109.918Z" fill="#4C6ED4"/>
<path d="M110.217 109.918H107.791V112.344H110.217V109.918Z" fill="#4C6ED4"/>
<path d="M76.2555 112.343H73.8296V114.769H76.2555V112.343Z" fill="#4C6ED4"/>
<path d="M78.6825 112.343H76.2566V114.769H78.6825V112.343Z" fill="#4C6ED4"/>
<path d="M83.5338 112.343H81.1079V114.769H83.5338V112.343Z" fill="#4C6ED4"/>
<path d="M85.9598 112.343H83.5339V114.769H85.9598V112.343Z" fill="#4C6ED4"/>
<path d="M90.8111 112.343H88.3853V114.769H90.8111V112.343Z" fill="#4C6ED4"/>
<path d="M98.088 112.343H95.6621V114.769H98.088V112.343Z" fill="#4C6ED4"/>
<path d="M105.365 112.343H102.939V114.769H105.365V112.343Z" fill="#4C6ED4"/>
<path d="M110.217 112.343H107.791V114.769H110.217V112.343Z" fill="#4C6ED4"/>
<path d="M112.642 112.343H110.217V114.769H112.642V112.343Z" fill="#4C6ED4"/>
<path d="M119.92 112.343H117.494V114.769H119.92V112.343Z" fill="#4C6ED4"/>
<path d="M134.474 112.343H132.049V114.769H134.474V112.343Z" fill="#4C6ED4"/>
<path d="M78.6825 114.769H76.2566V117.195H78.6825V114.769Z" fill="#4C6ED4"/>
<path d="M81.108 114.769H78.6821V117.195H81.108V114.769Z" fill="#4C6ED4"/>
<path d="M88.3851 114.769H85.9592V117.195H88.3851V114.769Z" fill="#4C6ED4"/>
<path d="M93.2359 114.769H90.8101V117.195H93.2359V114.769Z" fill="#4C6ED4"/>
<path d="M95.662 114.769H93.2361V117.195H95.662V114.769Z" fill="#4C6ED4"/>
<path d="M100.514 114.769H98.0886V117.195H100.514V114.769Z" fill="#4C6ED4"/>
<path d="M110.217 114.769H107.791V117.195H110.217V114.769Z" fill="#4C6ED4"/>
<path d="M112.642 114.769H110.217V117.195H112.642V114.769Z" fill="#4C6ED4"/>
<path d="M117.494 114.769H115.068V117.195H117.494V114.769Z" fill="#4C6ED4"/>
<path d="M122.345 114.769H119.919V117.195H122.345V114.769Z" fill="#4C6ED4"/>
<path d="M124.772 114.769H122.346V117.195H124.772V114.769Z" fill="#4C6ED4"/>
<path d="M127.197 114.769H124.771V117.195H127.197V114.769Z" fill="#4C6ED4"/>
<path d="M129.622 114.769H127.196V117.195H129.622V114.769Z" fill="#4C6ED4"/>
<path d="M132.048 114.769H129.623V117.195H132.048V114.769Z" fill="#4C6ED4"/>
<path d="M76.2555 117.195H73.8296V119.62H76.2555V117.195Z" fill="#4C6ED4"/>
<path d="M78.6825 117.195H76.2566V119.62H78.6825V117.195Z" fill="#4C6ED4"/>
<path d="M83.5338 117.195H81.1079V119.62H83.5338V117.195Z" fill="#4C6ED4"/>
<path d="M88.3851 117.195H85.9592V119.62H88.3851V117.195Z" fill="#4C6ED4"/>
<path d="M90.8111 117.195H88.3853V119.62H90.8111V117.195Z" fill="#4C6ED4"/>
<path d="M95.662 117.195H93.2361V119.62H95.662V117.195Z" fill="#4C6ED4"/>
<path d="M98.088 117.195H95.6621V119.62H98.088V117.195Z" fill="#4C6ED4"/>
<path d="M105.365 117.195H102.939V119.62H105.365V117.195Z" fill="#4C6ED4"/>
<path d="M107.791 117.195H105.365V119.62H107.791V117.195Z" fill="#4C6ED4"/>
<path d="M110.217 117.195H107.791V119.62H110.217V117.195Z" fill="#4C6ED4"/>
<path d="M112.642 117.195H110.217V119.62H112.642V117.195Z" fill="#4C6ED4"/>
<path d="M115.068 117.195H112.642V119.62H115.068V117.195Z" fill="#4C6ED4"/>
<path d="M119.92 117.195H117.494V119.62H119.92V117.195Z" fill="#4C6ED4"/>
<path d="M122.345 117.195H119.919V119.62H122.345V117.195Z" fill="#4C6ED4"/>
<path d="M127.197 117.195H124.771V119.62H127.197V117.195Z" fill="#4C6ED4"/>
<path d="M134.474 117.195H132.049V119.62H134.474V117.195Z" fill="#4C6ED4"/>
<path d="M78.6825 119.62H76.2566V122.046H78.6825V119.62Z" fill="#4C6ED4"/>
<path d="M83.5338 119.62H81.1079V122.046H83.5338V119.62Z" fill="#4C6ED4"/>
<path d="M85.9598 119.62H83.5339V122.046H85.9598V119.62Z" fill="#4C6ED4"/>
<path d="M95.662 119.62H93.2361V122.046H95.662V119.62Z" fill="#4C6ED4"/>
<path d="M110.217 119.62H107.791V122.046H110.217V119.62Z" fill="#4C6ED4"/>
<path d="M122.345 119.62H119.919V122.046H122.345V119.62Z" fill="#4C6ED4"/>
<path d="M127.197 119.62H124.771V122.046H127.197V119.62Z" fill="#4C6ED4"/>
<path d="M129.622 119.62H127.196V122.046H129.622V119.62Z" fill="#4C6ED4"/>
<path d="M132.048 119.62H129.623V122.046H132.048V119.62Z" fill="#4C6ED4"/>
<path d="M134.474 119.62H132.049V122.046H134.474V119.62Z" fill="#4C6ED4"/>
<path d="M81.108 122.047H78.6821V124.473H81.108V122.047Z" fill="#4C6ED4"/>
<path d="M83.5338 122.047H81.1079V124.473H83.5338V122.047Z" fill="#4C6ED4"/>
<path d="M88.3851 122.047H85.9592V124.473H88.3851V122.047Z" fill="#4C6ED4"/>
<path d="M90.8111 122.047H88.3853V124.473H90.8111V122.047Z" fill="#4C6ED4"/>
<path d="M93.2359 122.047H90.8101V124.473H93.2359V122.047Z" fill="#4C6ED4"/>
<path d="M98.088 122.047H95.6621V124.473H98.088V122.047Z" fill="#4C6ED4"/>
<path d="M100.514 122.047H98.0886V124.473H100.514V122.047Z" fill="#4C6ED4"/>
<path d="M112.642 122.047H110.217V124.473H112.642V122.047Z" fill="#4C6ED4"/>
<path d="M115.068 122.047H112.642V124.473H115.068V122.047Z" fill="#4C6ED4"/>
<path d="M117.494 122.047H115.068V124.473H117.494V122.047Z" fill="#4C6ED4"/>
<path d="M119.92 122.047H117.494V124.473H119.92V122.047Z" fill="#4C6ED4"/>
<path d="M134.474 122.047H132.049V124.473H134.474V122.047Z" fill="#4C6ED4"/>
<path d="M76.2555 124.471H73.8296V126.897H76.2555V124.471Z" fill="#4C6ED4"/>
<path d="M83.5338 124.471H81.1079V126.897H83.5338V124.471Z" fill="#4C6ED4"/>
<path d="M93.2359 124.471H90.8101V126.897H93.2359V124.471Z" fill="#4C6ED4"/>
<path d="M95.662 124.471H93.2361V126.897H95.662V124.471Z" fill="#4C6ED4"/>
<path d="M100.514 124.471H98.0886V126.897H100.514V124.471Z" fill="#4C6ED4"/>
<path d="M105.365 124.471H102.939V126.897H105.365V124.471Z" fill="#4C6ED4"/>
<path d="M110.217 124.471H107.791V126.897H110.217V124.471Z" fill="#4C6ED4"/>
<path d="M112.642 124.471H110.217V126.897H112.642V124.471Z" fill="#4C6ED4"/>
<path d="M115.068 124.471H112.642V126.897H115.068V124.471Z" fill="#4C6ED4"/>
<path d="M124.772 124.471H122.346V126.897H124.772V124.471Z" fill="#4C6ED4"/>
<path d="M132.048 124.471H129.623V126.897H132.048V124.471Z" fill="#4C6ED4"/>
<path d="M76.2555 126.897H73.8296V129.323H76.2555V126.897Z" fill="#4C6ED4"/>
<path d="M78.6825 126.897H76.2566V129.323H78.6825V126.897Z" fill="#4C6ED4"/>
<path d="M83.5338 126.897H81.1079V129.323H83.5338V126.897Z" fill="#4C6ED4"/>
<path d="M85.9598 126.897H83.5339V129.323H85.9598V126.897Z" fill="#4C6ED4"/>
<path d="M88.3851 126.897H85.9592V129.323H88.3851V126.897Z" fill="#4C6ED4"/>
<path d="M90.8111 126.897H88.3853V129.323H90.8111V126.897Z" fill="#4C6ED4"/>
<path d="M100.514 126.897H98.0886V129.323H100.514V126.897Z" fill="#4C6ED4"/>
<path d="M110.217 126.897H107.791V129.323H110.217V126.897Z" fill="#4C6ED4"/>
<path d="M112.642 126.897H110.217V129.323H112.642V126.897Z" fill="#4C6ED4"/>
<path d="M117.494 126.897H115.068V129.323H117.494V126.897Z" fill="#4C6ED4"/>
<path d="M124.772 126.897H122.346V129.323H124.772V126.897Z" fill="#4C6ED4"/>
<path d="M127.197 126.897H124.771V129.323H127.197V126.897Z" fill="#4C6ED4"/>
<path d="M129.622 126.897H127.196V129.323H129.622V126.897Z" fill="#4C6ED4"/>
<path d="M132.048 126.897H129.623V129.323H132.048V126.897Z" fill="#4C6ED4"/>
<path d="M134.474 126.897H132.049V129.323H134.474V126.897Z" fill="#4C6ED4"/>
<path d="M76.2555 129.323H73.8296V131.749H76.2555V129.323Z" fill="#4C6ED4"/>
<path d="M81.108 129.323H78.6821V131.749H81.108V129.323Z" fill="#4C6ED4"/>
<path d="M83.5338 129.323H81.1079V131.749H83.5338V129.323Z" fill="#4C6ED4"/>
<path d="M85.9598 129.323H83.5339V131.749H85.9598V129.323Z" fill="#4C6ED4"/>
<path d="M88.3851 129.323H85.9592V131.749H88.3851V129.323Z" fill="#4C6ED4"/>
<path d="M95.662 129.323H93.2361V131.749H95.662V129.323Z" fill="#4C6ED4"/>
<path d="M98.088 129.323H95.6621V131.749H98.088V129.323Z" fill="#4C6ED4"/>
<path d="M100.514 129.323H98.0886V131.749H100.514V129.323Z" fill="#4C6ED4"/>
<path d="M105.365 129.323H102.939V131.749H105.365V129.323Z" fill="#4C6ED4"/>
<path d="M122.345 129.323H119.919V131.749H122.345V129.323Z" fill="#4C6ED4"/>
<path d="M124.772 129.323H122.346V131.749H124.772V129.323Z" fill="#4C6ED4"/>
<path d="M129.622 129.323H127.196V131.749H129.622V129.323Z" fill="#4C6ED4"/>
<path d="M134.474 129.323H132.049V131.749H134.474V129.323Z" fill="#4C6ED4"/>
<path d="M76.2555 131.75H73.8296V134.176H76.2555V131.75Z" fill="#4C6ED4"/>
<path d="M81.108 131.75H78.6821V134.176H81.108V131.75Z" fill="#4C6ED4"/>
<path d="M88.3851 131.75H85.9592V134.176H88.3851V131.75Z" fill="#4C6ED4"/>
<path d="M90.8111 131.75H88.3853V134.176H90.8111V131.75Z" fill="#4C6ED4"/>
<path d="M93.2359 131.75H90.8101V134.176H93.2359V131.75Z" fill="#4C6ED4"/>
<path d="M102.939 131.75H100.513V134.176H102.939V131.75Z" fill="#4C6ED4"/>
<path d="M105.365 131.75H102.939V134.176H105.365V131.75Z" fill="#4C6ED4"/>
<path d="M107.791 131.75H105.365V134.176H107.791V131.75Z" fill="#4C6ED4"/>
<path d="M112.642 131.75H110.217V134.176H112.642V131.75Z" fill="#4C6ED4"/>
<path d="M115.068 131.75H112.642V134.176H115.068V131.75Z" fill="#4C6ED4"/>
<path d="M117.494 131.75H115.068V134.176H117.494V131.75Z" fill="#4C6ED4"/>
<path d="M119.92 131.75H117.494V134.176H119.92V131.75Z" fill="#4C6ED4"/>
<path d="M122.345 131.75H119.919V134.176H122.345V131.75Z" fill="#4C6ED4"/>
<path d="M124.772 131.75H122.346V134.176H124.772V131.75Z" fill="#4C6ED4"/>
<path d="M129.622 131.75H127.196V134.176H129.622V131.75Z" fill="#4C6ED4"/>
<path d="M132.048 131.75H129.623V134.176H132.048V131.75Z" fill="#4C6ED4"/>
<path d="M95.662 134.176H93.2361V136.602H95.662V134.176Z" fill="#4C6ED4"/>
<path d="M100.514 134.176H98.0886V136.602H100.514V134.176Z" fill="#4C6ED4"/>
<path d="M102.939 134.176H100.513V136.602H102.939V134.176Z" fill="#4C6ED4"/>
<path d="M107.791 134.176H105.365V136.602H107.791V134.176Z" fill="#4C6ED4"/>
<path d="M115.068 134.176H112.642V136.602H115.068V134.176Z" fill="#4C6ED4"/>
<path d="M124.772 134.176H122.346V136.602H124.772V134.176Z" fill="#4C6ED4"/>
<path d="M132.048 134.176H129.623V136.602H132.048V134.176Z" fill="#4C6ED4"/>
<path d="M76.2555 136.602H73.8296V139.028H76.2555V136.602Z" fill="#4C6ED4"/>
<path d="M78.6825 136.602H76.2566V139.028H78.6825V136.602Z" fill="#4C6ED4"/>
<path d="M81.108 136.602H78.6821V139.028H81.108V136.602Z" fill="#4C6ED4"/>
<path d="M83.5338 136.602H81.1079V139.028H83.5338V136.602Z" fill="#4C6ED4"/>
<path d="M85.9598 136.602H83.5339V139.028H85.9598V136.602Z" fill="#4C6ED4"/>
<path d="M88.3851 136.602H85.9592V139.028H88.3851V136.602Z" fill="#4C6ED4"/>
<path d="M90.8111 136.602H88.3853V139.028H90.8111V136.602Z" fill="#4C6ED4"/>
<path d="M98.088 136.602H95.6621V139.028H98.088V136.602Z" fill="#4C6ED4"/>
<path d="M100.514 136.602H98.0886V139.028H100.514V136.602Z" fill="#4C6ED4"/>
<path d="M105.365 136.602H102.939V139.028H105.365V136.602Z" fill="#4C6ED4"/>
<path d="M107.791 136.602H105.365V139.028H107.791V136.602Z" fill="#4C6ED4"/>
<path d="M115.068 136.602H112.642V139.028H115.068V136.602Z" fill="#4C6ED4"/>
<path d="M119.92 136.602H117.494V139.028H119.92V136.602Z" fill="#4C6ED4"/>
<path d="M124.772 136.602H122.346V139.028H124.772V136.602Z" fill="#4C6ED4"/>
<path d="M127.197 136.602H124.771V139.028H127.197V136.602Z" fill="#4C6ED4"/>
<path d="M134.474 136.602H132.049V139.028H134.474V136.602Z" fill="#4C6ED4"/>
<path d="M76.2555 139.027H73.8296V141.453H76.2555V139.027Z" fill="#4C6ED4"/>
<path d="M90.8111 139.027H88.3853V141.453H90.8111V139.027Z" fill="#4C6ED4"/>
<path d="M102.939 139.027H100.513V141.453H102.939V139.027Z" fill="#4C6ED4"/>
<path d="M107.791 139.027H105.365V141.453H107.791V139.027Z" fill="#4C6ED4"/>
<path d="M112.642 139.027H110.217V141.453H112.642V139.027Z" fill="#4C6ED4"/>
<path d="M115.068 139.027H112.642V141.453H115.068V139.027Z" fill="#4C6ED4"/>
<path d="M124.772 139.027H122.346V141.453H124.772V139.027Z" fill="#4C6ED4"/>
<path d="M76.2555 141.453H73.8296V143.879H76.2555V141.453Z" fill="#4C6ED4"/>
<path d="M81.108 141.453H78.6821V143.879H81.108V141.453Z" fill="#4C6ED4"/>
<path d="M83.5338 141.453H81.1079V143.879H83.5338V141.453Z" fill="#4C6ED4"/>
<path d="M85.9598 141.453H83.5339V143.879H85.9598V141.453Z" fill="#4C6ED4"/>
<path d="M90.8111 141.453H88.3853V143.879H90.8111V141.453Z" fill="#4C6ED4"/>
<path d="M95.662 141.453H93.2361V143.879H95.662V141.453Z" fill="#4C6ED4"/>
<path d="M98.088 141.453H95.6621V143.879H98.088V141.453Z" fill="#4C6ED4"/>
<path d="M100.514 141.453H98.0886V143.879H100.514V141.453Z" fill="#4C6ED4"/>
<path d="M102.939 141.453H100.513V143.879H102.939V141.453Z" fill="#4C6ED4"/>
<path d="M107.791 141.453H105.365V143.879H107.791V141.453Z" fill="#4C6ED4"/>
<path d="M112.642 141.453H110.217V143.879H112.642V141.453Z" fill="#4C6ED4"/>
<path d="M115.068 141.453H112.642V143.879H115.068V141.453Z" fill="#4C6ED4"/>
<path d="M117.494 141.453H115.068V143.879H117.494V141.453Z" fill="#4C6ED4"/>
<path d="M119.92 141.453H117.494V143.879H119.92V141.453Z" fill="#4C6ED4"/>
<path d="M122.345 141.453H119.919V143.879H122.345V141.453Z" fill="#4C6ED4"/>
<path d="M124.772 141.453H122.346V143.879H124.772V141.453Z" fill="#4C6ED4"/>
<path d="M127.197 141.453H124.771V143.879H127.197V141.453Z" fill="#4C6ED4"/>
<path d="M132.048 141.453H129.623V143.879H132.048V141.453Z" fill="#4C6ED4"/>
<path d="M134.474 141.453H132.049V143.879H134.474V141.453Z" fill="#4C6ED4"/>
<path d="M76.2555 143.879H73.8296V146.305H76.2555V143.879Z" fill="#4C6ED4"/>
<path d="M81.108 143.879H78.6821V146.305H81.108V143.879Z" fill="#4C6ED4"/>
<path d="M83.5338 143.879H81.1079V146.305H83.5338V143.879Z" fill="#4C6ED4"/>
<path d="M85.9598 143.879H83.5339V146.305H85.9598V143.879Z" fill="#4C6ED4"/>
<path d="M90.8111 143.879H88.3853V146.305H90.8111V143.879Z" fill="#4C6ED4"/>
<path d="M95.662 143.879H93.2361V146.305H95.662V143.879Z" fill="#4C6ED4"/>
<path d="M105.365 143.879H102.939V146.305H105.365V143.879Z" fill="#4C6ED4"/>
<path d="M107.791 143.879H105.365V146.305H107.791V143.879Z" fill="#4C6ED4"/>
<path d="M110.217 143.879H107.791V146.305H110.217V143.879Z" fill="#4C6ED4"/>
<path d="M117.494 143.879H115.068V146.305H117.494V143.879Z" fill="#4C6ED4"/>
<path d="M119.92 143.879H117.494V146.305H119.92V143.879Z" fill="#4C6ED4"/>
<path d="M122.345 143.879H119.919V146.305H122.345V143.879Z" fill="#4C6ED4"/>
<path d="M127.197 143.879H124.771V146.305H127.197V143.879Z" fill="#4C6ED4"/>
<path d="M132.048 143.879H129.623V146.305H132.048V143.879Z" fill="#4C6ED4"/>
<path d="M134.474 143.879H132.049V146.305H134.474V143.879Z" fill="#4C6ED4"/>
<path d="M76.2555 146.304H73.8296V148.73H76.2555V146.304Z" fill="#4C6ED4"/>
<path d="M81.108 146.304H78.6821V148.73H81.108V146.304Z" fill="#4C6ED4"/>
<path d="M83.5338 146.304H81.1079V148.73H83.5338V146.304Z" fill="#4C6ED4"/>
<path d="M85.9598 146.304H83.5339V148.73H85.9598V146.304Z" fill="#4C6ED4"/>
<path d="M90.8111 146.304H88.3853V148.73H90.8111V146.304Z" fill="#4C6ED4"/>
<path d="M98.088 146.304H95.6621V148.73H98.088V146.304Z" fill="#4C6ED4"/>
<path d="M102.939 146.304H100.513V148.73H102.939V146.304Z" fill="#4C6ED4"/>
<path d="M107.791 146.304H105.365V148.73H107.791V146.304Z" fill="#4C6ED4"/>
<path d="M112.642 146.304H110.217V148.73H112.642V146.304Z" fill="#4C6ED4"/>
<path d="M117.494 146.304H115.068V148.73H117.494V146.304Z" fill="#4C6ED4"/>
<path d="M122.345 146.304H119.919V148.73H122.345V146.304Z" fill="#4C6ED4"/>
<path d="M124.772 146.304H122.346V148.73H124.772V146.304Z" fill="#4C6ED4"/>
<path d="M129.622 146.304H127.196V148.73H129.622V146.304Z" fill="#4C6ED4"/>
<path d="M132.048 146.304H129.623V148.73H132.048V146.304Z" fill="#4C6ED4"/>
<path d="M134.474 146.304H132.049V148.73H134.474V146.304Z" fill="#4C6ED4"/>
<path d="M76.2555 148.73H73.8296V151.156H76.2555V148.73Z" fill="#4C6ED4"/>
<path d="M90.8111 148.73H88.3853V151.156H90.8111V148.73Z" fill="#4C6ED4"/>
<path d="M95.662 148.73H93.2361V151.156H95.662V148.73Z" fill="#4C6ED4"/>
<path d="M98.088 148.73H95.6621V151.156H98.088V148.73Z" fill="#4C6ED4"/>
<path d="M100.514 148.73H98.0886V151.156H100.514V148.73Z" fill="#4C6ED4"/>
<path d="M102.939 148.73H100.513V151.156H102.939V148.73Z" fill="#4C6ED4"/>
<path d="M105.365 148.73H102.939V151.156H105.365V148.73Z" fill="#4C6ED4"/>
<path d="M107.791 148.73H105.365V151.156H107.791V148.73Z" fill="#4C6ED4"/>
<path d="M112.642 148.73H110.217V151.156H112.642V148.73Z" fill="#4C6ED4"/>
<path d="M119.92 148.73H117.494V151.156H119.92V148.73Z" fill="#4C6ED4"/>
<path d="M122.345 148.73H119.919V151.156H122.345V148.73Z" fill="#4C6ED4"/>
<path d="M124.772 148.73H122.346V151.156H124.772V148.73Z" fill="#4C6ED4"/>
<path d="M129.622 148.73H127.196V151.156H129.622V148.73Z" fill="#4C6ED4"/>
<path d="M132.048 148.73H129.623V151.156H132.048V148.73Z" fill="#4C6ED4"/>
<path d="M134.474 148.73H132.049V151.156H134.474V148.73Z" fill="#4C6ED4"/>
<path d="M76.2555 151.155H73.8296V153.581H76.2555V151.155Z" fill="#4C6ED4"/>
<path d="M78.6825 151.155H76.2566V153.581H78.6825V151.155Z" fill="#4C6ED4"/>
<path d="M81.108 151.155H78.6821V153.581H81.108V151.155Z" fill="#4C6ED4"/>
<path d="M83.5338 151.155H81.1079V153.581H83.5338V151.155Z" fill="#4C6ED4"/>
<path d="M85.9598 151.155H83.5339V153.581H85.9598V151.155Z" fill="#4C6ED4"/>
<path d="M88.3851 151.155H85.9592V153.581H88.3851V151.155Z" fill="#4C6ED4"/>
<path d="M90.8111 151.155H88.3853V153.581H90.8111V151.155Z" fill="#4C6ED4"/>
<path d="M95.662 151.155H93.2361V153.581H95.662V151.155Z" fill="#4C6ED4"/>
<path d="M100.514 151.155H98.0886V153.581H100.514V151.155Z" fill="#4C6ED4"/>
<path d="M102.939 151.155H100.513V153.581H102.939V151.155Z" fill="#4C6ED4"/>
<path d="M105.365 151.155H102.939V153.581H105.365V151.155Z" fill="#4C6ED4"/>
<path d="M107.791 151.155H105.365V153.581H107.791V151.155Z" fill="#4C6ED4"/>
<path d="M115.068 151.155H112.642V153.581H115.068V151.155Z" fill="#4C6ED4"/>
<path d="M117.494 151.155H115.068V153.581H117.494V151.155Z" fill="#4C6ED4"/>
<path d="M127.197 151.155H124.771V153.581H127.197V151.155Z" fill="#4C6ED4"/>
<path d="M134.474 151.155H132.049V153.581H134.474V151.155Z" fill="#4C6ED4"/>
<path d="M125.909 183.647H82.3962C81.0146 183.647 79.8948 182.527 79.8948 181.145V174.87C79.8948 173.488 81.0146 172.368 82.3962 172.368H125.909C127.291 172.368 128.41 173.488 128.41 174.87V181.145C128.41 182.527 127.291 183.647 125.909 183.647Z" fill="#4C6ED4"/>
<path d="M98.8329 175.657C98.8002 175.381 98.6675 175.166 98.4348 175.013C98.2021 174.861 97.9167 174.784 97.5785 174.784C97.3313 174.784 97.115 174.824 96.9295 174.904C96.7459 174.984 96.6023 175.094 96.4987 175.234C96.3969 175.374 96.346 175.533 96.346 175.712C96.346 175.861 96.3814 175.989 96.4523 176.096C96.5251 176.201 96.6178 176.29 96.7305 176.361C96.8432 176.43 96.9614 176.487 97.085 176.532C97.2086 176.576 97.3222 176.611 97.4258 176.639L97.993 176.791C98.1384 176.83 98.3002 176.882 98.4784 176.95C98.6584 177.017 98.8302 177.109 98.9938 177.225C99.1592 177.339 99.2955 177.487 99.4028 177.667C99.5101 177.847 99.5637 178.068 99.5637 178.329C99.5637 178.631 99.4846 178.904 99.3265 179.147C99.1701 179.391 98.9411 179.585 98.6393 179.728C98.3393 179.872 97.9748 179.944 97.5458 179.944C97.1459 179.944 96.7996 179.879 96.5069 179.75C96.216 179.621 95.987 179.441 95.8197 179.21C95.6543 178.979 95.5607 178.711 95.5388 178.406H96.2369C96.2551 178.617 96.326 178.791 96.4496 178.929C96.575 179.066 96.7332 179.167 96.9241 179.235C97.1168 179.3 97.324 179.333 97.5458 179.333C97.804 179.333 98.0357 179.291 98.2412 179.207C98.4466 179.122 98.6093 179.004 98.7293 178.853C98.8493 178.7 98.9092 178.522 98.9092 178.318C98.9092 178.133 98.8574 177.982 98.7538 177.866C98.6502 177.749 98.5138 177.655 98.3448 177.582C98.1757 177.509 97.993 177.446 97.7967 177.391L97.1095 177.195C96.6732 177.07 96.3278 176.89 96.0733 176.658C95.8188 176.425 95.6915 176.121 95.6915 175.744C95.6915 175.432 95.7761 175.159 95.9451 174.926C96.116 174.692 96.3451 174.51 96.6323 174.381C96.9214 174.25 97.244 174.184 97.6003 174.184C97.9603 174.184 98.2802 174.249 98.5602 174.378C98.8402 174.505 99.0619 174.68 99.2256 174.902C99.391 175.123 99.4782 175.375 99.4873 175.657H98.8329ZM102.29 179.933C101.897 179.933 101.559 179.84 101.275 179.655C100.992 179.469 100.774 179.214 100.621 178.888C100.468 178.563 100.392 178.191 100.392 177.773C100.392 177.348 100.47 176.972 100.626 176.647C100.785 176.32 101.005 176.064 101.286 175.881C101.57 175.695 101.901 175.602 102.279 175.602C102.573 175.602 102.839 175.657 103.075 175.766C103.312 175.875 103.505 176.028 103.656 176.224C103.807 176.421 103.901 176.65 103.937 176.911H103.293C103.244 176.72 103.135 176.551 102.966 176.404C102.799 176.255 102.573 176.181 102.29 176.181C102.039 176.181 101.819 176.246 101.63 176.377C101.443 176.506 101.296 176.689 101.191 176.925C101.087 177.159 101.036 177.435 101.036 177.751C101.036 178.075 101.086 178.357 101.188 178.597C101.292 178.837 101.437 179.023 101.625 179.156C101.814 179.288 102.035 179.355 102.29 179.355C102.457 179.355 102.609 179.326 102.745 179.267C102.882 179.209 102.997 179.126 103.092 179.016C103.186 178.907 103.253 178.777 103.293 178.624H103.937C103.901 178.871 103.811 179.094 103.667 179.292C103.525 179.488 103.337 179.645 103.102 179.761C102.87 179.875 102.599 179.933 102.29 179.933ZM106.11 179.944C105.845 179.944 105.604 179.894 105.388 179.794C105.171 179.692 104.999 179.546 104.872 179.355C104.745 179.162 104.681 178.929 104.681 178.657C104.681 178.417 104.729 178.222 104.823 178.073C104.918 177.922 105.044 177.804 105.202 177.719C105.36 177.633 105.535 177.569 105.726 177.528C105.918 177.484 106.112 177.449 106.307 177.424C106.561 177.391 106.767 177.367 106.926 177.35C107.086 177.332 107.202 177.302 107.275 177.26C107.349 177.219 107.386 177.146 107.386 177.042V177.02C107.386 176.751 107.313 176.542 107.166 176.393C107.02 176.244 106.799 176.17 106.503 176.17C106.196 176.17 105.955 176.237 105.78 176.371C105.606 176.506 105.483 176.65 105.412 176.802L104.801 176.584C104.91 176.33 105.056 176.131 105.238 175.99C105.421 175.846 105.621 175.746 105.838 175.69C106.056 175.632 106.27 175.602 106.481 175.602C106.616 175.602 106.77 175.619 106.945 175.652C107.121 175.682 107.291 175.747 107.455 175.845C107.62 175.943 107.757 176.091 107.866 176.29C107.975 176.488 108.03 176.753 108.03 177.086V179.845H107.386V179.278H107.354C107.31 179.369 107.237 179.466 107.136 179.57C107.034 179.674 106.898 179.762 106.729 179.835C106.56 179.907 106.354 179.944 106.11 179.944ZM106.208 179.366C106.463 179.366 106.677 179.316 106.852 179.216C107.028 179.116 107.161 178.986 107.25 178.828C107.341 178.67 107.386 178.504 107.386 178.329V177.74C107.359 177.773 107.299 177.803 107.206 177.83C107.116 177.856 107.01 177.878 106.89 177.898C106.772 177.917 106.656 177.933 106.544 177.948C106.433 177.96 106.343 177.971 106.274 177.98C106.107 178.002 105.95 178.038 105.805 178.087C105.661 178.134 105.545 178.206 105.456 178.302C105.369 178.397 105.325 178.526 105.325 178.689C105.325 178.913 105.408 179.082 105.573 179.196C105.74 179.309 105.952 179.366 106.208 179.366ZM109.848 177.326V179.845H109.205V175.657H109.826V176.311H109.881C109.979 176.099 110.128 175.928 110.328 175.799C110.528 175.668 110.786 175.602 111.102 175.602C111.386 175.602 111.634 175.661 111.847 175.777C112.06 175.892 112.225 176.066 112.343 176.301C112.461 176.533 112.52 176.828 112.52 177.184V179.845H111.877V177.228C111.877 176.899 111.791 176.642 111.621 176.459C111.45 176.273 111.215 176.181 110.917 176.181C110.712 176.181 110.528 176.225 110.366 176.314C110.206 176.403 110.08 176.533 109.987 176.704C109.894 176.875 109.848 177.082 109.848 177.326Z" fill="white"/>
<path opacity="0.2" d="M134.474 57.3425H73.8298V66.991H134.474V57.3425Z" fill="url(#paint0_linear_2317_7720)"/>
<path opacity="0.2" d="M134.474 70.4597H73.8296V75.284H134.474V70.4597Z" fill="url(#paint1_linear_2317_7720)"/>
<path opacity="0.2" d="M134.474 79.6096H73.8296V84.4339H134.474V79.6096Z" fill="url(#paint2_linear_2317_7720)"/>
<path opacity="0.2" d="M134.474 192.816H73.8296V200.525H134.474V192.816Z" fill="url(#paint3_linear_2317_7720)"/>
<path d="M26.8177 77.2164C26.8177 77.2164 33.2814 74.6817 35.592 83.0312C37.9027 91.3807 40.1392 93.095 42.3014 94.4369C44.4637 95.7787 44.6544 106.711 26.3653 106.688C7.98466 106.665 6.96657 98.6116 11.5886 93.3932C16.2106 88.1748 17.7758 82.733 17.9998 80.6456C18.2231 78.5576 21.3983 74.9799 26.8177 77.2164Z" fill="#E64054"/>
<path d="M37.8243 105.98C37.7686 105.918 37.7341 105.882 37.7245 105.873C37.0801 105.263 36.2367 104.941 35.3498 104.966C34.4629 104.991 33.6387 105.36 33.0295 106.004C31.8495 107.253 31.8239 109.23 32.9719 110.506C33.0295 110.57 33.0897 110.632 33.153 110.692L45.5838 123.528L45.5947 123.538C46.7484 124.592 48.638 124.508 49.7105 123.373C50.7344 122.29 50.8355 120.556 49.8372 119.448C49.8372 119.407 49.6843 119.385 49.6446 119.346C49.2383 118.882 38.8072 107.072 37.8243 105.98Z" fill="#F4B799"/>
<path d="M49.6377 123.382C49.6038 123.412 49.511 123.502 49.5097 123.503L49.4815 123.53C48.3022 124.555 46.49 124.447 45.445 123.286C44.3924 122.116 44.4954 120.269 45.6312 119.185C45.9019 118.85 49.1469 115.871 57.2455 109.199L59.6195 112.109C57.1994 115.142 52.9351 120.888 49.6377 123.382Z" fill="#F4B799"/>
<path d="M27.8482 173.839C27.8533 173.828 27.8514 173.696 27.8514 173.696C27.5577 164.916 27.7688 144.432 27.7682 144.402C27.6818 141.209 30.1998 138.542 33.3917 138.456C36.5848 138.369 39.2244 140.842 39.3108 144.035C39.3114 144.066 39.3018 144.124 39.3018 144.124C38.381 153.5 37.3687 160.677 35.1328 174.553L35.1149 174.682C34.8686 176.418 33.4006 177.795 31.5897 177.844C29.5689 177.899 27.8853 176.315 27.8302 174.293C27.8264 174.137 27.8328 173.992 27.8482 173.839Z" fill="#484867"/>
<path d="M33.1148 203.867L28.9695 203.91C28.8377 202.57 28.6061 199.03 28.3604 197.199H33.3414C33.2422 199.03 33.1641 202.478 33.1148 203.867Z" fill="#F4B799"/>
<path d="M27.8184 173.893C27.819 173.889 27.8549 173.76 27.8638 173.697C28.1057 171.957 29.5749 170.594 31.3897 170.545C33.4105 170.49 35.0935 172.084 35.1485 174.106C35.1543 174.316 35.0743 175.021 35.0493 175.151C34.5368 177.8 33.7561 189.045 33.3408 197.199H28.3598C28.0456 194.703 27.7071 192.517 27.5196 191.485C25.4104 179.884 27.7608 174.265 27.8184 173.893Z" fill="#484867"/>
<path d="M33.3729 195.622C33.3729 195.622 33.8221 195.714 33.7006 196.395C33.579 197.076 33.8343 197.594 33.5527 197.858C33.2705 198.122 30.9496 198.785 28.2262 197.853C28.2262 197.853 27.8224 197.642 28.038 196.667C28.127 196.263 27.6624 195.814 28.1123 195.387C28.1123 195.387 30.5804 196.44 33.3729 195.622Z" fill="#6F6FA5"/>
<path d="M13.9528 173.301C13.9585 173.29 13.9637 173.159 13.9637 173.159C14.1134 164.375 15.3606 143.928 15.3612 143.898C15.4361 140.705 18.0853 138.169 21.2778 138.244C24.4709 138.318 26.9953 140.984 26.9204 144.177C26.9198 144.207 26.914 144.284 26.914 144.284H26.9147C25.5286 153.602 24.1183 160.681 21.1843 174.426L21.1639 174.534C20.8298 176.255 19.2966 177.545 17.485 177.502C15.4642 177.455 13.8638 175.783 13.9112 173.761C13.915 173.603 13.9304 173.453 13.9528 173.301Z" fill="#484867"/>
<path d="M13.9207 173.355C13.9219 173.351 13.9642 173.224 13.9757 173.162C14.3046 171.435 15.8416 170.149 17.6564 170.191C19.6779 170.239 21.2783 171.916 21.2303 173.937C21.2252 174.146 21.1074 174.85 21.0754 174.98C20.4234 177.625 19.0828 189.227 18.2726 197.34L13.2903 196.823C13.1035 194.294 12.868 191.973 12.7304 190.911C11.2113 179.221 13.8451 173.723 13.9207 173.355Z" fill="#484867"/>
<path d="M17.6541 203.758L13.4372 204.001C13.3744 202.691 13.4532 198.512 13.2913 196.823L18.2736 197.34C18.0918 199.161 17.7687 202.43 17.6541 203.758Z" fill="#F4B799"/>
<path d="M18.4507 195.65C18.4507 195.65 18.8929 195.768 18.7329 196.441C18.5723 197.114 18.7969 197.646 18.5 197.894C18.2031 198.141 15.8476 198.668 13.183 197.579C13.183 197.579 12.792 197.345 13.064 196.383C13.1766 195.986 12.7389 195.511 13.2124 195.111C13.2124 195.111 15.6146 196.305 18.4507 195.65Z" fill="#6F6FA5"/>
<path d="M34.0025 204.165C34.0025 204.165 33.4471 203.257 31.1722 203.257C28.898 203.257 28.7041 204.182 28.7041 204.182V205.352H33.984L34.0025 204.165Z" fill="#F4B799"/>
<path d="M42.8479 208.68H27.5388V209.845H42.8479V208.68Z" fill="#D0D1D8"/>
<path d="M42.727 208.681C42.727 208.681 43.4379 205.962 38.3545 206.385L34.0358 203.354C34.0358 203.354 33.6954 203.068 33.378 203.363C33.0606 203.658 31.9254 204.74 30.5419 204.558C29.1578 204.376 29.1232 203.494 28.6356 203.562C28.148 203.63 27.3424 205.852 27.4787 208.68H42.727V208.681Z" fill="#FFCE43"/>
<path d="M38.3558 206.351C43.4386 205.927 42.7283 208.681 42.7283 208.681H37.9277C37.9277 207.017 38.3558 206.351 38.3558 206.351Z" fill="#FFDC85"/>
<path d="M36.512 206.719C36.5728 206.719 36.6323 206.689 36.6668 206.634C36.997 206.102 37.4373 205.846 37.4418 205.844C37.5288 205.794 37.5589 205.684 37.509 205.597C37.4597 205.51 37.3483 205.48 37.2613 205.529C37.2402 205.541 36.7366 205.833 36.3578 206.442C36.3053 206.528 36.3309 206.639 36.416 206.692C36.4461 206.71 36.4794 206.719 36.512 206.719Z" fill="#EAEBF4"/>
<path d="M35.7708 206.194C35.8316 206.194 35.8911 206.164 35.925 206.108C36.2559 205.576 36.6955 205.321 36.7 205.319C36.787 205.269 36.8171 205.158 36.7678 205.071C36.7179 204.984 36.6072 204.953 36.5201 205.003C36.499 205.015 35.9954 205.307 35.6166 205.916C35.5635 206.001 35.5897 206.113 35.6748 206.167C35.7049 206.186 35.7382 206.194 35.7708 206.194Z" fill="#EAEBF4"/>
<path d="M35.0307 205.67C35.0915 205.67 35.151 205.64 35.1855 205.585C35.5164 205.052 35.956 204.798 35.9605 204.795C36.0475 204.745 36.0782 204.634 36.0283 204.547C35.9784 204.46 35.867 204.43 35.7806 204.479C35.7595 204.492 35.2559 204.783 34.8771 205.393C34.824 205.478 34.8502 205.59 34.9353 205.643C34.9641 205.661 34.998 205.67 35.0307 205.67Z" fill="#EAEBF4"/>
<path d="M34.2893 205.145C34.3501 205.145 34.4096 205.115 34.4435 205.06C34.7744 204.528 35.214 204.273 35.2185 204.271C35.3055 204.221 35.3356 204.11 35.2863 204.023C35.2364 203.936 35.1257 203.906 35.0387 203.955C35.0175 203.967 34.5139 204.26 34.1351 204.868C34.0826 204.954 34.1082 205.065 34.1933 205.118C34.2241 205.136 34.2567 205.145 34.2893 205.145Z" fill="#EAEBF4"/>
<path d="M18.5167 204.164C18.5167 204.164 17.9664 203.256 15.6921 203.256C13.4173 203.256 13.2285 204.181 13.2285 204.181V205.351H18.4994L18.5167 204.164Z" fill="#F4B799"/>
<path d="M22.2133 208.68H12.5623V209.845H22.2133V208.68Z" fill="#D0D1D8"/>
<path d="M22.0468 208.68C22.0468 208.68 22.4756 206.805 20.5751 206.378L18.2522 203.331C18.2522 203.331 17.389 202.527 16.0637 203.343C15.7579 203.531 15.0565 204.73 14.1754 204.547C13.2942 204.365 13.5719 203.467 13.2616 203.535C12.9506 203.604 12.4387 205.518 12.5251 208.68H22.0468Z" fill="#FFCE43"/>
<path d="M20.5744 206.335C22.4749 206.762 22.0462 208.68 22.0462 208.68H17.0312C17.1567 205.851 20.5744 206.335 20.5744 206.335Z" fill="#FFDC85"/>
<path d="M17.9832 206.178C18.0082 206.178 18.0338 206.173 18.0574 206.162C19.2022 205.651 19.9612 205.879 19.9682 205.881C20.0642 205.911 20.1672 205.858 20.1973 205.763C20.228 205.667 20.1755 205.564 20.0802 205.533C20.0443 205.521 19.1914 205.256 17.9083 205.828C17.8162 205.869 17.7746 205.977 17.8162 206.069C17.8463 206.138 17.9135 206.178 17.9832 206.178Z" fill="#EAEBF4"/>
<path d="M17.5262 205.538C17.5512 205.538 17.5761 205.532 17.6004 205.522C18.7452 205.012 19.5041 205.239 19.5112 205.241C19.6072 205.271 19.7095 205.218 19.7403 205.122C19.771 205.026 19.7185 204.923 19.6232 204.893C19.5873 204.881 18.7343 204.615 17.4513 205.188C17.3592 205.228 17.3176 205.337 17.3585 205.429C17.3893 205.497 17.4558 205.538 17.5262 205.538Z" fill="#EAEBF4"/>
<path d="M17.1657 205.018C17.192 205.018 17.2188 205.012 17.2444 205C18.386 204.453 19.1385 204.664 19.1462 204.667C19.2429 204.695 19.3446 204.64 19.3728 204.543C19.4015 204.446 19.3459 204.344 19.2493 204.316C19.2134 204.305 18.3534 204.063 17.0864 204.67C16.9955 204.714 16.9565 204.823 17 204.914C17.032 204.979 17.0973 205.018 17.1657 205.018Z" fill="#EAEBF4"/>
<path d="M16.7137 204.395C16.7412 204.395 16.7694 204.389 16.7956 204.375C17.9276 203.809 18.684 204.006 18.691 204.009C18.7883 204.036 18.8887 203.978 18.9156 203.881C18.9419 203.784 18.8856 203.682 18.7876 203.656C18.7512 203.646 17.8879 203.419 16.6318 204.049C16.5416 204.094 16.5051 204.203 16.5499 204.294C16.5819 204.358 16.6465 204.395 16.7137 204.395Z" fill="#EAEBF4"/>
<path d="M15.3076 143.803C15.307 143.599 15.3479 143.191 15.371 143.039C15.3934 142.852 15.4241 142.667 15.4638 142.485C16.6661 135.881 20.1331 130.147 20.1331 130.147L34.7837 130.232C34.7837 130.232 38.6891 134.73 39.3098 142.421C39.3565 142.719 39.3098 144.036 39.3098 144.036C39.2164 146.983 37.0202 149.254 34.1912 149.553L20.9874 149.565C17.864 149.456 15.3403 146.945 15.3076 143.803Z" fill="#484867"/>
<g opacity="0.3">
<path d="M27.1743 149.331C27.2383 149.331 27.2997 149.294 27.3266 149.231C27.3336 149.215 28.0631 147.52 28.9443 143.925C29.8286 140.315 28.9846 132.246 28.9481 131.904C28.9385 131.812 28.8547 131.746 28.7651 131.756C28.6736 131.766 28.6077 131.848 28.6173 131.939C28.6262 132.022 29.4914 140.292 28.6211 143.845C27.7483 147.408 27.029 149.082 27.0213 149.098C26.9849 149.183 27.0233 149.281 27.1077 149.317C27.1295 149.327 27.1519 149.331 27.1743 149.331Z" fill="black"/>
<path d="M28.6716 146.294C28.68 146.294 28.6883 146.293 28.696 146.292C30.3635 146.041 30.9561 144.049 30.9811 143.964C32.074 140.6 30.9913 132.069 30.9446 131.708C30.9324 131.617 30.8505 131.552 30.7584 131.564C30.6669 131.575 30.6029 131.659 30.6144 131.75C30.6259 131.838 31.7342 140.567 30.663 143.867C30.656 143.89 30.1018 145.743 28.6473 145.962C28.5565 145.976 28.4937 146.061 28.5072 146.152C28.52 146.234 28.591 146.294 28.6716 146.294Z" fill="black"/>
<path d="M28.1679 134.464C32.9877 134.464 35.85 132.979 35.8922 132.957C35.9735 132.913 36.0036 132.813 35.9607 132.731C35.9178 132.651 35.8167 132.62 35.7355 132.663C35.6727 132.696 29.3627 135.959 19.6431 132.652C19.5561 132.623 19.4614 132.669 19.432 132.756C19.4019 132.843 19.4486 132.938 19.5356 132.968C22.8337 134.089 25.7478 134.464 28.1679 134.464Z" fill="black"/>
<path d="M29.9854 133.58C30.3647 133.58 30.6721 133.272 30.6721 132.893C30.6721 132.514 30.3647 132.206 29.9854 132.206C29.6062 132.206 29.2988 132.514 29.2988 132.893C29.2988 133.272 29.6062 133.58 29.9854 133.58Z" fill="black"/>
<path d="M23.1254 134.308C23.1254 134.308 23.0909 139.054 18.1995 138.927C18.1995 138.927 19.0486 135.389 20.1307 133.579C20.1307 133.579 22.2097 134.267 23.1254 134.308Z" fill="black"/>
<path d="M35.4106 133.558C35.4106 133.558 35.9373 136.22 38.0451 136.886C38.0451 136.886 37.1992 134.246 36.478 133.029C36.478 133.029 35.993 133.309 35.4106 133.558Z" fill="black"/>
<path d="M18.3738 140.11C20.1322 140.111 21.542 139.614 22.569 138.631C24.3473 136.931 24.3332 134.407 24.3313 134.301C24.33 134.21 24.2558 134.132 24.1649 134.132H24.1624C24.0709 134.132 23.9973 134.213 23.9985 134.305C23.9985 134.329 24.0101 136.792 22.3367 138.391C21.2681 139.411 19.7445 139.873 17.81 139.76C17.7172 139.754 17.6398 139.825 17.6341 139.916C17.6289 140.008 17.6987 140.087 17.7902 140.093C17.9892 140.104 18.1837 140.11 18.3738 140.11Z" fill="black"/>
<path d="M38.2474 137.926C38.3217 137.926 38.3889 137.877 38.4087 137.802C38.4311 137.713 38.378 137.622 38.289 137.599C35.2706 136.825 34.8188 133.755 34.8143 133.724C34.8022 133.633 34.719 133.569 34.6269 133.581C34.5354 133.593 34.472 133.677 34.4842 133.768C34.4886 133.802 34.9737 137.092 38.2065 137.921C38.2199 137.925 38.234 137.926 38.2474 137.926Z" fill="black"/>
<path d="M26.3539 149.018C26.3846 149.018 26.416 149.009 26.4435 148.991C26.5209 148.942 26.5433 148.839 26.4941 148.762C26.4794 148.738 24.9692 146.406 22.7641 144.844C22.6892 144.791 22.5855 144.809 22.5318 144.884C22.4787 144.959 22.4966 145.063 22.5715 145.116C24.7228 146.64 26.1991 148.919 26.2138 148.942C26.2458 148.991 26.2995 149.018 26.3539 149.018Z" fill="black"/>
<path d="M25.3716 148.683C25.4196 148.683 25.4676 148.662 25.5002 148.621C25.5585 148.55 25.5482 148.446 25.4765 148.387C25.4478 148.364 22.572 146.041 18.9111 145.376C18.8209 145.36 18.7339 145.419 18.7179 145.51C18.7012 145.6 18.7607 145.687 18.8516 145.704C22.4287 146.354 25.2379 148.622 25.266 148.645C25.2974 148.67 25.3345 148.683 25.3716 148.683Z" fill="black"/>
<path d="M25.5376 149.331C25.6157 149.331 25.6854 149.276 25.7008 149.197C25.7187 149.106 25.6598 149.019 25.5696 149.002C25.4224 148.972 21.9375 148.295 20.0946 148.688C20.005 148.707 19.9474 148.795 19.9666 148.886C19.9858 148.976 20.0747 149.033 20.1643 149.014C21.94 148.635 25.4698 149.321 25.5056 149.328C25.5165 149.33 25.5274 149.331 25.5376 149.331Z" fill="black"/>
<path d="M29.199 149.017C29.254 149.017 29.3072 148.991 29.3391 148.941C29.3539 148.918 30.8301 146.64 32.9815 145.115C33.0564 145.062 33.0743 144.958 33.0212 144.883C32.9674 144.808 32.8644 144.79 32.7889 144.843C30.5831 146.406 29.0736 148.738 29.0589 148.761C29.0096 148.838 29.032 148.941 29.1088 148.991C29.1369 149.009 29.1683 149.017 29.199 149.017Z" fill="black"/>
<path d="M30.1816 148.683C30.2188 148.683 30.2559 148.671 30.2866 148.645C30.3148 148.622 33.1271 146.353 36.701 145.704C36.7912 145.687 36.8514 145.6 36.8347 145.51C36.8187 145.419 36.7317 145.36 36.6415 145.376C32.9806 146.041 30.1042 148.364 30.0761 148.387C30.005 148.446 29.9942 148.55 30.0524 148.621C30.0857 148.662 30.1337 148.683 30.1816 148.683Z" fill="black"/>
<path d="M30.0147 149.331C30.0256 149.331 30.0358 149.33 30.0467 149.328C30.0825 149.321 33.6129 148.634 35.3873 149.014C35.4769 149.033 35.5659 148.976 35.585 148.886C35.6042 148.796 35.5473 148.707 35.4571 148.688C33.6141 148.295 30.1299 148.972 29.982 149.002C29.8918 149.019 29.833 149.106 29.8509 149.197C29.8669 149.276 29.9366 149.331 30.0147 149.331Z" fill="black"/>
</g>
<path d="M28.8481 101.825L28.8641 105.944L23.8248 105.964L23.8037 100.606C25.8988 101.975 27.9874 101.936 28.8481 101.825Z" fill="#F4B799"/>
<path d="M23.804 100.605L23.7874 96.4776L28.8266 96.4578L28.8477 101.824C27.9877 101.935 25.899 101.974 23.804 100.605Z" fill="#F4B799"/>
<path opacity="0.3" d="M23.7686 100.605L23.752 96.4776L28.7912 96.4578L28.8123 101.824C27.9523 101.935 25.863 101.974 23.7686 100.605Z" fill="black"/>
<path d="M27.05 105.152C25.2359 105.194 23.7769 104.103 23.3193 103.557C24.2965 103.383 25.7631 103.04 26.6148 103.031C27.4218 103.022 28.6184 103.294 29.449 103.439C29.4144 103.838 28.985 105.107 27.05 105.152Z" fill="#F4B799"/>
<path d="M13.8901 107.184C13.8901 105.228 16.6481 104.833 16.6481 104.833C18.0834 104.563 20.4101 104.217 21.9331 103.85C21.9331 103.85 22.6517 103.689 23.584 103.522C24.0416 104.068 25.2113 104.98 27.0255 104.938C28.9605 104.893 29.2338 103.832 29.2683 103.433C30.1501 103.589 30.8258 103.751 30.8258 103.751C33.5339 104.321 35.6898 104.833 35.6898 104.833C35.6898 104.833 38.5309 105.229 38.5309 107.184C38.5309 108.068 36.6925 109.356 35.8606 109.815V110.031C38.5232 112.113 38.8637 113.673 38.8637 115.45C38.8637 119.165 35.7262 120.075 35.7262 120.075L34.7964 130.231C28.9861 133.271 20.1401 130.146 20.1401 130.146C19.1777 123.591 17.6713 119.378 16.9751 115.188C16.6846 113.438 16.5688 111.488 16.5387 109.756C15.6409 109.253 13.8901 108.032 13.8901 107.184Z" fill="#FFCE43"/>
<path d="M38.0466 134.964C38.0466 134.964 38.5937 136.529 38.8215 137.929C38.8215 137.929 31.0627 141.522 16.3916 137.931L17.3623 134.964H38.0466Z" fill="#FFCE43"/>
<path d="M27.3376 106.31C24.2347 106.383 22.3847 104.948 21.7544 103.891C21.8139 103.877 21.8741 103.864 21.9316 103.85C21.9316 103.85 22.6503 103.69 23.5826 103.523C24.0401 104.069 25.2099 104.98 27.024 104.938C28.9591 104.893 29.2323 103.832 29.2669 103.434C30.0763 103.577 30.7099 103.725 30.809 103.748C30.6177 104.644 29.9164 106.25 27.3376 106.31Z" fill="white"/>
<path opacity="0.1" d="M37.9662 117.036C37.9662 117.036 37.3077 117.593 35.875 117.717C32.9839 117.966 28.2416 118.487 24.0604 117.815C22.3071 117.533 21.0171 116.647 19.6963 115.612C19.6963 115.612 20.484 120.107 25.9795 120.017C31.4756 119.925 37.6219 120.601 37.9662 117.036Z" fill="black"/>
<path d="M13.2999 141.226C13.2999 141.226 15.4564 142.774 15.6496 143.556C15.8435 144.337 16.4367 146.178 16.4393 146.557C16.4469 147.496 16.9038 148.72 16.6543 148.806C16.4047 148.892 15.9145 149.118 15.3303 147.295L15.5031 149.419C15.5031 149.419 15.6112 150.186 15.0059 150.257C14.357 150.333 14.2853 149.726 14.2853 149.726L14.0153 148.954C14.0153 148.954 13.8995 149.356 13.3984 149.332C12.8699 149.307 12.7028 148.396 12.7028 148.396C12.7028 148.396 12.4859 148.824 12.0118 148.729C11.5376 148.633 11.4141 148.237 11.4141 148.237C11.4141 148.237 11.1268 148.418 10.8938 148.327C10.5214 148.181 10.2802 147.334 10.2802 147.334C10.2802 147.334 9.84888 144.905 10.3659 142.062C10.3659 142.062 11.0461 139.287 13.2999 141.226Z" fill="#F4B799"/>
<path opacity="0.3" d="M10.8928 148.326C11.1257 148.418 11.413 148.236 11.413 148.236C11.413 148.236 11.5365 148.632 12.0107 148.728C12.4849 148.824 12.7018 148.396 12.7018 148.396C12.7018 148.396 12.8688 149.307 13.3974 149.332C13.8978 149.355 14.0142 148.954 14.0142 148.954L14.2843 149.726C14.2843 149.726 14.3591 150.328 14.9786 150.264C15.5852 150.201 15.502 149.419 15.502 149.419L15.3331 147.336C15.3312 147.324 15.0643 145.553 14.9491 145.489L15.1341 147.595C15.1341 147.595 14.8096 148.509 14.0418 148.165C14.0418 148.165 13.398 148.677 12.7428 148.085C12.7428 148.085 11.8462 148.444 11.4034 147.835C11.4034 147.835 10.608 148.156 10.2644 147.244C10.2734 147.302 10.2785 147.333 10.2785 147.333C10.2785 147.333 10.5204 148.181 10.8928 148.326Z" fill="black"/>
<path d="M8.92651 126.687C8.92779 126.643 8.92204 126.515 8.92204 126.513L8.9214 126.476C8.94827 124.913 10.2409 123.639 11.8022 123.639C13.3758 123.639 14.6799 124.948 14.726 126.517C14.7938 126.941 14.6261 131.418 14.168 141.901L10.2882 142.522C9.64577 138.695 8.57521 130.807 8.92651 126.687Z" fill="#F4B799"/>
<path d="M11.71 129.385C13.05 129.385 14.2287 128.442 14.5205 127.134C15.7146 123.135 19.5828 110.173 19.6314 109.928C19.9872 108.132 18.8162 106.381 17.0193 106.025C16.8056 105.983 16.5868 105.962 16.3705 105.962C14.795 105.962 13.4295 107.082 13.1172 108.628L8.87527 125.985L8.87271 125.999C8.595 127.537 9.61564 129.03 11.1476 129.334C11.3331 129.371 11.5219 129.385 11.71 129.385Z" fill="#F4B799"/>
<path d="M18.4078 121.58C18.4078 121.58 18.5563 132.401 16.3909 137.931L38.225 135.514C38.225 135.514 35.6584 128.486 35.5893 121.555L18.4078 121.58Z" fill="#FFCE43"/>
<path d="M16.869 104.792C16.869 104.792 10.7074 105.153 10.4854 115.735L18.7689 116.822C18.7689 116.822 23.7877 107.373 16.869 104.792Z" fill="#FFCE43"/>
<path d="M33.1448 106.263C33.1448 106.263 30.04 111.598 38.7363 117.631L43.6123 112.027C43.6123 112.027 39.1189 101.923 33.1448 106.263Z" fill="#FFCE43"/>
<path d="M21.0125 89.9374C20.9139 90.8787 20.0705 91.5615 19.1292 91.4629C18.1879 91.3644 17.5052 90.521 17.6037 89.5797C17.7022 88.6384 18.5456 87.9556 19.4869 88.0541C20.4282 88.1527 21.111 88.9961 21.0125 89.9374Z" fill="#F4B799"/>
<path d="M35.3213 89.9374C35.2228 90.8787 34.3794 91.5615 33.4381 91.4629C32.4968 91.3644 31.814 90.521 31.9125 89.5797C32.0111 88.6384 32.8545 87.9556 33.7958 88.0541C34.7371 88.1527 35.4205 88.9961 35.3213 89.9374Z" fill="#F4B799"/>
<path d="M31.1135 81.9409C27.5147 77.9395 20.8533 79.7901 19.713 85.0502C19.2017 87.4095 18.8881 90.3454 19.4154 93.2742C20.6037 99.8761 24.8565 102.569 29.4869 100.268C34.1172 97.9679 34.3265 88.544 32.6819 84.4614C32.305 83.5265 31.772 82.6735 31.1135 81.9409Z" fill="#F4B799"/>
<path d="M56.5317 110.2C56.5317 110.2 56.4223 108.813 56.803 107.761C56.9464 107.364 56.9297 105.905 56.533 105.109C56.1535 104.348 55.8246 104.184 56.0211 104.001C56.5375 103.52 57.3348 103.435 58.4949 106.303L60.3308 105.161C60.3308 105.161 60.9874 104.773 61.3886 105.225C61.754 105.637 61.3803 106.016 61.3803 106.016C61.3803 106.016 61.9869 105.825 62.2793 106.227C62.5884 106.651 62.2429 107.136 62.2429 107.136C62.2429 107.136 62.5468 107.115 62.8021 107.568C63.0114 107.94 62.7932 108.335 62.7932 108.335C62.7932 108.335 62.9845 108.549 63.0587 108.786C63.1778 109.164 62.9282 109.667 62.9282 109.667C62.9282 109.667 61.7028 111.195 59.1854 112.562C59.1867 112.56 56.0384 113.526 56.5317 110.2Z" fill="#F4B799"/>
<path opacity="0.3" d="M58.5142 106.428L60.3488 105.332C60.3488 105.332 59.3096 106.228 59.0056 106.571C58.701 106.915 59.0094 107.306 59.0094 107.306C59.0094 107.306 59.0178 107.321 59.0325 107.347L59.0306 107.342C59.243 107.621 59.7012 107.324 59.7012 107.324L61.3809 106.012C61.3809 106.012 60.1939 107.025 59.7517 107.407C59.3096 107.789 59.4811 108.102 59.4811 108.102L59.4779 108.101C59.5156 108.161 59.5547 108.224 59.5962 108.29C59.8509 108.607 60.2976 108.385 60.2976 108.385L62.2442 107.134C62.2442 107.134 60.8018 108.203 60.3731 108.476C59.9463 108.747 60.1837 109.162 60.1862 109.167C60.1946 109.178 60.2029 109.19 60.2112 109.202C60.455 109.545 60.8453 109.423 60.8453 109.423L62.7945 108.333C62.7945 108.333 61.205 109.318 60.9304 109.503C60.6566 109.689 60.7839 109.988 60.7839 109.988C60.8421 110.065 60.8863 110.125 60.91 110.156C61.2146 110.559 62.847 109.554 62.847 109.554C62.6486 109.897 61.4987 110.731 61.4987 110.731C60.0243 109.474 58.623 109.983 58.623 109.983C59.5687 108.39 58.5142 106.428 58.5142 106.428Z" fill="black"/>
<path d="M33.991 87.1194C33.991 87.1194 26.6302 83.3945 26.2795 79.2102C26.2795 79.2102 34.3481 77.3731 33.991 87.1194Z" fill="#E64054"/>
<path d="M27.9695 79.6696C27.9695 79.6696 27.2221 83.3541 23.4921 84.568C23.4921 84.568 23.8748 83.6139 23.8748 82.6368C23.8748 82.6368 22.4971 85.8312 18.9763 85.9458C18.9763 85.9458 18.4023 77.5643 27.9695 79.6696Z" fill="#E64054"/>
<path opacity="0.3" d="M53.8441 209.426C53.8441 211.185 41.7909 212.61 26.9221 212.61C12.0532 212.61 0 211.185 0 209.426C0 207.668 12.0532 206.243 26.9221 206.243C41.7909 206.243 53.8441 207.668 53.8441 209.426Z" fill="#DADAE0"/>
<path opacity="0.3" d="M205.207 209.686C205.207 211.444 193.154 212.869 178.285 212.869C163.416 212.869 151.363 211.444 151.363 209.686C151.363 207.927 163.416 206.502 178.285 206.502C193.154 206.502 205.207 207.927 205.207 209.686Z" fill="#DADAE0"/>
<path d="M177.008 198.918H172.277V204.302H177.008V198.918Z" fill="#FAA284"/>
<path d="M177.808 176.157C177.756 173.709 175.798 172.082 173.734 172.082C171.569 172.082 169.659 173.845 169.659 176.157C169.623 177.292 172.087 201.303 172.087 201.303C174.465 201.303 174.401 201.122 177.256 201.141L177.808 176.157Z" fill="#484867"/>
<path d="M177.262 145.482C177.262 143.032 175.276 141.046 172.825 141.046C170.375 141.046 168.389 143.032 168.389 145.482C168.389 145.544 169.603 175.029 169.658 176.156C169.71 178.736 171.807 180.231 173.733 180.231C175.842 180.231 177.898 178.488 177.805 176.008L177.262 145.482Z" fill="#484867"/>
<path d="M171.434 203.811C171.434 203.811 172.101 202.803 174.67 202.803C177.24 202.803 177.499 203.866 177.499 203.866V205.117H171.454L171.434 203.811Z" fill="#FAA284"/>
<path d="M178.803 209.033H161.508V210.338H178.803V209.033Z" fill="#DBDBDB"/>
<path d="M161.576 209.034C161.576 209.034 160.773 205.92 166.516 206.398L171.395 202.953C171.395 202.953 171.78 202.619 172.139 202.952C172.498 203.285 173.779 204.502 175.343 204.298C176.907 204.093 176.946 203.134 177.497 203.212C178.048 203.289 178.958 205.771 178.804 209.034H161.576V209.034Z" fill="#FFCE43"/>
<path d="M166.515 206.401C160.773 205.922 161.576 209.033 161.576 209.033H166.999C166.999 207.075 166.515 206.401 166.515 206.401Z" fill="#FFDC85"/>
<path d="M169.435 206.141C169.366 206.141 169.299 206.106 169.26 206.043C168.886 205.442 168.389 205.154 168.385 205.151C168.287 205.095 168.252 204.97 168.308 204.872C168.364 204.773 168.489 204.739 168.588 204.795C168.611 204.808 169.181 205.138 169.608 205.827C169.668 205.923 169.638 206.05 169.542 206.11C169.509 206.131 169.472 206.141 169.435 206.141Z" fill="#E8E8E8"/>
<path d="M170.271 205.547C170.203 205.547 170.136 205.513 170.097 205.451C169.724 204.849 169.226 204.561 169.222 204.559C169.123 204.502 169.089 204.378 169.145 204.279C169.201 204.181 169.327 204.147 169.425 204.202C169.449 204.216 170.018 204.546 170.445 205.234C170.505 205.33 170.476 205.457 170.38 205.517C170.346 205.538 170.309 205.547 170.271 205.547Z" fill="#E8E8E8"/>
<path d="M171.109 204.955C171.04 204.955 170.973 204.921 170.934 204.858C170.56 204.257 170.064 203.969 170.059 203.966C169.96 203.91 169.926 203.785 169.983 203.687C170.039 203.588 170.164 203.554 170.262 203.61C170.286 203.624 170.855 203.954 171.283 204.642C171.342 204.738 171.313 204.865 171.217 204.924C171.183 204.945 171.146 204.955 171.109 204.955Z" fill="#E8E8E8"/>
<path d="M191.135 198.803L186.405 198.939L186.56 204.321L191.289 204.185L191.135 198.803Z" fill="#FAA284"/>
<path d="M191.286 176.026C191.163 173.581 189.159 172.011 187.096 172.07C184.932 172.132 183.073 173.949 183.139 176.26C183.136 177.396 186.401 201.27 186.401 201.27C188.653 201.059 188.618 201.055 191.288 200.784L191.286 176.026Z" fill="#484867"/>
<path d="M189.86 145.381C189.79 142.931 187.748 141.003 185.298 141.073C182.849 141.143 180.921 143.186 180.991 145.635C180.993 145.697 183.052 175.135 183.14 176.26C183.265 178.837 185.405 180.271 187.33 180.216C189.437 180.156 191.443 178.355 191.28 175.879L189.86 145.381Z" fill="#484867"/>
<path d="M185.465 203.811C185.465 203.811 186.132 202.803 188.701 202.803C191.27 202.803 191.529 203.866 191.529 203.866V205.117H185.485L185.465 203.811Z" fill="#FAA284"/>
<path d="M192.998 209.033H177.009V210.338H192.998V209.033Z" fill="#E8E8E8"/>
<path d="M178.8 209.034C178.8 209.034 178.498 206.394 181.82 206.324L185.84 202.792C185.84 202.792 186.566 202.242 187.518 202.788C188.226 203.194 188.329 204.373 189.617 204.163C190.906 203.953 190.937 202.984 191.392 203.063C191.846 203.141 193.12 205.443 192.993 209.033H178.8V209.034Z" fill="#FFCE43"/>
<path d="M180.035 206.34C176.713 206.409 177.014 209.033 177.014 209.033H182.587C182.593 206.422 180.035 206.34 180.035 206.34Z" fill="#FFDC85"/>
<path d="M185.196 206.011C185.14 206.011 185.085 205.989 185.043 205.944C184.308 205.162 183.28 205.141 183.269 205.141C183.153 205.14 183.06 205.08 183.061 204.964C183.063 204.849 183.157 204.791 183.271 204.791H183.273C183.322 204.791 184.492 204.78 185.348 205.692C185.428 205.777 185.423 205.893 185.339 205.971C185.3 206.01 185.248 206.011 185.196 206.011Z" fill="white"/>
<path d="M186.035 205.276C185.98 205.276 185.923 205.254 185.882 205.21C185.148 204.427 184.119 204.407 184.109 204.407C183.993 204.405 183.9 204.304 183.901 204.189C183.902 204.074 183.996 203.975 184.111 203.975H184.114C184.163 203.975 185.333 204.005 186.189 204.917C186.268 205.001 186.264 205.137 186.18 205.216C186.138 205.255 186.087 205.276 186.035 205.276Z" fill="white"/>
<path d="M186.875 204.542C186.819 204.542 186.763 204.519 186.722 204.475C185.987 203.693 184.959 203.672 184.949 203.672C184.833 203.671 184.739 203.611 184.741 203.495C184.742 203.38 184.835 203.322 184.951 203.322H184.953C185.002 203.322 186.172 203.31 187.028 204.222C187.107 204.307 187.103 204.422 187.019 204.501C186.978 204.54 186.927 204.542 186.875 204.542Z" fill="white"/>
<path d="M189.898 138.548H168.354L168.438 146.165C168.497 148.934 170.751 151.174 173.51 151.271L184.819 151.352C187.635 151.274 189.898 148.928 189.898 146.094C189.898 145.938 189.898 138.548 189.898 138.548Z" fill="#484867"/>
<path d="M191.905 200.973C191.743 200.973 185.465 201.303 185.465 201.303L185.024 197.848H192.181L191.905 200.973Z" fill="#6F6FA5"/>
<path d="M177.946 201.279C177.784 201.279 171.506 201.609 171.506 201.609L171.065 198.154H178.222L177.946 201.279Z" fill="#6F6FA5"/>
<g opacity="0.3">
<path d="M179.835 151.092C179.781 151.092 179.73 151.061 179.707 151.009C179.702 150.995 179.093 149.581 178.358 146.583C177.62 143.572 178.325 136.841 178.355 136.557C178.363 136.481 178.433 136.425 178.507 136.433C178.583 136.442 178.639 136.51 178.63 136.586C178.623 136.655 177.901 143.553 178.627 146.517C179.355 149.489 179.956 150.884 179.961 150.898C179.992 150.969 179.959 151.051 179.889 151.081C179.872 151.088 179.853 151.092 179.835 151.092Z" fill="black"/>
<path d="M178.586 148.556C178.579 148.556 178.571 148.556 178.565 148.554C177.174 148.345 176.68 146.684 176.659 146.613C175.748 143.806 176.651 136.692 176.689 136.39C176.699 136.314 176.768 136.26 176.845 136.27C176.921 136.28 176.975 136.349 176.965 136.426C176.955 136.499 176.03 143.78 176.924 146.532C176.93 146.551 177.392 148.097 178.606 148.28C178.682 148.291 178.734 148.362 178.722 148.437C178.712 148.507 178.653 148.556 178.586 148.556Z" fill="black"/>
<path d="M179.006 138.691C174.986 138.691 172.599 137.452 172.563 137.434C172.495 137.398 172.47 137.313 172.506 137.246C172.542 137.179 172.627 137.154 172.695 137.189C172.746 137.218 178.01 139.938 186.116 137.18C186.189 137.156 186.268 137.194 186.292 137.267C186.317 137.34 186.278 137.419 186.206 137.443C183.455 138.378 181.025 138.691 179.006 138.691Z" fill="black"/>
<path d="M177.49 137.953C177.806 137.953 178.062 137.697 178.062 137.381C178.062 137.064 177.806 136.808 177.49 136.808C177.173 136.808 176.917 137.064 176.917 137.381C176.917 137.697 177.173 137.953 177.49 137.953Z" fill="black"/>
<path d="M183.211 138.561C183.211 138.561 183.24 142.519 187.32 142.414C187.32 142.414 186.612 139.462 185.709 137.953C185.709 137.953 183.975 138.527 183.211 138.561Z" fill="black"/>
<path d="M172.963 137.936C172.963 137.936 172.524 140.157 170.766 140.711C170.766 140.711 171.472 138.509 172.073 137.494C172.073 137.494 172.478 137.728 172.963 137.936Z" fill="black"/>
<path d="M187.175 143.4C185.707 143.401 184.532 142.986 183.676 142.167C182.192 140.749 182.204 138.644 182.206 138.555C182.207 138.479 182.269 138.414 182.345 138.414H182.346C182.423 138.414 182.484 138.482 182.483 138.559C182.483 138.579 182.474 140.633 183.869 141.966C184.761 142.818 186.032 143.203 187.645 143.108C187.722 143.104 187.787 143.162 187.791 143.239C187.796 143.315 187.738 143.381 187.662 143.386C187.495 143.396 187.333 143.4 187.175 143.4Z" fill="black"/>
<path d="M170.599 141.579C170.536 141.579 170.48 141.537 170.464 141.474C170.446 141.4 170.49 141.325 170.564 141.305C173.081 140.66 173.459 138.098 173.462 138.073C173.472 137.997 173.542 137.943 173.618 137.954C173.694 137.965 173.748 138.034 173.737 138.11C173.733 138.138 173.329 140.882 170.632 141.575C170.622 141.577 170.61 141.579 170.599 141.579Z" fill="black"/>
<path d="M180.518 150.829C180.492 150.829 180.466 150.822 180.443 150.807C180.378 150.766 180.36 150.68 180.401 150.616C180.414 150.596 181.672 148.651 183.512 147.348C183.575 147.304 183.661 147.319 183.705 147.381C183.749 147.443 183.735 147.53 183.672 147.574C181.878 148.845 180.646 150.746 180.634 150.765C180.608 150.807 180.563 150.829 180.518 150.829Z" fill="black"/>
<path d="M181.338 150.55C181.298 150.55 181.258 150.533 181.231 150.499C181.182 150.44 181.191 150.352 181.25 150.304C181.274 150.284 183.673 148.347 186.726 147.792C186.801 147.779 186.874 147.828 186.887 147.904C186.901 147.979 186.851 148.052 186.776 148.065C183.792 148.608 181.449 150.5 181.425 150.519C181.4 150.539 181.369 150.55 181.338 150.55Z" fill="black"/>
<path d="M181.199 151.091C181.134 151.091 181.076 151.045 181.063 150.979C181.048 150.904 181.097 150.831 181.172 150.816C181.295 150.792 184.202 150.227 185.739 150.555C185.814 150.571 185.862 150.645 185.846 150.72C185.83 150.794 185.755 150.842 185.68 150.826C184.199 150.51 181.255 151.083 181.225 151.089C181.217 151.09 181.208 151.091 181.199 151.091Z" fill="black"/>
<path d="M178.146 150.83C178.1 150.83 178.056 150.807 178.029 150.766C178.017 150.746 176.785 148.845 174.991 147.574C174.928 147.53 174.914 147.443 174.958 147.381C175.003 147.318 175.089 147.304 175.151 147.348C176.991 148.652 178.25 150.597 178.262 150.616C178.304 150.681 178.285 150.767 178.221 150.808C178.198 150.822 178.171 150.83 178.146 150.83Z" fill="black"/>
<path d="M177.325 150.55C177.295 150.55 177.263 150.54 177.238 150.519C177.215 150.499 174.869 148.607 171.887 148.065C171.812 148.051 171.762 147.979 171.776 147.904C171.789 147.828 171.862 147.779 171.937 147.792C174.991 148.347 177.39 150.284 177.413 150.304C177.472 150.352 177.481 150.439 177.433 150.499C177.406 150.532 177.366 150.55 177.325 150.55Z" fill="black"/>
<path d="M177.465 151.092C177.456 151.092 177.447 151.091 177.438 151.089C177.409 151.084 174.464 150.511 172.983 150.827C172.909 150.843 172.834 150.795 172.818 150.72C172.802 150.645 172.85 150.572 172.925 150.556C174.462 150.228 177.369 150.793 177.491 150.817C177.567 150.832 177.616 150.905 177.601 150.98C177.588 151.046 177.53 151.092 177.465 151.092Z" fill="black"/>
</g>
<path d="M186.425 77.5405C187.407 78.2841 188.03 79.4276 188.343 80.6191C188.762 82.2131 188.667 83.9121 188.268 85.5112C187.868 87.1103 187.173 88.6205 186.396 90.0744C186.251 90.345 186.093 90.6253 185.835 90.791C185.604 90.9389 185.322 90.9766 185.05 91.0105C181.783 91.4169 178.471 91.8239 175.208 91.3874C174.455 91.2863 173.661 91.118 173.115 90.5895C172.409 89.9054 172.311 88.8233 172.276 87.8411C172.245 86.9721 172.228 86.1025 172.226 85.2328C172.22 83.2971 169.344 82.7724 169.946 80.9327C170.179 80.2211 173.449 78.0742 173.989 77.5559C174.396 77.1649 174.906 76.8994 175.427 76.6824C177.16 75.9613 179.097 75.7386 180.948 76.047C181.893 76.2044 182.672 76.8706 183.603 76.8053C184.637 76.7311 185.576 76.8974 186.425 77.5405Z" fill="#502F26"/>
<path d="M183.372 95.4734H176.683V103.305H183.372V95.4734Z" fill="#F4B799"/>
<path opacity="0.3" d="M183.372 98.8185V95.4724H176.683V100.693C177.662 100.834 181.577 101.102 183.372 98.8185Z" fill="black"/>
<path d="M175.757 102.349C175.757 102.349 179.693 101.431 184.384 102.349C184.384 102.349 183.201 105.041 179.693 105.041C176.185 105.041 175.757 102.349 175.757 102.349Z" fill="#F4B799"/>
<path d="M197.071 107.655C196.399 105.237 194.253 104.856 194.253 104.856C194.253 104.856 188.616 103.289 183.977 102.278C183.977 102.278 182.97 104.965 179.191 104.903C175.914 104.85 176.226 102.278 176.226 102.278C174.114 102.61 168.777 103.859 166.673 104.842C166.673 104.842 164.457 105.583 164.247 108.113C164.247 108.113 164.216 109.253 166.613 110.824C166.758 113.488 167.101 117.173 167.834 122.135C168.689 127.925 168.354 130.962 168.339 138.956C168.339 138.956 175.192 141.829 190.314 138.945C190.314 138.945 189.765 130.512 190.517 124.144C191.123 119.014 193.162 114.013 193.488 111.257V111.258C197.73 109.475 197.071 107.655 197.071 107.655Z" fill="#FFCE43"/>
<path d="M195.578 106.934C194.543 105.619 192.637 105.392 191.322 106.427C190.006 107.462 189.779 109.368 190.814 110.684C190.977 110.89 203.948 124.506 203.948 124.506C204.83 125.588 206.419 125.769 207.521 124.902C208.623 124.035 208.821 122.448 207.976 121.335L195.578 106.934Z" fill="#F4B799"/>
<path d="M207.654 124.779C208.661 123.812 208.713 122.214 207.76 121.185C206.808 120.157 205.173 120.057 204.133 120.989C204.133 120.989 200.261 123.52 190.511 133.642L192.737 136.044C192.737 136.044 203.182 129.663 207.52 124.896C207.549 124.865 207.654 124.779 207.654 124.779Z" fill="#F4B799"/>
<path d="M204.362 115.623L196.304 106.283C194.951 104.586 192.469 104.298 190.761 105.644C189.048 106.995 188.755 109.488 190.105 111.2C190.224 111.351 194.333 115.666 198.901 120.454C200.309 119.405 202.621 117.57 204.362 115.623Z" fill="#FFCE43"/>
<path d="M193.674 133.603C193.164 132.137 192.386 132.368 192.386 132.368L191.266 132.423C190.291 131.934 189.771 131.156 189.269 130.998C188.363 130.714 188.064 129.833 187.872 129.906C187.456 130.065 187.355 130.448 187.537 130.8C187.797 131.3 188.409 131.768 188.409 131.768C188.016 131.625 186.373 131.127 185.791 131.054C185.287 130.99 183.834 131.854 183.66 131.952C183.443 132.074 183.135 132.284 183.235 132.491C183.405 132.839 183.816 132.833 184.129 132.742C184.476 132.64 185.263 132.078 185.547 132.153C185.712 132.197 186.72 132.497 186.798 132.529C186.798 132.529 185.558 133.011 185.024 133.199C184.408 133.418 183.117 133.947 183.117 133.947C182.103 134.585 183.359 134.983 183.359 134.983C183.283 135.047 183.03 135.273 183.109 135.469C183.257 135.834 183.784 135.835 183.916 135.829C184.321 135.812 185.568 135.41 185.601 135.413L187.408 135.469C186.865 135.891 186.547 136.124 185.871 136.59C185.757 136.668 185.031 137.116 184.979 137.228C184.916 137.362 184.971 137.483 185.094 137.543C185.348 137.668 185.662 137.659 185.951 137.562C186.09 137.516 186.644 137.261 186.942 137.086C188.115 136.4 188.772 136.185 189.843 136.965C191.386 138.088 193.085 135.79 193.085 135.79C193.085 135.79 194.184 135.069 193.674 133.603Z" fill="#F4B799"/>
<path opacity="0.3" d="M188.409 131.768L189.235 132.068C189.235 132.068 189.329 131.876 188.409 131.768Z" fill="black"/>
<path opacity="0.3" d="M183.359 134.983C183.359 134.983 185.053 134.389 185.44 134.284C185.827 134.179 187.73 134.211 187.576 133.795C187.576 133.795 187.003 133.296 183.359 134.983Z" fill="black"/>
<path opacity="0.3" d="M186.799 132.529C186.799 132.529 187.752 132.39 187.523 132.295C187.294 132.2 186.986 132.456 186.799 132.529Z" fill="black"/>
<path d="M165.444 106.966C166.483 105.654 168.39 105.432 169.702 106.47C171.015 107.51 171.237 109.416 170.197 110.728C170.034 110.934 157.026 124.514 157.026 124.514C156.141 125.594 154.55 125.77 153.451 124.9C152.352 124.03 152.158 122.442 153.006 121.332L165.444 106.966Z" fill="#F4B799"/>
<path d="M153.097 124.515C152.198 123.446 152.317 121.851 153.374 120.93C154.431 120.009 156.067 120.085 157.002 121.122C157.002 121.122 160.581 124.052 169.195 135.157L166.9 137.156C166.9 137.156 157.021 129.848 153.217 124.647C153.192 124.611 153.097 124.515 153.097 124.515Z" fill="#F4B799"/>
<path d="M156.635 115.63L164.719 106.313C166.077 104.619 168.56 104.338 170.263 105.689C171.972 107.045 172.26 109.538 170.904 111.248C170.785 111.398 166.663 115.702 162.083 120.476C160.677 119.424 158.371 117.582 156.635 115.63Z" fill="#FFCE43"/>
<path d="M168.592 130.907C168.592 130.907 168.991 129.615 168.398 129.248C167.833 128.899 167.437 131.327 167.437 131.327L168.592 130.907Z" fill="#F4B799"/>
<path d="M173.305 133.014C173.24 132.967 171.323 132.002 171.043 131.94C170.877 131.904 169.466 131.761 169.459 131.754L170.524 131.444C170.966 131.315 171.782 132.001 172.4 131.838C172.965 131.689 172.917 131.276 172.706 131.192C171.258 130.622 170.9 130.309 170.387 130.356C169.544 130.434 169.09 130.599 168.762 130.652C168.077 130.762 167.824 130.655 167.54 131.126C167.518 131.162 166.716 132.614 166.233 135.645C166.006 137.066 167.6 137.499 167.6 137.499C168.94 137.846 168.903 136.342 169.434 135.866C169.658 135.665 170.669 136.5 171.002 136.689C171.333 136.879 171.794 137.027 171.972 136.92C172.381 136.674 172.209 136.488 172.016 136.334C171.716 136.097 169.64 134.635 169.64 134.635C169.653 134.555 169.674 134.495 169.687 134.418C169.687 134.418 170.746 134.764 171.246 134.99C171.703 135.196 172.505 135.557 172.908 135.308C173.28 135.078 173.106 134.779 172.977 134.66C172.74 134.44 169.864 133.152 169.864 133.152C169.864 133.152 170.291 132.841 170.881 132.979C171.283 133.073 171.931 133.305 172.135 133.407C172.41 133.544 173.068 133.852 173.331 133.533C173.515 133.31 173.434 133.107 173.305 133.014Z" fill="#F4B799"/>
<path opacity="0.3" d="M169.54 135.837C169.54 135.837 169.027 135.475 168.928 135.449C168.834 135.424 168.769 135.554 169.54 135.837Z" fill="black"/>
<path opacity="0.3" d="M169.165 136.187C169.165 136.187 168.331 136.067 168.236 135.976C168.141 135.886 167.785 136.302 169.165 136.187Z" fill="black"/>
<path opacity="0.3" d="M169.639 134.637C169.639 134.637 168.606 134.139 168.672 133.958C168.762 133.712 169.43 134.239 169.685 134.42L169.639 134.637Z" fill="black"/>
<path opacity="0.3" d="M169.862 133.153C169.862 133.153 168.705 132.931 168.742 132.654C168.778 132.377 169.862 133.153 169.862 133.153Z" fill="black"/>
<path opacity="0.3" d="M169.458 131.754C169.458 131.754 168.591 131.56 168.531 131.395C168.47 131.23 168.865 131.37 169.458 131.754Z" fill="black"/>
<path d="M185.392 89.2215C185.533 90.3017 186.522 91.0638 187.603 90.923C188.683 90.7822 189.445 89.7929 189.305 88.7122C189.164 87.632 188.174 86.8699 187.094 87.0106C186.014 87.1514 185.251 88.1414 185.392 89.2215Z" fill="#F4B799"/>
<path opacity="0.6" d="M186.595 89.0889C186.608 89.613 187.044 90.027 187.568 90.0142C188.092 90.0014 188.506 89.5656 188.493 89.0416C188.48 88.5175 188.044 88.1035 187.521 88.1163C186.996 88.1297 186.582 88.5655 186.595 89.0889Z" fill="black"/>
<path d="M174.732 80.2542C178.376 75.9937 185.362 77.749 186.686 83.1971C187.279 85.6409 187.681 88.6901 187.208 91.7539C186.142 98.6598 181.783 101.575 176.901 99.2984C172.02 97.0222 171.558 87.2144 173.164 82.92C173.532 81.9359 174.065 81.0336 174.732 80.2542Z" fill="#F4B799"/>
<path d="M187.331 86.9955C187.331 86.9955 186.601 86.9226 185.948 88.0136C185.948 88.0136 184.696 79.7985 181.451 80.0692C181.451 80.0692 177.179 80.2426 172.81 82.3358C169.058 84.1333 169.52 75.9098 176.25 75.6641C184.053 75.3787 183.184 76.1741 183.184 76.1741C183.184 76.1741 190.666 73.6849 187.331 86.9955Z" fill="#502F26"/>
<path d="M184.194 81.4155C184.194 81.4155 184.905 76.9073 183.508 75.1086C182.112 73.3098 181.113 73.5043 180.255 74.3548C180.255 74.3548 178.533 72.5272 177.394 74.2236C176.254 75.92 175.49 74.6555 174.826 74.2159C174.162 73.7763 172.288 73.6585 172.823 75.4599C172.823 75.4599 169.093 73.2432 168.1 75.5917C167.107 77.9401 170.072 78.8923 170.072 78.8923C170.072 78.8923 168.311 84.7212 173.473 82.2832C179.725 79.3319 184.194 81.4155 184.194 81.4155Z" fill="#502F26"/>
<path d="M62.5384 12.1429C62.3612 11.7596 62.1957 11.368 62.0471 10.9795L62.304 10.8516C62.4498 11.2336 62.6119 11.6175 62.7863 11.9938L62.5384 12.1429Z" fill="white"/>
<path d="M178.154 44.6991L176.817 42.677L177.04 42.4844L178.377 44.5065L178.154 44.6991ZM175.48 40.6549L174.142 38.6328L174.365 38.4402L175.703 40.4623L175.48 40.6549ZM172.805 36.6107L171.467 34.5874L171.691 34.396L173.028 36.4181L172.805 36.6107ZM170.126 32.571C169.677 31.9017 169.225 31.2349 168.764 30.5745L168.984 30.3749C169.445 31.0365 169.899 31.7052 170.349 32.3759L170.126 32.571ZM167.361 28.6183C166.855 27.9375 166.376 27.318 165.896 26.7242L166.102 26.5073C166.584 27.1043 167.067 27.7269 167.574 28.4116L167.361 28.6183ZM100.575 28.2126C100.46 28.2126 100.345 28.2114 100.23 28.2094L100.234 27.8895C100.954 27.9042 101.69 27.8728 102.438 27.7986L102.462 28.1173C101.824 28.1806 101.189 28.2126 100.575 28.2126ZM98.0011 28.0162C97.2485 27.8978 96.5115 27.7231 95.81 27.4966L95.8868 27.1888C96.576 27.4115 97.3001 27.583 98.0398 27.6994L98.0011 28.0162ZM104.674 27.7788L104.625 27.4639C105.337 27.318 106.062 27.1338 106.78 26.9168L106.852 27.2259C106.126 27.4454 105.393 27.631 104.674 27.7788ZM93.7074 26.6154C93.2005 26.3499 92.7047 26.0466 92.2347 25.7151C92.0721 25.6005 91.9128 25.4802 91.7563 25.3548L91.9173 25.0931C92.0693 25.2147 92.2241 25.3318 92.3822 25.4425C92.8426 25.7676 93.3283 26.0645 93.8252 26.3249L93.7074 26.6154ZM108.985 26.4823L108.893 26.1797C109.044 26.1201 109.194 26.0594 109.342 25.9979C109.867 25.7804 110.411 25.5391 110.961 25.2812L111.067 25.5769C110.515 25.8367 109.966 26.0792 109.438 26.298C109.288 26.3614 109.137 26.4228 108.985 26.4823ZM164.352 24.9165C163.902 24.418 163.445 23.9394 162.994 23.4933C162.902 23.4018 162.809 23.311 162.716 23.2214L162.896 22.9769C162.991 23.0678 163.084 23.1593 163.177 23.2515C163.633 23.7013 164.093 24.1838 164.547 24.6861L164.352 24.9165ZM113.107 24.5607L112.99 24.2702C113.609 23.9445 114.263 23.5874 114.989 23.1785L115.113 23.4652C114.385 23.876 113.729 24.2344 113.107 24.5607ZM84.432 24.2747C84.095 24.2747 83.7579 24.2708 83.4214 24.2619L83.4276 23.9419C84.1645 23.9605 84.9025 23.9579 85.6412 23.9374L85.6479 24.2574C85.2418 24.2683 84.8369 24.2747 84.432 24.2747ZM87.8704 24.1441L87.853 23.8248C88.549 23.7749 89.2624 23.7109 90.0329 23.629C89.5428 23.023 89.0952 22.353 88.7021 21.637L88.9399 21.4668C89.3319 22.1822 89.78 22.8502 90.2713 23.4511L90.066 23.6693H90.0655L90.0879 23.9445C89.3033 24.0277 88.5782 24.0936 87.8704 24.1441ZM81.1961 24.1364C80.4407 24.0699 79.6953 23.9765 78.9808 23.86L79.0201 23.5433C79.7295 23.6591 80.4687 23.7512 81.218 23.8178L81.1961 24.1364ZM92.2992 23.6776L92.2667 23.3596C92.9212 23.2726 93.574 23.1791 94.2251 23.0825L94.4668 23.046L94.5038 23.3634L94.2615 23.3999C93.6087 23.4965 92.9548 23.59 92.2992 23.6776ZM76.7863 23.4108C76.5598 23.3551 76.3338 23.2956 76.1083 23.2335C75.612 23.096 75.1134 22.9392 74.6272 22.7677L74.7096 22.4618C75.1908 22.6314 75.6832 22.7862 76.1745 22.9219C76.3977 22.984 76.6215 23.0422 76.8458 23.0979L76.7863 23.4108ZM96.7056 22.9846L96.6574 22.6698C97.4537 22.5111 98.1604 22.3383 98.8165 22.1412L98.8877 22.4503C98.2237 22.6499 97.5098 22.8246 96.7056 22.9846ZM117.096 22.3236L116.969 22.0388L118.944 20.8825L119.072 21.1673L117.096 22.3236ZM72.5258 21.907C71.8349 21.5832 71.1546 21.2204 70.5029 20.8288L70.633 20.5459C71.2768 20.9324 71.9498 21.2908 72.6323 21.6107L72.5258 21.907ZM160.978 21.6671C160.387 21.1782 159.771 20.7046 159.144 20.2618L159.292 19.9899C159.924 20.4372 160.547 20.9145 161.142 21.4085L160.978 21.6671ZM101.012 21.6523L100.906 21.3561C101.612 21.0265 102.267 20.6419 102.854 20.2126L103.005 20.482C102.404 20.9216 101.734 21.3158 101.012 21.6523ZM121.053 20.0276L120.928 19.7409C121.663 19.3263 122.318 18.9679 122.933 18.6448L123.051 18.9353C122.439 19.2565 121.785 19.6142 121.053 20.0276ZM68.5799 19.5323C67.9512 19.0569 67.3472 18.5469 66.7858 18.0145L66.9647 17.7681C67.5188 18.2928 68.1144 18.7971 68.7346 19.2655L68.5799 19.5323ZM87.691 19.3519C87.4128 18.5482 87.203 17.7208 87.0673 16.8927L87.3427 16.8339C87.475 17.6414 87.6797 18.449 87.9512 19.2341L87.691 19.3519ZM157.227 19.0095C156.583 18.6224 155.914 18.2525 155.237 17.9115L155.351 17.619C156.033 17.9633 156.708 18.3364 157.357 18.7267L157.227 19.0095ZM104.739 18.8464L104.534 18.6288C105.031 18.017 105.456 17.3355 105.796 16.6041L106.044 16.7539C105.692 17.5102 105.253 18.2141 104.739 18.8464ZM125.079 17.9211L124.973 17.6248L125.353 17.4475C125.908 17.1935 126.48 16.9484 127.054 16.7193L127.147 17.0214C126.577 17.2485 126.009 17.4923 125.458 17.7444L125.079 17.9211ZM153.187 16.9676C152.504 16.6822 151.797 16.4166 151.088 16.178L151.167 15.8714C151.883 16.112 152.595 16.3802 153.283 16.6675L153.187 16.9676ZM65.1532 16.272C64.635 15.6481 64.1539 14.9877 63.7231 14.3101L63.9503 14.1219C64.3737 14.7887 64.847 15.4382 65.3568 16.0519L65.1532 16.272ZM129.254 16.2567L129.176 15.9495C129.887 15.7166 130.612 15.5029 131.333 15.3147L131.396 15.6264C130.68 15.8132 129.959 16.0257 129.254 16.2567ZM148.948 15.5406C148.238 15.3557 147.509 15.1912 146.778 15.0524L146.824 14.7369C147.56 14.8764 148.296 15.0421 149.01 15.229L148.948 15.5406ZM133.565 15.1311L133.518 14.8156C134.249 14.6723 134.991 14.55 135.723 14.4534L135.756 14.7714C135.028 14.8674 134.291 14.9877 133.565 15.1311ZM144.586 14.7119C143.859 14.623 143.117 14.5571 142.38 14.5155L142.394 14.1962C143.135 14.2378 143.882 14.3043 144.615 14.3939L144.586 14.7119ZM137.958 14.5475L137.941 14.2282C138.681 14.1763 139.43 14.1469 140.168 14.1418L140.17 14.4617C139.437 14.4669 138.693 14.4956 137.958 14.5475ZM87.1677 14.3485L86.8873 14.3389C86.9103 13.4571 87.0253 12.6041 87.2283 11.8023L87.4975 11.8912C87.3012 12.6674 87.1901 13.4942 87.1677 14.3485ZM106.809 14.337L106.535 14.2742C106.615 13.8122 106.656 13.3509 106.656 12.9023C106.656 12.5331 106.628 12.167 106.574 11.8151L106.85 11.7594C106.907 12.1299 106.936 12.5139 106.936 12.9023C106.936 13.372 106.893 13.8545 106.809 14.337ZM88.3909 9.63238L88.1547 9.4596C88.4043 9.01551 88.692 8.59381 89.01 8.20795C89.2057 7.96927 89.4166 7.7389 89.6359 7.52325L89.8187 7.76577C89.6073 7.97374 89.4037 8.19579 89.2147 8.42679C88.9079 8.79922 88.6309 9.20492 88.3909 9.63238ZM105.757 9.55367C105.371 8.91248 104.858 8.32505 104.23 7.80929L104.394 7.55013C105.047 8.08765 105.583 8.70132 105.988 9.37258L105.757 9.55367ZM102.32 6.60179C101.925 6.40982 101.5 6.23128 101.058 6.07131C100.789 5.9734 100.512 5.88318 100.237 5.80191L100.307 5.49219C100.588 5.57474 100.869 5.66753 101.143 5.76671C101.593 5.92989 102.026 6.11226 102.429 6.30807L102.32 6.60179ZM91.6431 6.4111L91.5214 6.12314C92.1758 5.76287 92.8903 5.48004 93.6435 5.28167L93.7069 5.5933C92.9739 5.78655 92.2796 6.06171 91.6431 6.4111ZM98.0751 5.34758C97.3359 5.25351 96.6007 5.22535 95.8795 5.26119L95.8677 4.94188C96.6007 4.90348 97.3517 4.9342 98.106 5.02954L98.0751 5.34758Z" fill="white"/>
<path d="M179.755 46.582L179.531 46.7749L180.207 47.7971L180.431 47.6042L179.755 46.582Z" fill="white"/>
<path d="M65.8513 6.15524L65.5076 16.3956L31.9031 0L65.8513 6.15524Z" fill="#EA9918"/>
<path d="M74.5776 0.34363L65.8513 6.15524L31.9031 0L74.5776 0.34363Z" fill="#FFCE43"/>
<path d="M62.7631 8.03016L31.9031 0L53.5753 14.1771L62.7631 8.03016Z" fill="#FFCE43"/>
<path d="M65.5078 16.3955L62.7632 8.03003L56.6777 12.1049L65.5078 16.3955Z" fill="#FFBB4D"/>
<path opacity="0.5" d="M80.11 169.156L75.095 168.253L71.1584 160.998L62.1043 165.911L58.8767 165.33L57.6052 168.353L48.5505 173.266L52.4872 180.52L50.5118 185.217L61.5687 205.593L91.1662 189.532L80.11 169.156Z" fill="black"/>
<path d="M77.3472 167.725L47.7502 183.788L55.8676 198.745L85.4646 182.682L77.3472 167.725Z" fill="#E5AE13"/>
<path d="M47.7415 183.799L56.1056 163.911L77.3389 167.738L47.7415 183.799Z" fill="#FFCE43"/>
<path d="M68.3735 159.578L45.7668 171.845L60.5029 199.003L83.1096 186.736L68.3735 159.578Z" fill="white"/>
<path d="M69.6519 165.939L50.1587 176.516L50.6512 177.424L70.1444 166.846L69.6519 165.939Z" fill="#EDEDED"/>
<path d="M70.6695 167.767L51.1763 178.346L51.6692 179.254L71.1624 168.675L70.6695 167.767Z" fill="#EDEDED"/>
<path d="M71.6665 169.603L52.1733 180.182L52.666 181.09L72.1592 170.511L71.6665 169.603Z" fill="#EDEDED"/>
<path d="M72.6631 171.44L53.1699 182.019L53.6629 182.928L73.1561 172.348L72.6631 171.44Z" fill="#EDEDED"/>
<path d="M73.6385 173.29L54.1453 183.867L54.6381 184.775L74.1313 174.198L73.6385 173.29Z" fill="#EDEDED"/>
<path d="M70.3272 177.597L55.2197 185.796L55.7127 186.704L70.8202 178.505L70.3272 177.597Z" fill="#EDEDED"/>
<path d="M47.7415 183.799L58.7977 204.174L88.3958 188.113L77.3389 167.738L69.0887 187.836L47.7415 183.799Z" fill="#FFCE43"/>
<path d="M58.7983 204.174L67.1632 184.286L88.3965 188.113L58.7983 204.174Z" fill="#FFCE43"/>
<path opacity="0.5" d="M58.7983 204.174L65.1615 187.094L65.9262 187.238L58.7983 204.174Z" fill="black"/>
<path opacity="0.5" d="M88.3965 188.113L70.3135 184.854L70.6078 184.138L88.3965 188.113Z" fill="black"/>
<path opacity="0.5" d="M59.0188 71.5475V45.8553C59.0188 41.7663 61.1049 38.1573 64.2724 36.052C67.3823 38.4452 69.8396 41.7599 71.1834 45.753C74.722 56.2666 69.2957 67.6377 59.0188 71.5475Z" fill="black"/>
<path d="M70.827 53.9381C72.6962 42.7299 65.1253 32.1285 53.9171 30.2593C42.7088 28.3901 32.1074 35.9609 30.2382 47.1692C28.369 58.3775 35.9399 68.9789 47.1481 70.8481C58.3564 72.7173 68.9578 65.1464 70.827 53.9381Z" fill="#0AAD60"/>
<path d="M58.4493 67.601C67.6441 63.533 71.8002 52.7813 67.7322 43.5864C63.6641 34.3916 52.9124 30.2355 43.7176 34.3036C34.5227 38.3716 30.3667 49.1233 34.4347 58.3182C38.5027 67.513 49.2544 71.6691 58.4493 67.601Z" fill="#0AAD60"/>
<path opacity="0.2" d="M56.0308 67.106C46.6255 70.2761 36.4466 65.3245 33.0967 56.0318C33.1351 56.1547 33.1696 56.2775 33.2106 56.4004C36.4223 65.9279 46.7497 71.0485 56.2772 67.8368C65.8047 64.6251 70.9253 54.2977 67.7136 44.7702C67.6726 44.6479 67.6246 44.5289 67.5811 44.408C70.5407 53.8318 65.4362 63.9359 56.0308 67.106Z" fill="white"/>
<path opacity="0.5" d="M45.233 34.8331C54.5052 31.7078 64.5325 36.4751 68.0238 45.5144C67.9495 45.2578 67.8721 45.0018 67.7864 44.7459C64.5747 35.2183 54.2473 30.0978 44.7197 33.3095C35.1922 36.5212 30.0717 46.8486 33.2834 56.3761C33.3691 56.6314 33.4632 56.8823 33.5592 57.1312C30.8652 47.8225 35.9607 37.9584 45.233 34.8331Z" fill="black"/>
<g opacity="0.5">
<path d="M50.6349 60.8994L41.1931 52.9806L43.038 50.7806L49.9425 56.5717L59.7401 40.7847L62.18 42.298L50.6349 60.8994Z" fill="black"/>
</g>
<path d="M50.2147 59.8703L40.7722 51.9515L42.6171 49.7515L49.5223 55.5426L59.3198 39.7549L61.7592 41.2689L50.2147 59.8703Z" fill="white"/>
<defs>
<linearGradient id="paint0_linear_2317_7720" x1="73.83" y1="62.1666" x2="134.474" y2="62.1666" gradientUnits="userSpaceOnUse">
<stop stop-color="#37355E" stop-opacity="0.8"/>
<stop offset="1" stop-color="#D1D1E6"/>
</linearGradient>
<linearGradient id="paint1_linear_2317_7720" x1="73.8298" y1="72.8718" x2="134.474" y2="72.8718" gradientUnits="userSpaceOnUse">
<stop stop-color="#37355E" stop-opacity="0.8"/>
<stop offset="1" stop-color="#D1D1E6"/>
</linearGradient>
<linearGradient id="paint2_linear_2317_7720" x1="73.8298" y1="82.0219" x2="134.474" y2="82.0219" gradientUnits="userSpaceOnUse">
<stop stop-color="#37355E" stop-opacity="0.8"/>
<stop offset="1" stop-color="#D1D1E6"/>
</linearGradient>
<linearGradient id="paint3_linear_2317_7720" x1="73.8298" y1="196.67" x2="134.474" y2="196.67" gradientUnits="userSpaceOnUse">
<stop stop-color="#37355E" stop-opacity="0.8"/>
<stop offset="1" stop-color="#D1D1E6"/>
</linearGradient>
</defs>
</svg>
